<?xml version="1.0" encoding="UTF-8"?>
<svg width="278px" height="279px" viewBox="0 0 278 279" version="1.1" xmlns="http://www.w3.org/2000/svg" xmlns:xlink="http://www.w3.org/1999/xlink">
    <!-- Generator: Sketch 51 (57462) - http://www.bohemiancoding.com/sketch -->
    <title>优势3配图</title>
    <desc>Created with Sketch.</desc>
    <defs>
        <polygon id="path-1" points="0 0.296820325 38.3469525 0.296820325 38.3469525 21.9687927 0 21.9687927"></polygon>
    </defs>
    <g id="优势3配图" stroke="none" stroke-width="1" fill="none" fill-rule="evenodd">
        <g id="Page-1">
            <path d="M91.1473994,214.080001 L91.1473994,203.924521 C84.2118129,201.87258 77.1499579,199.289843 71,196.581018 L71.0330835,202.415028 C71.0330835,202.415028 69.3065277,226.622037 90.7990809,238.276147 L109.996085,249 C88.9955283,237.244276 91.1473994,211.750959 91.1473994,215.706759" id="Fill-1" fill="#ED7018"></path>
            <path d="M196.222911,13 C184.433847,20.923091 174.823932,26.1212919 167,29.4084188 C172.390768,33.2577825 177.747405,37.4576314 183.027902,42 C191.472761,38.8821415 202.254297,33.3493866 216,24.111312 L196.222911,13 Z" id="Fill-3" fill="#ED7018"></path>
            <path d="M134.265017,29.0945766 C133.806617,28.445498 133.634059,28 133.634059,28 C133.634059,28 133.435156,28.7449202 132.894429,30.1038872 C132.533506,31.0081027 132.018465,32.1892671 131.310449,33.5997903 C127.757197,40.6854551 119.290643,53.6617397 100.487055,67.6513009 C99.4115294,68.4510821 98.3010969,69.2548291 97.1570748,70.0598981 C95.5039397,71.2245382 93.7737462,72.3938051 91.9724218,73.5657158 C90.7072137,74.3879702 89.4038056,75.2115466 88.0635149,76.0357839 C82.9513101,79.1767428 77.2878407,82.3203455 71,85.4130531 L71,102.789456 L71,106.267513 L71,173.016855 L71,176.110884 L71,194.908171 C77.1857547,197.716659 84.0873393,200.143299 91.1069063,202.27032 L91.1069063,200.555799 L91.1069063,197.922997 L91.1069063,96.6353656 C113.036961,85.8482341 127.194077,74.2875019 136.60114,64.510342 C137.108277,63.982222 137.6029,63.4587289 138.082375,62.9405235 C150.774632,49.2140309 153.478266,39.0640805 153.478266,39.0640805 C153.478266,39.0640805 157.781686,50.2226806 181,42.4205176 C175.66584,37.9357941 170.257915,33.7980832 164.817718,30.027214 C146.544319,37.1393178 138.632981,33.4543755 135.490707,30.4965071 C134.949981,29.9875554 134.551516,29.5017379 134.265017,29.0945766 Z" id="Fill-5" fill="#ED7018"></path>
            <path d="M148.324495,245.228326 C147.634162,245.623663 146.94383,246.013041 146.254162,246.393809 C139.78778,249.961777 133.340685,252.876147 127,255.082618 C134.343596,256.243466 143.152986,256.377894 153.731436,255.05017 C154.760284,253.9966 155.771176,252.948327 156.766106,251.906015 C157.283523,251.365654 157.783648,250.829929 158.290424,250.292218 C170.578744,237.270593 180.309242,225.11712 188,214 C175.282716,226.963351 161.787977,237.509649 148.324495,245.228326" id="Fill-7" fill="#FF9143"></path>
            <path d="M147.481831,212.275085 C130.002731,212.04629 113.364214,209.81272 98.2060945,205.969627 C97.0844411,205.685125 95.9700283,205.393992 94.8648311,205.091584 C93.5759828,204.740102 92.298983,204.375356 91.0331734,204 L91.0331734,213.334173 C91.0331734,213.334173 89.3204139,237.465747 110.508737,249.350487 C113.934256,251.272366 117.959438,252.871941 122.687629,254 C129.736141,251.924929 136.956456,248.907487 144.211658,245.017309 C144.899527,244.648584 145.586737,244.270575 146.274605,243.886597 C161.144412,235.582996 176.10769,223.653823 190,208.689303 C180.748334,210.428145 171.030629,211.574773 160.976559,212.046953 C156.539314,212.255189 152.03756,212.33477 147.481831,212.275085" id="Fill-9" fill="#FF9143"></path>
            <path d="M216.966255,79.5471674 C216.787435,79.3242587 216.613913,79.1006905 216.43443,78.8777818 C215.67875,77.9393231 214.917108,77.0100972 214.152817,76.0868067 C213.473963,75.2670567 212.78981,74.4565396 212.104332,73.6486605 C208.198766,69.0467172 204.191869,64.6459192 200.104834,60.4515427 C194.10376,54.292536 187.256733,47.6143 180.981468,42.3799027 C157.634171,50.1645601 153.353653,38.7472554 153.353653,39.0893218 C153.353653,39.4313882 149.861202,50.1236671 137.097413,63.8193618 C136.615923,64.3364044 136.403682,64.4997854 135.893051,65.0260609 C126.434124,74.7819434 113.052506,85.65743 91,96.419699 L91,198.571835 L91,201.225636 L91,202.570342 C91.5695755,202.74181 92.1371641,202.914598 92.7127002,203.081449 C93.8240347,203.403282 94.9479529,203.713903 96.0771694,204.01793 C111.855735,208.265066 129.360909,210.742782 147.815155,210.981518 C152.802914,211.046148 157.723119,210.93997 162.565173,210.683427 C172.922175,210.134069 182.910277,208.871799 192.376489,206.978395 C192.808969,206.506197 193.239462,206.027405 193.669955,205.549273 C218.89089,165.604431 216.966255,141.120747 216.966255,141.120747 L216.966255,79.5471674 Z" id="Fill-11" fill="#FF9143"></path>
            <path d="M200.463613,58.371529 C205.365592,63.4462326 210.325669,68.9572032 214.965534,74.6153885 C215.493046,75.2584092 216.46857,76.2522894 216.99214,76.9032486 L216.99214,74.9933725 L215.959718,24.1240115 C202.202382,33.33138 191.506836,38.8888517 183.054831,41.995462 C188.862054,46.9696109 194.457344,52.6048504 200.027416,58.371529" id="Fill-13" fill="#FF9143"></path>
            <g id="Group-17" transform="translate(19.000000, 0.000000)" fill="#4A90E2">
                <path d="M230.670095,94.6766065 C246.820241,107.169124 256.316527,122.643156 256.100313,139.296985 C255.959246,150.149538 251.705495,160.392716 244.205895,169.553147 C240.698347,153.162742 234.312118,135.805128 225.190252,118.448173 C227.628594,110.348702 229.456527,102.389855 230.670095,94.6766065 Z M197.672381,176.948834 C209.665018,158.46754 218.601651,139.396017 224.413067,120.980744 C233.237639,138.226122 239.305479,155.429908 242.456406,171.601122 C228.438738,187.394036 204.600464,199.731404 175.561842,206.028499 C183.373898,197.240427 190.81549,187.515515 197.672381,176.948834 Z M143.095435,210.321853 C138.27544,210.578675 133.378979,210.684969 128.413963,210.620268 C110.046303,210.381272 92.6239214,207.900858 76.9187285,203.648438 C75.7948101,203.34408 74.6768245,203.033781 73.5700451,202.710938 C72.9978685,202.544564 72.432943,202.370929 71.8653808,202.199274 C64.8397377,200.075374 58.194447,197.589679 52.003338,194.784441 C43.2703938,190.826474 35.4418578,186.238006 28.7313074,181.139855 C29.5223349,170.841219 31.5302265,159.948393 34.7312514,148.761114 C39.7213169,158.016615 45.4872485,167.257592 52.003338,176.340779 L52.003338,173.24967 C45.7509244,164.341439 40.2288929,155.289283 35.4708621,146.235145 C39.3864485,133.227663 44.9058433,119.855744 52.003338,106.577575 L52.003338,103.103543 C44.4602311,116.758033 38.5512553,130.547205 34.3100292,143.986466 C26.9818181,129.664503 21.5566874,115.372249 18.1236278,101.675506 C30.4656353,88.8033671 49.4496374,78.3918354 72.4289879,71.9277069 C71.303092,73.3927157 70.1851064,74.87489 69.0822821,76.3808319 C70.423733,75.5582086 71.7276101,74.7355854 72.9939134,73.9136224 C73.6893585,73.0018706 74.3880995,72.0973812 75.092114,71.2014745 C76.1151763,70.9307879 77.1454897,70.6673636 78.1830542,70.412522 C79.3287257,69.6077245 80.4394603,68.8055678 81.5159169,68.0067121 C79.9094718,68.3612456 78.3155513,68.7303037 76.7420656,69.1211488 C87.8678682,55.2784991 99.9732266,43.4554357 112.366651,33.9946083 C113.07462,32.5850572 113.590107,31.4059199 113.951343,30.5020907 C100.039146,40.8277949 86.4380859,54.0868178 74.0795987,69.8011664 C50.4021664,76.050066 30.6581186,86.3539833 17.5237653,99.215559 C9.12107506,63.3746699 14.5356587,31.8990977 35.3831899,15.1495379 C57.9755961,-3.00231074 93.4927333,0.317891725 129.529971,20.2404269 C124.786443,22.9756822 120.0383,26.0648107 115.323116,29.4946083 C115.610523,29.9006382 116.008673,30.3865537 116.549868,30.8942562 C121.52675,27.3264745 126.53725,24.1462368 131.537204,21.3707086 C136.330171,24.1020026 141.128413,27.121809 145.902923,30.4255062 C151.34717,34.1920114 156.759776,38.324934 162.098553,42.8044674 C168.344375,48.0445643 174.486045,53.7606734 180.458962,59.9257262 C184.526162,64.1253301 188.514259,68.5309199 192.40216,73.1378741 C193.084421,73.9466329 193.764705,74.7580326 194.441033,75.578015 C195.201738,76.502971 195.959147,77.4325484 196.711941,78.3726893 C196.889923,78.5951805 197.06329,78.8196523 197.241271,79.0428037 C207.520015,91.9618178 216.218022,105.34496 223.252893,118.732064 C217.591773,137.538842 208.58131,157.110145 196.290719,176.050286 C189.405484,186.661202 181.918408,196.404599 174.054275,205.182108 C173.625143,205.660761 173.197329,206.139415 172.766878,206.612786 C163.345081,208.508253 153.403842,209.771897 143.095435,210.321853 Z M125.119993,244.722161 C117.854404,248.59496 110.623753,251.598922 103.565151,253.664723 C84.9041516,259.12467 67.4415591,258.03136 53.6967962,249.084177 C35.07403,236.962698 26.832182,212.743508 28.5757386,183.461818 C35.4016472,188.401518 43.2769857,192.84342 52.003338,196.675286 C58.2162003,199.403279 64.8588542,201.822293 71.8653808,203.888754 C73.1330024,204.261774 74.4124895,204.62489 75.7031828,204.975462 C76.809303,205.275858 77.925311,205.565691 79.0485701,205.848922 C94.2283889,209.674846 110.890725,211.898438 128.394847,212.12621 C132.957098,212.185629 137.465296,212.106404 141.908893,211.899098 C151.978015,211.429027 161.708972,210.287522 170.973882,208.556448 C157.061685,223.454115 142.076987,235.329996 127.185893,243.596501 C126.49704,243.978763 125.808846,244.355744 125.119993,244.722161 Z M16.4585148,103.475902 C20.1770035,117.445973 25.893496,131.982504 33.5328446,146.519696 C30.0918747,157.951915 27.8605178,169.107504 26.8638231,179.684089 C11.4374674,167.357284 2.41250221,152.237126 2.62344289,135.995929 C2.77571569,124.240867 7.75457496,113.199494 16.4585148,103.475902 Z M229.231084,91.1774868 C220.194254,84.7833407 209.389476,79.2415273 197.241271,74.8148107 L197.241271,76.1966329 C197.396839,76.3894146 197.554386,76.5802157 197.709955,76.7743178 C209.636013,81.284221 220.190298,86.9012984 228.932471,93.3614657 C227.869198,100.766395 226.221224,108.414283 223.992504,116.206096 C216.90292,103.056008 208.255011,89.9316681 198.101513,77.2556118 C197.972312,77.09386 197.840474,76.9360695 197.709955,76.7743178 C197.554386,76.715559 197.397499,76.6568002 197.241271,76.5987016 L197.241271,76.1966329 C196.715897,75.5476452 196.191182,74.8960167 195.661852,74.2542914 C191.005996,68.6075044 186.197208,63.2512104 181.278335,58.1860695 C175.688407,52.4310079 169.954775,47.0575484 164.127539,42.0940801 C158.823699,37.5762544 153.444712,33.3990977 148.030128,29.5698724 C143.239138,26.1823283 138.420462,23.0694322 133.603104,20.2450484 C160.079455,6.13369278 186.083168,3.55160651 205.0263,15.8830326 C225.66355,29.3163512 233.55405,57.6037632 229.231084,91.1774868 Z M231.001008,92.4582967 C236.030625,57.2597931 228.08739,27.4710607 206.58792,13.4765625 C186.750927,0.563490317 159.328638,3.67506602 131.582028,19.0777949 C94.1038021,-2.27277729 56.9307805,-6.14227553 33.443854,12.7278829 C11.6965289,30.1997139 6.40719136,63.3726893 15.8072355,100.955216 C5.88511317,111.31129 0.173235035,123.226783 0.00777843763,135.962258 C-0.215686847,153.200374 9.75257873,169.200594 26.6627703,182.044344 C24.2600241,213.035982 32.6073424,238.779599 52.135176,251.490647 C67.3908015,261.421545 87.1322126,261.87577 108.057528,254.552047 C114.342242,252.352223 120.732426,249.446633 127.141727,245.889415 C127.825307,245.509793 128.509546,245.121589 129.193784,244.727443 C142.538419,237.03202 155.914036,226.517496 168.51906,213.5932 C170.289644,211.778279 172.045725,209.919784 173.783349,208.011114 C203.411945,202.029599 227.992467,189.941131 242.958049,174.293464 C248.636309,206.551386 242.514414,234.412302 223.339907,249.817672 C202.817356,266.307108 171.627139,265.073834 139.071741,249.776078 C138.569439,250.31217 138.073728,250.846281 137.560878,251.385013 C171.404333,267.766835 203.972915,269.357945 225.279902,252.239327 C245.409575,236.066791 251.443138,206.443112 244.774116,172.320092 C253.546612,162.445313 258.561068,151.247469 258.715318,139.330656 C258.944057,121.736686 248.551932,105.433429 231.001008,92.4582967 Z" id="Fill-15"></path>
            </g>
            <path d="M177.876225,109.565887 L179.041664,106.970046 L171.979303,102.980848 L171.976647,102.986772 C167.202,100.083563 160.905309,100.256004 154.000332,104.207686 C139.088026,112.740264 127,135.632901 127,155.338655 C127,165.968836 130.521551,173.493091 136.103705,176.83596 L136.100385,176.842542 L136.692069,177.172946 C136.745195,177.200589 136.795664,177.232182 136.848125,177.259825 L145.358818,182 L146.994417,178.357661 C149.229005,177.869953 151.576485,176.955748 154.000332,175.568974 C168.911974,167.035737 181,144.144417 181,124.438005 C181,118.418997 179.867764,113.400414 177.876225,109.565887" id="Fill-18" fill="#5AB700"></path>
            <path d="M189,128.506908 C189,148.267387 176.91131,171.222939 161.999668,179.779873 C147.088026,188.336148 135,179.253851 135,159.493372 C135,139.732233 147.088026,116.777341 161.999668,108.220407 C176.91131,99.6634728 189,108.746429 189,128.506908" id="Fill-20" fill="#B4EE73"></path>
            <path d="M176.12331,119.071728 C174.244262,118.566146 171.734744,120.78808 170.546025,124.008702 L158.449327,156.76975 L151.583774,153.277952 C149.856976,152.400078 147.298009,154.24972 145.897832,157.38958 C144.497655,160.528784 144.765068,163.816379 146.491216,164.694253 L156.496106,169.781588 C157.323069,170.202469 158.339369,169.996296 159.328992,169.324595 C160.77081,168.626629 162.228244,166.876134 163.051303,164.645664 L177.377093,125.845868 C178.565813,122.625903 178.001708,119.57731 176.12331,119.071728" id="Fill-22" fill="#FFFFFF"></path>
            <path d="M247,242 L209.000533,243.537067 L209.000533,268.708418 C208.98481,269.285391 209.316952,269.839442 210.025129,270.247449 L224.163124,278.40759 C225.685606,279.285821 228.368949,279.174487 230.126618,278.160691 L245.547323,269.259849 C246.519511,268.699249 247.010191,267.974922 246.999709,267.290544 C246.999709,267.279192 246.999806,258.849011 247,242 Z" id="Fill-24" fill="#FFAC00"></path>
            <path d="M210.027027,245.221109 C208.504722,244.340285 208.697303,242.786198 210.454765,241.769408 L225.873668,232.842277 C227.631785,231.824829 230.314815,231.713166 231.837119,232.594648 L245.97346,240.778891 C247.49511,241.659715 247.302529,243.213145 245.545721,244.230592 L230.126164,253.157723 C228.368701,254.175171 225.685017,254.286834 224.163368,253.405352 L210.027027,245.221109 Z" id="Fill-26" fill="#FFED20"></path>
            <path d="M37.9997088,156.287774 C37.9997088,156.273366 38.000364,156.258958 37.9997088,156.243895 L38,131 L0,132.537058 L0,157.708259 L0.00262048885,157.708259 C-0.0157229331,158.285228 0.316424029,158.839276 1.02395602,159.247281 L15.1628036,167.407374 C16.6846525,168.285599 19.3686882,168.17492 21.1263811,167.160475 L36.5473029,158.259687 C37.5195043,157.69909 38.0101908,156.974767 37.9997088,156.291048 L37.9997088,156.287774 Z" id="Fill-28" fill="#9200FF"></path>
            <g id="Group-32" transform="translate(0.000000, 120.000000)">
                <mask id="mask-2" fill="white">
                    <use xlink:href="#path-1"></use>
                </mask>
                <g id="Clip-31"></g>
                <path d="M15.3018814,21.3834824 L1.03581356,13.3211294 C-0.499728814,12.4527765 -0.305389831,10.9224824 1.46811864,9.92018824 L17.0277966,1.12665882 C18.8013051,0.124364706 21.5094915,0.0143647059 23.0450339,0.882070588 L37.3111017,8.94442353 C38.8466441,9.81277647 38.6523051,11.3430706 36.8787966,12.3453647 L21.3191186,21.1395412 C19.5456102,22.1411882 16.8380847,22.2511882 15.3018814,21.3834824" id="Fill-30" fill="#9C73FF" mask="url(#mask-2)"></path>
            </g>
            <path d="M271.999811,68.2873843 C271.999156,68.2729763 272.000466,68.2585683 271.999811,68.2441603 L272,43 L234,44.5364188 L234,69.7078841 L234.003276,69.7078841 C233.984932,70.2848598 234.317075,70.8389136 235.024596,71.2475775 L249.162583,79.407101 C250.685065,80.2859902 253.368406,80.1746555 255.126074,79.1601999 L270.546771,70.2593183 C271.518958,69.6987153 272.010293,68.9743849 271.999156,68.2906589 L271.999811,68.2906589 L271.999811,68.2873843 Z" id="Fill-33" fill="#00B7DC"></path>
            <path d="M249.163536,54.4056153 L235.02654,46.2213126 C233.50489,45.3398251 233.697471,43.786384 235.454279,42.7689293 L250.873836,33.8423905 C252.631299,32.8249358 255.314983,32.713272 256.836632,33.5941027 L270.972973,41.7784054 C272.495278,42.6598929 272.302697,44.213334 270.545235,45.2307886 L255.126332,54.1579843 C253.368215,55.175439 250.685185,55.286446 249.163536,54.4056153" id="Fill-35" fill="#61E8FF"></path>
        </g>
    </g>
</svg>