<svg xmlns="http://www.w3.org/2000/svg" xmlns:xlink="http://www.w3.org/1999/xlink" width="427" height="292" viewBox="0 0 427 292">
    <defs>
        <linearGradient id="a" x1="50%" x2="50%" y1="0%" y2="100%">
            <stop offset="0%" stop-color="#FAD961"/>
            <stop offset="100%" stop-color="#F76B1C"/>
        </linearGradient>
        <linearGradient id="b" x1="0%" y1="100%" y2="0%">
            <stop offset="0%" stop-color="#FFBB19"/>
            <stop offset="100%" stop-color="#FFF" stop-opacity="0"/>
        </linearGradient>
        <filter id="c" width="381.8%" height="580%" x="-140.9%" y="-240%" filterUnits="objectBoundingBox">
            <feGaussianBlur in="SourceGraphic" stdDeviation="15"/>
        </filter>
        <path id="d" d="M0 .092h31.94v18.749H0z"/>
        <filter id="f" width="300.5%" height="441.6%" x="-100.3%" y="-170.8%" filterUnits="objectBoundingBox">
            <feGaussianBlur in="SourceGraphic" stdDeviation="15"/>
        </filter>
        <path id="g" d="M0 .13h44.878v26.342H0z"/>
        <path id="i" d="M0 0h19.493v22.123H0z"/>
        <linearGradient id="j" x1="100%" x2="0%" y1="72.464%" y2="72.464%">
            <stop offset="0%" stop-color="#FAD961"/>
            <stop offset="100%" stop-color="#F76B1C"/>
        </linearGradient>
        <linearGradient id="l" x1="100%" x2="0%" y1="0%" y2="50%">
            <stop offset="0%" stop-color="#FAD961"/>
            <stop offset="100%" stop-color="#F76B1C"/>
        </linearGradient>
        <linearGradient id="m" x1="8.789%" x2="81.569%" y1="-12.276%" y2="100%">
            <stop offset="0%" stop-color="#FAD961"/>
            <stop offset="100%" stop-color="#F76B1C"/>
        </linearGradient>
        <linearGradient id="n" x1="0%" y1="100%" y2="0%">
            <stop offset="0%" stop-color="#FFA019"/>
            <stop offset="100%" stop-color="#FFF" stop-opacity="0"/>
        </linearGradient>
        <filter id="o" width="381.8%" height="579.7%" x="-140.9%" y="-239.8%" filterUnits="objectBoundingBox">
            <feGaussianBlur in="SourceGraphic" stdDeviation="15"/>
        </filter>
        <path id="p" d="M0 .092h31.94v18.763H0z"/>
        <filter id="r" width="300.5%" height="441.4%" x="-100.3%" y="-170.7%" filterUnits="objectBoundingBox">
            <feGaussianBlur in="SourceGraphic" stdDeviation="15"/>
        </filter>
        <path id="s" d="M0 .13h44.878v26.362H0z"/>
        <filter id="u" width="131.4%" height="154.2%" x="-15.7%" y="-27.1%" filterUnits="objectBoundingBox">
            <feGaussianBlur in="SourceGraphic" stdDeviation="1"/>
        </filter>
        <path id="v" d="M0 .024h9.553v16.623H0z"/>
        <path id="x" d="M.02.052h9.553v22.162H.021z"/>
        <path id="z" d="M0 .052h9.552v22.162H0z"/>
        <path id="B" d="M0 .16h118.308v68.53H0z"/>
        <path id="D" d="M0 .017h118.309v68.531H0z"/>
        <path id="F" d="M.18.021h58.28V140.49H.18z"/>
    </defs>
    <g fill="none" fill-rule="evenodd">
        <path stroke="url(#a)" stroke-linecap="round" stroke-linejoin="round" stroke-width="4" d="M27.82 17.584l30.978 16.59a8 8 0 0 1 .207 13.99l-35.007 20.1a8 8 0 0 0-.095 13.821l41.842 24.789" opacity=".1" transform="matrix(-1 0 0 1 119 24)"/>
        <path stroke="url(#b)" stroke-linecap="round" stroke-linejoin="round" stroke-width="4" d="M28.52 65.629l27.29-15.713" transform="matrix(-1 0 0 1 119 24)"/>
        <path fill="#FF9143" d="M2.819 5.955l-2.733 8.32a1.715 1.715 0 0 0 .729 1.996l8.338 4.815a4.042 4.042 0 0 0 2.586.57l15.817-1.85a1.706 1.706 0 0 0 1.41-1.134l2.878-8.249a1.714 1.714 0 0 0-.756-2.047l-8.44-4.895a4.042 4.042 0 0 0-2.49-.52L4.244 4.792c-.66.077-1.216.53-1.424 1.164" filter="url(#c)" transform="matrix(-1 0 0 1 119 24.094)"/>
        <path fill="#B1BAC9" d="M87.156 32.698l2.878 8.248a1.706 1.706 0 0 0 1.41 1.134l15.818 1.851a4.042 4.042 0 0 0 2.585-.57l8.338-4.816c.458-.28.743-.75.803-1.26l.012-1.29c-.045.536-.335-.785-.815-.49l-8.338 4.814a4.042 4.042 0 0 1-2.585.571L91.444 39.04a1.706 1.706 0 0 1-1.41-1.134l-2.878-6.907c-.027-.077-.059.227-.096.91.022.406.054.669.096.79z"/>
        <g transform="matrix(-1 0 0 1 119 24.262)">
            <mask id="e" fill="#fff">
                <use xlink:href="#d"/>
            </mask>
            <path fill="#FFF" d="M2.819 3.112L.086 11.43a1.715 1.715 0 0 0 .729 1.996l8.338 4.815a4.042 4.042 0 0 0 2.586.571l15.817-1.851a1.706 1.706 0 0 0 1.41-1.134l2.878-8.248a1.714 1.714 0 0 0-.756-2.048L22.648.638a4.042 4.042 0 0 0-2.49-.52L4.244 1.948c-.66.076-1.216.53-1.424 1.164" mask="url(#e)"/>
        </g>
        <g>
            <path fill="#FF9143" d="M3.96 8.367L.12 20.057a2.41 2.41 0 0 0 1.025 2.805l11.715 6.765a5.68 5.68 0 0 0 3.634.802l22.223-2.601a2.396 2.396 0 0 0 1.982-1.593l4.044-11.59a2.409 2.409 0 0 0-1.062-2.877L31.822 4.891a5.68 5.68 0 0 0-3.498-.73L5.961 6.732a2.397 2.397 0 0 0-2 1.635" filter="url(#f)" transform="matrix(-1 0 0 1 71.846 118.853)"/>
            <path fill="#B1BAC9" d="M27.104 130.942l4.043 11.59a2.396 2.396 0 0 0 1.982 1.593l22.224 2.6a5.68 5.68 0 0 0 3.633-.801l11.716-6.765a2.404 2.404 0 0 0 1.127-1.771l.017-1.813c-.064.753-.47-1.103-1.144-.69l-11.716 6.766a5.68 5.68 0 0 1-3.633.802l-22.224-2.601a2.396 2.396 0 0 1-1.982-1.593l-4.043-9.704c-.038-.109-.083.318-.135 1.278.03.57.075.94.135 1.11z"/>
            <g transform="matrix(-1 0 0 1 71.846 119.09)">
                <mask id="h" fill="#fff">
                    <use xlink:href="#g"/>
                </mask>
                <path fill="#FFF" d="M3.96 4.372L.12 16.062a2.41 2.41 0 0 0 1.025 2.804l11.715 6.765a5.68 5.68 0 0 0 3.634.803l22.223-2.602A2.396 2.396 0 0 0 40.7 22.24l4.044-11.589a2.409 2.409 0 0 0-1.062-2.877L31.822.896a5.68 5.68 0 0 0-3.498-.73L5.961 2.737a2.397 2.397 0 0 0-2 1.635" mask="url(#h)"/>
            </g>
        </g>
        <g>
            <g transform="matrix(-1 0 0 1 59.235 111.717)">
                <mask id="k" fill="#fff">
                    <use xlink:href="#i"/>
                </mask>
                <path fill="url(#j)" d="M19.431 17.017a2.383 2.383 0 0 0-.06-.214l-.532-.93L9.747 0 .654 15.874l-.532.93a2.305 2.305 0 0 0-.122.725c0 2.537 4.364 4.594 9.747 4.594 5.382 0 9.746-2.057 9.746-4.594 0-.173-.022-.344-.062-.512" mask="url(#k)"/>
            </g>
            <path fill="url(#l)" d="M17.064 7.35c0 4.058-3.276 7.349-7.317 7.349-4.042 0-7.318-3.29-7.318-7.35C2.43 3.29 5.705 0 9.747 0c4.041 0 7.317 3.29 7.317 7.35" transform="matrix(-1 0 0 1 59.235 102.2)"/>
        </g>
        <g>
            <path stroke="url(#m)" stroke-linecap="round" stroke-linejoin="round" stroke-width="4" d="M27.82 43.5L58.81 60.11a8 8 0 0 1 .207 13.988l-35.03 20.129a8 8 0 0 0-.095 13.818l41.853 24.814" opacity=".1" transform="translate(312 114)"/>
            <path stroke="url(#n)" stroke-linecap="round" stroke-linejoin="round" stroke-width="4" d="M28.52 91.581l27.29-15.724" transform="translate(312 114)"/>
            <path fill="#FF9143" d="M2.819 5.96L.086 14.285a1.717 1.717 0 0 0 .729 1.998l8.338 4.819a4.04 4.04 0 0 0 2.586.571l15.817-1.853a1.706 1.706 0 0 0 1.41-1.134l2.878-8.255a1.716 1.716 0 0 0-.756-2.049l-8.44-4.898a4.04 4.04 0 0 0-2.49-.52L4.244 4.795c-.66.076-1.216.53-1.424 1.165" filter="url(#o)" transform="translate(312 139.997)"/>
            <path fill="#B1BAC9" d="M343.844 148.607l-2.878 8.255a1.706 1.706 0 0 1-1.41 1.134l-15.818 1.853a4.04 4.04 0 0 1-2.585-.571l-8.338-4.819a1.712 1.712 0 0 1-.803-1.261l-.012-1.29c.045.535.335-.787.815-.492l8.338 4.818a4.04 4.04 0 0 0 2.585.572l15.818-1.853a1.706 1.706 0 0 0 1.41-1.135l2.878-6.912c.027-.077.059.227.096.911-.022.406-.054.67-.096.79z"/>
            <g transform="translate(312 140.165)">
                <mask id="q" fill="#fff">
                    <use xlink:href="#p"/>
                </mask>
                <path fill="#FFF" d="M.086 11.44a1.717 1.717 0 0 0 .729 1.998l8.338 4.818a4.04 4.04 0 0 0 2.586.571l15.817-1.852a1.706 1.706 0 0 0 1.41-1.135l2.878-8.254a1.716 1.716 0 0 0-.756-2.05L22.648.638a4.04 4.04 0 0 0-2.49-.52L4.244 1.95c-.66.077-1.216.53-1.424 1.165L.086 11.44z" mask="url(#q)"/>
            </g>
            <g>
                <path fill="#F5A623" d="M3.96 8.374L.12 20.072a2.413 2.413 0 0 0 1.025 2.807l11.715 6.77a5.676 5.676 0 0 0 3.634.803l22.223-2.603a2.397 2.397 0 0 0 1.982-1.594l4.044-11.598a2.411 2.411 0 0 0-1.062-2.88L31.822 4.895a5.676 5.676 0 0 0-3.498-.73L5.961 6.737a2.398 2.398 0 0 0-2 1.637" filter="url(#r)" transform="translate(359.154 234.828)"/>
                <path fill="#B1BAC9" d="M403.896 246.926l-4.043 11.599a2.397 2.397 0 0 1-1.982 1.594l-22.224 2.603a5.676 5.676 0 0 1-3.633-.803l-11.716-6.77a2.406 2.406 0 0 1-1.127-1.772l-.017-1.814c.064.753.47-1.104 1.144-.69l11.716 6.77a5.676 5.676 0 0 0 3.633.803l22.224-2.603a2.397 2.397 0 0 0 1.982-1.594l4.043-9.712c.038-.109.083.318.135 1.28-.03.57-.075.94-.135 1.11z"/>
                <g transform="translate(359.154 235.065)">
                    <mask id="t" fill="#fff">
                        <use xlink:href="#s"/>
                    </mask>
                    <path fill="#FFF" d="M3.96 4.375L.12 16.073a2.413 2.413 0 0 0 1.025 2.808l11.715 6.77a5.676 5.676 0 0 0 3.634.803l22.223-2.604a2.397 2.397 0 0 0 1.982-1.594l4.044-11.598a2.411 2.411 0 0 0-1.062-2.88L31.822.898a5.676 5.676 0 0 0-3.498-.73L5.961 2.738a2.398 2.398 0 0 0-2 1.636" mask="url(#t)"/>
                </g>
            </g>
            <g>
                <path fill="#1D1D26" d="M318.036 133.067l9.552 5.54 9.545-5.54-9.553-5.539z"/>
                <path fill="#00FFFB" d="M.004 18.107l9.552 5.54 9.546-5.54-9.553-5.54z" filter="url(#u)" transform="translate(318.031 114)"/>
                <path fill="#454A75" d="M318.031 130.674l9.552 5.54 9.546-5.54-9.553-5.54z"/>
                <g transform="translate(318.031 133.043)">
                    <mask id="w" fill="#fff">
                        <use xlink:href="#v"/>
                    </mask>
                    <path fill="#3678FF" d="M9.552 5.565L0 .025l9.553 16.622z" mask="url(#w)"/>
                </g>
                <path fill="#4446FF" d="M337.129 133.068l-9.545 16.622v-11.083z"/>
                <g transform="translate(327.556 114.002)">
                    <mask id="y" fill="#fff">
                        <use xlink:href="#x"/>
                    </mask>
                    <path fill="#4446FF" d="M.027 22.214l9.546-5.54L.021.053z" mask="url(#y)"/>
                </g>
                <g transform="translate(318.031 114.002)">
                    <mask id="A" fill="#fff">
                        <use xlink:href="#z"/>
                    </mask>
                    <path fill="#3678FF" d="M0 16.674L9.545.052l.007 22.162z" mask="url(#A)"/>
                </g>
            </g>
        </g>
        <g>
            <path fill="#DA7127" d="M233.324 235.825c-37.47 1.76-54.207-13.705-49.407-31.829 5.17-14.14 2.704-24.552-7.398-31.234-15.153-10.024-28.773-15.02-63.577-20.637-34.804-5.617-19.235-25.562 2.607-33.662 21.842-8.1 81.835-20.092 130.397-1.388 48.562 18.703 62.68 36.326 59.652 62.502-3.028 26.176-34.805 54.488-72.274 56.248z" opacity=".91"/>
            <path fill="#FF9143" d="M233.136 234.327c-37.47 1.76-54.207-13.705-49.407-31.828 5.17-14.14 2.704-24.552-7.398-31.235-15.153-10.024-28.773-15.02-63.577-20.637-34.804-5.617-19.235-25.562 2.607-33.661 21.843-8.1 81.836-20.093 130.397-1.39 48.562 18.704 62.68 36.327 59.652 62.503-3.028 26.176-34.805 54.488-72.274 56.248z"/>
            <g>
                <g transform="translate(127.667 123.381)">
                    <mask id="C" fill="#fff">
                        <use xlink:href="#B"/>
                    </mask>
                    <path fill="#2B2F90" d="M118.308 21.728V17.71l-3.523.759L84.522.94c-1.995-1.156-5.511-1.01-7.814.324L6.863 41.722 0 43.202v3.911h.001c-.016.753.424 1.474 1.345 2.007l32.44 18.791c1.995 1.156 5.512 1.01 7.815-.325l74.8-43.328c1.246-.722 1.89-1.648 1.906-2.53h.001z" mask="url(#C)"/>
                </g>
                <g transform="translate(127.667 119.544)">
                    <mask id="E" fill="#fff">
                        <use xlink:href="#D"/>
                    </mask>
                    <path fill="#F5F5F5" d="M33.786 67.769L1.346 48.977c-1.995-1.155-1.743-3.193.56-4.526L76.709 1.12c2.303-1.334 5.82-1.48 7.814-.325l32.441 18.792c1.995 1.155 1.742 3.193-.561 4.527L41.6 67.444c-2.303 1.334-5.82 1.48-7.815.325" mask="url(#E)"/>
                </g>
                <path fill="#4A90E2" d="M171.642 183.405l-35.884-20.787L202 124.248l35.885 20.786z"/>
                <path fill="#39EAFD" d="M152.16 177.089c-1.753 1.015-4.406 1.126-5.924.246-1.519-.88-1.328-2.415.425-3.431 1.754-1.016 4.406-1.126 5.924-.246 1.519.88 1.328 2.416-.425 3.431"/>
                <path fill="#FFF" d="M151.778 176.868c-1.51.874-3.794.969-5.1.212-1.307-.757-1.144-2.08.366-2.955 1.51-.874 3.793-.969 5.1-.212 1.307.758 1.143 2.08-.366 2.955"/>
                <path fill="#2B2F90" d="M220.022 130.045l.034-.02c.096-.055.205-.097.318-.126.213-.005.418.034.568.121l7.476 4.33a.448.448 0 0 1 .173.167c.082-.165.028-.34-.173-.456l-7.476-4.33a1.106 1.106 0 0 0-.568-.121c-.113.029-.222.07-.318.126l-.034.02c-.267.154-.357.368-.26.543a.645.645 0 0 1 .26-.254"/>
                <path fill="#4A90E2" d="M219.934 130.465l7.476 4.33c.15.087.355.126.567.121.114-.029.223-.07.318-.126l.035-.02a.642.642 0 0 0 .26-.253.448.448 0 0 0-.172-.167l-7.476-4.33a1.11 1.11 0 0 0-.568-.121c-.113.029-.222.07-.318.126l-.034.02a.643.643 0 0 0-.26.254.448.448 0 0 0 .172.166"/>
                <path fill="#2B2F90" d="M225.98 130.936c.093-.054.199-.095.31-.124.207-.004.407.035.554.12.08.046.135.101.17.16.083-.162.03-.333-.17-.45a1.083 1.083 0 0 0-.554-.119c-.111.028-.217.07-.31.124-.264.153-.354.364-.256.536a.63.63 0 0 1 .256-.247"/>
                <path fill="#4A90E2" d="M225.893 131.343c.147.085.347.124.554.12.111-.029.217-.07.31-.124a.635.635 0 0 0 .256-.246.445.445 0 0 0-.17-.161 1.082 1.082 0 0 0-.554-.12c-.11.029-.216.07-.31.124a.637.637 0 0 0-.255.246c.034.06.09.115.17.161"/>
                <path fill="#2B2F90" d="M216.499 127.984c.207-.12.448-.205.698-.256.428-.032.852.036 1.154.211.196.114.313.257.357.412.074-.26-.042-.518-.357-.701-.302-.175-.726-.243-1.154-.211-.25.05-.491.136-.698.256-.422.244-.598.57-.515.857.057-.201.23-.403.515-.568"/>
                <path fill="#4A90E2" d="M216.342 128.964c.302.175.726.243 1.154.21.25-.05.49-.135.698-.255.284-.165.457-.367.514-.568-.044-.155-.161-.298-.357-.412-.302-.175-.726-.243-1.154-.21-.25.05-.491.135-.698.255-.284.165-.458.367-.515.569.044.154.161.297.358.41"/>
                <g transform="translate(157.5 29.363)">
                    <mask id="G" fill="#fff">
                        <use xlink:href="#F"/>
                    </mask>
                    <path fill="#4A90E2" d="M56.878 4.834L58.46.94 56.878.02.181 32.865V139.57l1.582.919.975-2.4 54.14-31.362z" mask="url(#G)"/>
                </g>
                <path fill="#F5F5F5" d="M215.96 137.009l-56.697 32.842V63.145l56.698-32.843z"/>
                <path fill="#4A90E2" d="M210.44 71.874l-45.655 26.445v-2.965l45.654-26.446zM210.44 78.091l-45.655 26.446v-2.966l45.654-26.446zM210.44 105.203l-22.828 13.223v-2.966l22.827-13.223zM210.44 111.348l-22.828 13.223v-2.966l22.827-13.222zM210.44 65.656l-45.655 26.446v-2.965l45.654-26.446zM210.44 59.44l-45.655 26.445V82.92l45.654-26.446z"/>
                <path stroke="#0D0735" d="M191.864 130.182s1.557-4.234 4.048-3.906c2.49.327-4.476 8.111-2.647 8.457 1.83.347 3.698-3.99 3.698-3.99s-1.168 3.125.428 1.953c1.595-1.173 1.868-3.813 1.868-3.813s-.817 3.425.506 2.085c1.323-1.339 1.596-2.538 3.931-2.901 2.335-.364 2.49-1.079 2.49-1.079"/>
                <path fill="#FAF564" d="M263.978 93.577c-.508-.882-1.31-1.442-2.073-1.536l-1.696.982a2.036 2.036 0 0 0-.087.255c.68.177 1.36.703 1.81 1.485.449.78.564 1.635.376 2.314.088.023.176.041.264.052l1.696-.982c.3-.711.218-1.687-.29-2.57"/>
                <path fill="#0D0735" d="M268.38 89.33l-1.052.609-1.318.763c.474.058.971.406 1.286.953.315.547.366 1.153.18 1.594l1.318-.763 1.052-.61c.185-.44.135-1.046-.18-1.593-.315-.548-.813-.895-1.286-.954"/>
                <path fill="#F5A623" d="M259.859 93.226l-1.696.982-37.104 21.493c.763.095 1.564.654 2.073 1.537.507.882.59 1.859.29 2.57l37.104-21.494 1.696-.982c.034-.082.062-.167.087-.255.187-.68.072-1.533-.378-2.315-.449-.78-1.13-1.307-1.809-1.484a2.012 2.012 0 0 0-.263-.052"/>
                <path fill="#FAF564" d="M221.059 115.701l-1.696.983-7.8 4.518c.763.095 1.564.654 2.072 1.537.508.882.59 1.859.29 2.569l7.8-4.519 1.696-.982c.3-.71.218-1.687-.29-2.57-.507-.882-1.31-1.441-2.072-1.536"/>
                <path fill="#F5A623" d="M265.725 89.828l-1.696.982-2.124 1.23c.763.095 1.565.655 2.073 1.537.508.883.59 1.859.29 2.57l2.124-1.23 1.696-.983c.3-.71.217-1.687-.29-2.57-.508-.882-1.31-1.441-2.073-1.536"/>
                <path fill="#0D0735" d="M211.562 121.202l-1.867 1.923-3.503 3.608-.047.048a.286.286 0 0 0-.013.304.284.284 0 0 0 .269.14l.065-.017 4.865-1.24 2.594-.66c.3-.71.218-1.687-.29-2.57-.508-.882-1.31-1.441-2.073-1.536"/>
                <g>
                    <path fill="#5AB700" d="M154.06 151.571l-.006.006.056.029a.108.108 0 0 0 .03.017l1.83 1.052.364.212c1.921 1.013 4.533.806 7.406-.858 5.902-3.415 10.685-11.698 10.685-18.488 0-3.375-1.18-5.75-3.095-6.865-.041-.029-.092-.051-.138-.08l-1.881-1.087c-1.939-1.156-4.641-1.006-7.634.727-5.901 3.42-10.685 11.698-10.685 18.494 0 3.358 1.169 5.72 3.067 6.841"/>
                    <path fill="#B4EE73" d="M155.562 136.548c-.031.062-.061.125-.093.187-1.507 2.994-2.412 6.23-2.412 9.183 0 6.795 4.784 9.531 10.685 6.113 5.901-3.418 10.686-11.697 10.686-18.492 0-6.794-4.785-9.53-10.686-6.112-1.997 1.157-3.866 2.87-5.465 4.895"/>
                    <path fill="#FFF" d="M163.059 145.166c-.314.181-.627.225-.867.088l-3.256-1.862c-.479-.274-.479-1.167 0-1.995.478-.828 1.254-1.278 1.732-1.003l2.39 1.366 4.427-7.658c.479-.828 1.254-1.278 1.732-1.004s.478 1.166 0 1.995l-5.292 9.158c-.24.414-.553.734-.866.915"/>
                </g>
            </g>
        </g>
    </g>
</svg>
