<svg xmlns="http://www.w3.org/2000/svg" xmlns:xlink="http://www.w3.org/1999/xlink" width="434" height="312" viewBox="0 0 434 312">
    <defs>
        <linearGradient id="a" x1="50%" x2="50%" y1="0%" y2="100%">
            <stop offset="0%" stop-color="#FAD961"/>
            <stop offset="100%" stop-color="#F76B1C"/>
        </linearGradient>
        <path id="b" d="M0 .008h40.819v22.576H0z"/>
        <path id="d" d="M40.819 11.304c0 6.234-9.138 11.288-20.41 11.288C9.138 22.592 0 17.538 0 11.304S9.138.016 20.41.016c11.271 0 20.409 5.054 20.409 11.288"/>
        <path id="e" d="M0 0h17.863v19.45H0z"/>
        <linearGradient id="f" x1="0%" y1="50%" y2="74.438%">
            <stop offset="0%" stop-color="#FAD961"/>
            <stop offset="100%" stop-color="#F76B1C"/>
        </linearGradient>
        <linearGradient id="h" x1="0%" y1="0%" y2="100%">
            <stop offset="0%" stop-color="#FAD961"/>
            <stop offset="100%" stop-color="#F76B1C"/>
        </linearGradient>
        <path id="i" d="M0 .008h40.819v22.576H0z"/>
        <path id="k" d="M40.819 11.304c0 6.234-9.138 11.288-20.41 11.288C9.138 22.592 0 17.538 0 11.304S9.138.016 20.41.016c11.271 0 20.409 5.054 20.409 11.288"/>
        <path id="l" d="M0 0h17.863v19.45H0z"/>
        <path id="n" d="M0 .008h40.819v22.576H0z"/>
        <path id="p" d="M40.819 11.304c0 6.234-9.138 11.288-20.41 11.288C9.138 22.592 0 17.538 0 11.304S9.138.016 20.41.016c11.271 0 20.409 5.054 20.409 11.288"/>
        <path id="q" d="M0 0h17.863v19.45H0z"/>
        <path id="s" d="M0 .008h40.819v22.576H0z"/>
        <path id="u" d="M40.819 11.304c0 6.234-9.138 11.288-20.41 11.288C9.138 22.592 0 17.538 0 11.304S9.138.016 20.41.016c11.271 0 20.409 5.054 20.409 11.288"/>
        <path id="v" d="M0 0h17.863v19.45H0z"/>
        <path id="x" d="M0 .008h40.819v22.576H0z"/>
        <path id="z" d="M40.819 11.304c0 6.234-9.138 11.288-20.41 11.288C9.138 22.592 0 17.538 0 11.304S9.138.016 20.41.016c11.271 0 20.409 5.054 20.409 11.288"/>
        <path id="A" d="M0 0h17.863v19.45H0z"/>
        <path id="C" d="M0 .008h40.819v22.576H0z"/>
        <path id="E" d="M40.819 11.304c0 6.234-9.138 11.288-20.41 11.288C9.138 22.592 0 17.538 0 11.304S9.138.016 20.41.016c11.271 0 20.409 5.054 20.409 11.288"/>
        <path id="F" d="M0 0h17.863v19.45H0z"/>
        <path id="H" d="M0 .008h40.819v22.576H0z"/>
        <path id="J" d="M40.819 11.304c0 6.234-9.138 11.288-20.41 11.288C9.138 22.592 0 17.538 0 11.304S9.138.016 20.41.016c11.271 0 20.409 5.054 20.409 11.288"/>
        <path id="K" d="M0 0h17.863v19.45H0z"/>
        <path id="M" d="M0 .008h40.819v22.576H0z"/>
        <path id="O" d="M40.819 11.304c0 6.234-9.138 11.288-20.41 11.288C9.138 22.592 0 17.538 0 11.304S9.138.016 20.41.016c11.271 0 20.409 5.054 20.409 11.288"/>
        <path id="P" d="M0 0h17.863v19.45H0z"/>
        <path id="R" d="M0 .19h125.172v72.538H.001z"/>
        <path id="T" d="M0 .148h125.175v72.539H0z"/>
        <path id="V" d="M.106.085h21.383v12.392H.106z"/>
        <path id="X" d="M.214.116h29.782v25.648H.214z"/>
        <filter id="Z" width="230.8%" height="323%" x="-65.4%" y="-111.5%" filterUnits="objectBoundingBox">
            <feGaussianBlur in="SourceGraphic" stdDeviation="15"/>
        </filter>
        <path id="aa" d="M0 .198h68.787v40.35H0z"/>
        <filter id="ac" width="117.4%" height="130.1%" x="-8.7%" y="-15%" filterUnits="objectBoundingBox">
            <feGaussianBlur in="SourceGraphic" stdDeviation="1"/>
        </filter>
        <path id="ad" d="M0 .044h17.232v29.943H0z"/>
        <path id="af" d="M.037.093h17.231v39.921H.038z"/>
        <path id="ah" d="M0 .093h17.23v39.921H0z"/>
    </defs>
    <g fill="none" fill-rule="evenodd">
        <path stroke="url(#a)" stroke-linecap="round" stroke-linejoin="round" stroke-width="4" d="M42.55 48.231l108.543 48.201L65.2 149.485 24 249.955l184.362-83.808-41.878 83.809L273.287 295l126.669-77.557L417 89.123l-122.568 38.584L309.569 27" opacity=".1"/>
        <path stroke="url(#a)" stroke-linecap="round" stroke-linejoin="round" stroke-width="4" d="M341 112l14-4M318 266l15-9M100 213l21-9"/>
        <g transform="translate(21 33.944)">
            <g transform="translate(0 1.52)">
                <mask id="c" fill="#fff">
                    <use xlink:href="#b"/>
                </mask>
                <path fill="#D3DAE7" d="M40.128 8.968c-1.94-5.117-9.89-8.96-19.719-8.96S2.885 3.851.946 8.968l-.538.295L0 11.296c0 6.234 9.138 11.288 20.41 11.288 11.271 0 20.409-5.054 20.409-11.288l-.382-2.014-.309-.314z" mask="url(#c)"/>
            </g>
            <use fill="#FFF" xlink:href="#d"/>
        </g>
        <g transform="translate(32.456 28.366)">
            <mask id="g" fill="#fff">
                <use xlink:href="#e"/>
            </mask>
            <path fill="url(#f)" d="M17.807 14.96a2.03 2.03 0 0 0-.056-.187l-.487-.817L8.932 0 .6 13.956l-.488.817A1.963 1.963 0 0 0 0 15.41C0 17.64 4 19.45 8.932 19.45c4.932 0 8.931-1.81 8.931-4.04 0-.152-.02-.303-.056-.45" mask="url(#g)"/>
        </g>
        <path fill="url(#h)" d="M15.637 6.461c0 3.569-3.002 6.462-6.705 6.462-3.704 0-6.706-2.893-6.706-6.462C2.226 2.893 5.228 0 8.932 0c3.703 0 6.705 2.893 6.705 6.461" transform="translate(32.456 20)"/>
        <g transform="translate(42 141.944)">
            <g transform="translate(0 1.52)">
                <mask id="j" fill="#fff">
                    <use xlink:href="#i"/>
                </mask>
                <path fill="#D3DAE7" d="M40.128 8.968c-1.94-5.117-9.89-8.96-19.719-8.96S2.885 3.851.946 8.968l-.538.295L0 11.296c0 6.234 9.138 11.288 20.41 11.288 11.271 0 20.409-5.054 20.409-11.288l-.382-2.014-.309-.314z" mask="url(#j)"/>
            </g>
            <use fill="#FFF" xlink:href="#k"/>
        </g>
        <g transform="translate(53.456 136.366)">
            <mask id="m" fill="#fff">
                <use xlink:href="#l"/>
            </mask>
            <path fill="url(#f)" d="M17.807 14.96a2.03 2.03 0 0 0-.056-.187l-.487-.817L8.932 0 .6 13.956l-.488.817A1.963 1.963 0 0 0 0 15.41C0 17.64 4 19.45 8.932 19.45c4.932 0 8.931-1.81 8.931-4.04 0-.152-.02-.303-.056-.45" mask="url(#m)"/>
        </g>
        <path fill="url(#h)" d="M15.637 6.461c0 3.569-3.002 6.462-6.705 6.462-3.704 0-6.706-2.893-6.706-6.462C2.226 2.893 5.228 0 8.932 0c3.703 0 6.705 2.893 6.705 6.461" transform="translate(53.456 128)"/>
        <g transform="translate(0 235.944)">
            <g transform="translate(0 1.52)">
                <mask id="o" fill="#fff">
                    <use xlink:href="#n"/>
                </mask>
                <path fill="#D3DAE7" d="M40.128 8.968c-1.94-5.117-9.89-8.96-19.719-8.96S2.885 3.851.946 8.968l-.538.295L0 11.296c0 6.234 9.138 11.288 20.41 11.288 11.271 0 20.409-5.054 20.409-11.288l-.382-2.014-.309-.314z" mask="url(#o)"/>
            </g>
            <use fill="#FFF" xlink:href="#p"/>
        </g>
        <g transform="translate(11.456 230.366)">
            <mask id="r" fill="#fff">
                <use xlink:href="#q"/>
            </mask>
            <path fill="url(#f)" d="M17.807 14.96a2.03 2.03 0 0 0-.056-.187l-.487-.817L8.932 0 .6 13.956l-.488.817A1.963 1.963 0 0 0 0 15.41C0 17.64 4 19.45 8.932 19.45c4.932 0 8.931-1.81 8.931-4.04 0-.152-.02-.303-.056-.45" mask="url(#r)"/>
        </g>
        <path fill="url(#h)" d="M15.637 6.461c0 3.569-3.002 6.462-6.705 6.462-3.704 0-6.706-2.893-6.706-6.462C2.226 2.893 5.228 0 8.932 0c3.703 0 6.705 2.893 6.705 6.461" transform="translate(11.456 222)"/>
        <g>
            <g transform="translate(141 233.944)">
                <g transform="translate(0 1.52)">
                    <mask id="t" fill="#fff">
                        <use xlink:href="#s"/>
                    </mask>
                    <path fill="#D3DAE7" d="M40.128 8.968c-1.94-5.117-9.89-8.96-19.719-8.96S2.885 3.851.946 8.968l-.538.295L0 11.296c0 6.234 9.138 11.288 20.41 11.288 11.271 0 20.409-5.054 20.409-11.288l-.382-2.014-.309-.314z" mask="url(#t)"/>
                </g>
                <use fill="#FFF" xlink:href="#u"/>
            </g>
            <g transform="translate(152.456 228.366)">
                <mask id="w" fill="#fff">
                    <use xlink:href="#v"/>
                </mask>
                <path fill="url(#f)" d="M17.807 14.96a2.03 2.03 0 0 0-.056-.187l-.487-.817L8.932 0 .6 13.956l-.488.817A1.963 1.963 0 0 0 0 15.41C0 17.64 4 19.45 8.932 19.45c4.932 0 8.931-1.81 8.931-4.04 0-.152-.02-.303-.056-.45" mask="url(#w)"/>
            </g>
            <path fill="url(#h)" d="M15.637 6.461c0 3.569-3.002 6.462-6.705 6.462-3.704 0-6.706-2.893-6.706-6.462C2.226 2.893 5.228 0 8.932 0c3.703 0 6.705 2.893 6.705 6.461" transform="translate(152.456 220)"/>
        </g>
        <g>
            <g transform="translate(252 285.944)">
                <g transform="translate(0 1.52)">
                    <mask id="y" fill="#fff">
                        <use xlink:href="#x"/>
                    </mask>
                    <path fill="#D3DAE7" d="M40.128 8.968c-1.94-5.117-9.89-8.96-19.719-8.96S2.885 3.851.946 8.968l-.538.295L0 11.296c0 6.234 9.138 11.288 20.41 11.288 11.271 0 20.409-5.054 20.409-11.288l-.382-2.014-.309-.314z" mask="url(#y)"/>
                </g>
                <use fill="#FFF" xlink:href="#z"/>
            </g>
            <g transform="translate(263.456 280.366)">
                <mask id="B" fill="#fff">
                    <use xlink:href="#A"/>
                </mask>
                <path fill="url(#f)" d="M17.807 14.96a2.03 2.03 0 0 0-.056-.187l-.487-.817L8.932 0 .6 13.956l-.488.817A1.963 1.963 0 0 0 0 15.41C0 17.64 4 19.45 8.932 19.45c4.932 0 8.931-1.81 8.931-4.04 0-.152-.02-.303-.056-.45" mask="url(#B)"/>
            </g>
            <path fill="url(#h)" d="M15.637 6.461c0 3.569-3.002 6.462-6.705 6.462-3.704 0-6.706-2.893-6.706-6.462C2.226 2.893 5.228 0 8.932 0c3.703 0 6.705 2.893 6.705 6.461" transform="translate(263.456 272)"/>
        </g>
        <g>
            <g transform="translate(379 204.944)">
                <g transform="translate(0 1.52)">
                    <mask id="D" fill="#fff">
                        <use xlink:href="#C"/>
                    </mask>
                    <path fill="#D3DAE7" d="M40.128 8.968c-1.94-5.117-9.89-8.96-19.719-8.96S2.885 3.851.946 8.968l-.538.295L0 11.296c0 6.234 9.138 11.288 20.41 11.288 11.271 0 20.409-5.054 20.409-11.288l-.382-2.014-.309-.314z" mask="url(#D)"/>
                </g>
                <use fill="#FFF" xlink:href="#E"/>
            </g>
            <g transform="translate(390.456 199.366)">
                <mask id="G" fill="#fff">
                    <use xlink:href="#F"/>
                </mask>
                <path fill="url(#f)" d="M17.807 14.96a2.03 2.03 0 0 0-.056-.187l-.487-.817L8.932 0 .6 13.956l-.488.817A1.963 1.963 0 0 0 0 15.41C0 17.64 4 19.45 8.932 19.45c4.932 0 8.931-1.81 8.931-4.04 0-.152-.02-.303-.056-.45" mask="url(#G)"/>
            </g>
            <path fill="url(#h)" d="M15.637 6.461c0 3.569-3.002 6.462-6.705 6.462-3.704 0-6.706-2.893-6.706-6.462C2.226 2.893 5.228 0 8.932 0c3.703 0 6.705 2.893 6.705 6.461" transform="translate(390.456 191)"/>
        </g>
        <g>
            <g transform="translate(393 78.944)">
                <g transform="translate(0 1.52)">
                    <mask id="I" fill="#fff">
                        <use xlink:href="#H"/>
                    </mask>
                    <path fill="#D3DAE7" d="M40.128 8.968c-1.94-5.117-9.89-8.96-19.719-8.96S2.885 3.851.946 8.968l-.538.295L0 11.296c0 6.234 9.138 11.288 20.41 11.288 11.271 0 20.409-5.054 20.409-11.288l-.382-2.014-.309-.314z" mask="url(#I)"/>
                </g>
                <use fill="#FFF" xlink:href="#J"/>
            </g>
            <g transform="translate(404.456 73.366)">
                <mask id="L" fill="#fff">
                    <use xlink:href="#K"/>
                </mask>
                <path fill="url(#f)" d="M17.807 14.96a2.03 2.03 0 0 0-.056-.187l-.487-.817L8.932 0 .6 13.956l-.488.817A1.963 1.963 0 0 0 0 15.41C0 17.64 4 19.45 8.932 19.45c4.932 0 8.931-1.81 8.931-4.04 0-.152-.02-.303-.056-.45" mask="url(#L)"/>
            </g>
            <path fill="url(#h)" d="M15.637 6.461c0 3.569-3.002 6.462-6.705 6.462-3.704 0-6.706-2.893-6.706-6.462C2.226 2.893 5.228 0 8.932 0c3.703 0 6.705 2.893 6.705 6.461" transform="translate(404.456 65)"/>
        </g>
        <g>
            <g transform="translate(293 13.944)">
                <g transform="translate(0 1.52)">
                    <mask id="N" fill="#fff">
                        <use xlink:href="#M"/>
                    </mask>
                    <path fill="#D3DAE7" d="M40.128 8.968c-1.94-5.117-9.89-8.96-19.719-8.96S2.885 3.851.946 8.968l-.538.295L0 11.296c0 6.234 9.138 11.288 20.41 11.288 11.271 0 20.409-5.054 20.409-11.288l-.382-2.014-.309-.314z" mask="url(#N)"/>
                </g>
                <use fill="#FFF" xlink:href="#O"/>
            </g>
            <g transform="translate(304.456 8.366)">
                <mask id="Q" fill="#fff">
                    <use xlink:href="#P"/>
                </mask>
                <path fill="url(#f)" d="M17.807 14.96a2.03 2.03 0 0 0-.056-.187l-.487-.817L8.932 0 .6 13.956l-.488.817A1.963 1.963 0 0 0 0 15.41C0 17.64 4 19.45 8.932 19.45c4.932 0 8.931-1.81 8.931-4.04 0-.152-.02-.303-.056-.45" mask="url(#Q)"/>
            </g>
            <path fill="url(#h)" d="M15.637 6.461c0 3.569-3.002 6.462-6.705 6.462-3.704 0-6.706-2.893-6.706-6.462C2.226 2.893 5.228 0 8.932 0c3.703 0 6.705 2.893 6.705 6.461" transform="translate(304.456)"/>
        </g>
        <g>
            <path fill="#CC6014" d="M235.036 198.663c-40.284 1.893-58.278-14.74-53.118-34.234 5.558-15.209 2.907-26.407-7.954-33.595-16.291-10.781-30.934-16.154-68.352-22.196-37.418-6.041-20.68-27.493 2.803-36.205s87.982-21.61 140.192-1.494c52.209 20.117 67.388 39.071 64.132 67.226-3.255 28.154-37.419 58.605-77.703 60.498z"/>
            <path fill="#FF9143" d="M234.834 197.052c-40.284 1.893-58.278-14.74-53.118-34.234 5.559-15.209 2.907-26.407-7.954-33.595-16.291-10.781-30.934-16.154-68.352-22.196-37.418-6.041-20.68-27.493 2.803-36.205s87.982-21.61 140.192-1.494c52.21 20.117 67.388 39.071 64.132 67.226-3.255 28.154-37.419 58.605-77.703 60.498z"/>
            <g transform="translate(140.91 52.614)">
                <mask id="S" fill="#fff">
                    <use xlink:href="#R"/>
                </mask>
                <path fill="#1E4751" d="M125.172 41.51v-3.654l-5.79-.473L56.081.7c-1.308-.757-3.612-.661-5.12.213L4.272 27.97l-4.272-.35v3.767h.003c-.006.489.28.956.878 1.303l68.211 39.528c1.308.758 3.612.662 5.12-.213l49.713-28.808c.766-.444 1.184-1.007 1.24-1.552h.006v-.134z" mask="url(#S)"/>
            </g>
            <g transform="translate(140.91 48.919)">
                <mask id="U" fill="#fff">
                    <use xlink:href="#T"/>
                </mask>
                <path fill="#286373" d="M69.094 72.176L.882 32.647c-1.307-.757-1.142-2.093.367-2.967L50.961.872c1.51-.875 3.813-.97 5.12-.213l68.212 39.529c1.307.757 1.142 2.092-.368 2.967L74.214 71.963c-1.51.874-3.814.97-5.12.213" mask="url(#U)"/>
            </g>
            <path fill="#1E4751" d="M185.447 99.942L156.036 82.9c-1.744-1.01-1.523-2.792.49-3.958l20.2-11.706c1.258-.73 3.179-.809 4.268-.178l29.411 17.044c1.744 1.01 1.523 2.792-.49 3.958l-20.2 11.706c-1.258.729-3.178.809-4.268.177M219.061 107.637l-13.94-8.078c-1.743-1.01-1.523-2.792.49-3.958l10.032-5.813c1.258-.73 3.179-.81 4.268-.178l13.94 8.078c1.744 1.01 1.523 2.791-.49 3.958l-10.031 5.813c-1.258.73-3.18.81-4.269.178M207.045 106.285l-9.365-5.427c-.346-.2-.303-.554.097-.785l.323-.187c.4-.232 1.01-.257 1.355-.057l9.365 5.427c.346.2.302.554-.097.786l-.323.187c-.4.231-1.01.257-1.355.056M195.134 103.872c-.624.362-1.568.401-2.108.088-.54-.313-.473-.86.15-1.222.625-.361 1.569-.4 2.11-.087.54.313.472.86-.152 1.221M198.489 105.816c-.625.362-1.568.401-2.109.088-.54-.313-.472-.86.152-1.222.624-.361 1.567-.4 2.108-.087.54.313.473.86-.151 1.221"/>
            <path fill="#FB4329" d="M199.15 62.718l-9.923-5.752 11.46-6.64 9.923 5.75z"/>
            <path fill="#FB4329" d="M199.15 70.845v-8.127l11.46-6.641v8.127z"/>
            <path fill="#FF7362" d="M189.227 56.966v8.128l9.924 5.75v-8.126z"/>
            <path fill="#FF7362" d="M189.227 48.84v8.126l9.924 5.752V54.59z" opacity=".6"/>
            <path fill="#FF7362" d="M199.15 54.59l-9.923-5.75 11.46-6.642 9.923 5.752z" opacity=".6"/>
            <path fill="#FB4329" d="M199.15 62.718V54.59l11.46-6.641v8.127z" opacity=".6"/>
            <path fill="#FAA800" d="M212.243 62.718l-9.924-5.752 11.46-6.64 9.924 5.75z"/>
            <path fill="#FAA800" d="M212.243 62.718v15.714l11.46-6.64V56.076zM202.32 56.966v15.715l9.923 5.751V62.718z"/>
            <path fill="#FAA800" d="M202.32 41.252v15.715l9.923 5.75V47.004z" opacity=".6"/>
            <path fill="#FAA800" d="M212.243 47.003l-9.924-5.75 11.46-6.642 9.924 5.751zM212.243 47.003v15.715l11.46-6.641V40.362z" opacity=".6"/>
            <path fill="#75D800" d="M225.336 52.803l-9.924-5.751 11.46-6.641 9.923 5.75z"/>
            <path fill="#B4EE73" d="M225.336 52.803v33.216l11.46-6.64V46.161zM215.412 47.052v33.216l9.924 5.751V52.803z"/>
            <path fill="#B4EE73" d="M225.336 19.586v33.217l11.46-6.641V12.946z" opacity=".6"/>
            <g opacity=".6" transform="translate(215.306 7.11)">
                <mask id="W" fill="#fff">
                    <use xlink:href="#V"/>
                </mask>
                <path fill="#B4EE73" d="M10.03 12.477L.106 6.726 11.566.085l9.923 5.75z" mask="url(#W)"/>
            </g>
            <path fill="#B4EE73" d="M215.412 13.835v33.217l9.924 5.75V19.587z" opacity=".6"/>
            <path fill="#FD0000" d="M238.429 77.04l-9.925-5.75 11.46-6.641 9.924 5.751z"/>
            <path fill="#FB4329" d="M238.429 77.04v16.566l11.46-6.64V70.4z"/>
            <path fill="#FF7362" d="M228.504 71.29v16.565l9.925 5.751V77.041z"/>
            <path fill="#FB4329" d="M238.429 60.475v16.566l11.46-6.641V53.834z" opacity=".6"/>
            <path fill="#FF7362" d="M238.429 60.475l-9.925-5.75 11.46-6.642 9.924 5.751z" opacity=".6"/>
            <path fill="#FF7362" d="M228.504 54.724V71.29l9.925 5.75V60.476z" opacity=".6"/>
            <g>
                <path fill="#520D9C" d="M224.894 146.196c-3.4-.035-7.347-.556-7.347-.556s.802 6.637-2.304 13.877c-3.106 7.24-4.108 8.296-2.304 9.704 1.309 1.022 3.726 2.334 6.084 2.227 1.16-2.505 3.275-7.527 4.535-13.288.93-4.252 1.247-8.674 1.336-11.964"/>
                <path fill="#FF4F98" d="M229.27 145.64c-.785.448-2.497.575-4.376.556-.089 3.29-.406 7.712-1.336 11.964-1.26 5.761-3.374 10.783-4.535 13.288.89-.04 1.772-.281 2.582-.82 2.955-1.96 6.562-5.228 6.963-7.541.4-2.313 1.402-11.313.701-17.447"/>
                <path fill="#0D0735" d="M239.175 141.517l.003-.002v-8.39l-6.18 3.916-3.93-2.278c-1.502-.87-3.793-.965-5.093-.212l-14.576 8.447 14.329 8.303 14.575-8.446c.612-.355.895-.837.872-1.338"/>
                <g transform="translate(209.185 125.537)">
                    <mask id="Y" fill="#fff">
                        <use xlink:href="#X"/>
                    </mask>
                    <path fill="#FF4F98" d="M28.753 5.977l-8.87-5.14C18.382-.034 16.09-.13 14.79.624L.214 9.07v8.39l14.329 8.303v-8.39l14.576-8.446c1.3-.753 1.135-2.081-.366-2.951" mask="url(#Y)"/>
                </g>
                <path fill="#F8E71C" d="M233.793 129.96l-4.375-.473-.53-.307c-.845-.49-2.134-.543-2.865-.12l-.087.051-3.114-.336v2.547c-.01.34.226.695.698.968l4.208 2.439c.844.489 2.133.543 2.864.119l2.709-1.57c.335-.194.495-.457.49-.732l.002-2.586z"/>
                <path fill="#F5F5F5" d="M233.3 130.691l-2.708 1.57c-.73.423-2.02.37-2.864-.12l-4.208-2.438c-.844-.49-.937-1.236-.206-1.66l2.709-1.57c.73-.423 2.02-.37 2.865.12l4.207 2.438c.844.49.937 1.236.206 1.66"/>
                <path fill="#F5A623" d="M187.507 154.657l6.672-4.665c-6.28-8.179-14.665-12.133-20.142-8.959-6.374 3.694-6.395 15.634-.047 26.67 6.348 11.035 16.66 16.988 23.034 13.294 5.427-3.145 6.245-12.27 2.45-21.723l-7.492 3.163-4.475-7.78z"/>
                <path fill="#520D9C" d="M194.179 149.992l-6.672 4.665 4.475 7.78 7.492-3.164a39.268 39.268 0 0 0-2.403-4.946 39.253 39.253 0 0 0-2.892-4.335"/>
                <path fill="#FF4F98" d="M191.991 157.245c1.236 2.149 1.232 4.473-.009 5.193-1.24.719-3.248-.44-4.484-2.589-1.236-2.148-1.232-4.473.009-5.192 1.24-.72 3.249.44 4.484 2.588"/>
                <path fill="#F8E71C" d="M190.703 157.814c.696 1.21.693 2.519-.005 2.924-.7.405-1.83-.248-2.526-1.457-.696-1.21-.694-2.52.005-2.925.699-.405 1.83.248 2.526 1.458"/>
                <path fill="#F5A623" d="M219.368 141.558c-1.884-3.277-4.947-5.044-6.84-3.947a2.309 2.309 0 0 0-.343.244c-1.1.763-4.718 3.105-8.768 3.961-4.866 1.028-9.58 1.067-14.65-.938 4.046 4.524 8.657 11.272 8.657 11.272l5.071 11.311 1.178 6.016.763-2.962s1.081-5.933 4.974-9.532c3.893-3.599 9.944-7.506 9.944-7.506 1.893-1.096 1.9-4.642.014-7.919"/>
                <path fill="#F5F5F5" d="M197.024 180.997c-6.373 3.693-16.686-2.259-23.034-13.294-6.348-11.036-6.327-22.976.047-26.67 5.477-3.174 13.862.78 20.142 8.959a39.264 39.264 0 0 1 5.295 9.281c3.795 9.454 2.977 18.58-2.45 21.724m4.968-22.787a44.524 44.524 0 0 0-5.612-9.758c-7.112-9.379-16.68-13.938-22.915-10.325-7.203 4.174-7.226 17.666-.053 30.137 7.173 12.47 18.826 19.196 26.028 15.022 6.234-3.612 7.086-14.206 2.552-25.076"/>
            </g>
            <g>
                <path fill="#FF9143" d="M6.07 12.817L.185 30.722a3.69 3.69 0 0 0 1.57 4.296l17.957 10.363a8.71 8.71 0 0 0 5.57 1.229l34.063-3.985a3.673 3.673 0 0 0 3.038-2.44l6.198-17.752a3.688 3.688 0 0 0-1.629-4.407L48.776 7.492a8.71 8.71 0 0 0-5.361-1.118L9.137 10.312a3.674 3.674 0 0 0-3.067 2.505" filter="url(#Z)" transform="translate(244.21 150.582)"/>
                <path fill="#B1BAC9" d="M312.79 169.1l-6.198 17.752a3.673 3.673 0 0 1-3.038 2.44l-34.064 3.985a8.71 8.71 0 0 1-5.57-1.23l-17.956-10.361a3.682 3.682 0 0 1-1.728-2.713l-.027-2.776c.098 1.153.723-1.69 1.755-1.056l17.957 10.362a8.71 8.71 0 0 0 5.569 1.229l34.064-3.985a3.673 3.673 0 0 0 3.038-2.44l6.198-14.864c.057-.166.126.487.206 1.959-.047.872-.116 1.438-.206 1.698z"/>
                <g transform="translate(244.21 150.945)">
                    <mask id="ab" fill="#fff">
                        <use xlink:href="#aa"/>
                    </mask>
                    <path fill="#FFF" d="M6.07 6.697L.185 24.602a3.69 3.69 0 0 0 1.57 4.297L19.712 39.26a8.71 8.71 0 0 0 5.57 1.229l34.063-3.985a3.673 3.673 0 0 0 3.038-2.44l6.198-17.752a3.688 3.688 0 0 0-1.629-4.407L48.776 1.372A8.71 8.71 0 0 0 43.415.254L9.137 4.192A3.674 3.674 0 0 0 6.07 6.697" mask="url(#ab)"/>
                </g>
                <g>
                    <path fill="#1D1D26" d="M261.446 144.376l17.23 9.98 17.219-9.979-17.232-9.978z"/>
                    <path fill="#00FFFB" d="M.008 32.616l17.23 9.98 17.219-9.98-17.232-9.978z" filter="url(#ac)" transform="translate(261.438 110.031)"/>
                    <path fill="#454A75" d="M261.438 140.065l17.23 9.98 17.22-9.979-17.233-9.978z"/>
                    <g transform="translate(261.438 144.332)">
                        <mask id="ae" fill="#fff">
                            <use xlink:href="#ad"/>
                        </mask>
                        <path fill="#3678FF" d="M17.23 10.023L0 .044l17.232 29.943z" mask="url(#ae)"/>
                    </g>
                    <path fill="#4446FF" d="M295.887 144.377L278.67 174.32l-.002-19.963z"/>
                    <g transform="translate(278.619 110.034)">
                        <mask id="ag" fill="#fff">
                            <use xlink:href="#af"/>
                        </mask>
                        <path fill="#4446FF" d="M.05 40.014l17.218-9.978L.038.093z" mask="url(#ag)"/>
                    </g>
                    <g transform="translate(261.438 110.034)">
                        <mask id="ai" fill="#fff">
                            <use xlink:href="#ah"/>
                        </mask>
                        <path fill="#3678FF" d="M0 30.035L17.218.093l.012 39.921z" mask="url(#ai)"/>
                    </g>
                </g>
            </g>
        </g>
    </g>
</svg>
