<?xml version="1.0" encoding="UTF-8"?>
<svg width="24px" height="24px" viewBox="0 0 24 24" version="1.1" xmlns="http://www.w3.org/2000/svg" xmlns:xlink="http://www.w3.org/1999/xlink">
    <!-- Generator: Sketch 49.3 (51167) - http://www.bohemiancoding.com/sketch -->
    <title>ic_add_white</title>
    <desc>Created with Sketch.</desc>
    <defs></defs>
    <g id="Symbols" stroke="none" stroke-width="1" fill="none" fill-rule="evenodd">
        <g id="Icon/add_white">
            <g id="ic_add_white">
                <polygon points="0 0 24 0 24 24 0 24"></polygon>
                <path d="M18,13 L13,13 L13,18 C13,18.5522847 12.5522847,19 12,19 L12,19 C11.4477153,19 11,18.5522847 11,18 L11,13 L6,13 C5.44771525,13 5,12.5522847 5,12 L5,12 C5,11.4477153 5.44771525,11 6,11 L11,11 L11,6 C11,5.44771525 11.4477153,5 12,5 L12,5 C12.5522847,5 13,5.44771525 13,6 L13,11 L18,11 C18.5522847,11 19,11.4477153 19,12 L19,12 C19,12.5522847 18.5522847,13 18,13 Z" fill="#FFFFFF" fill-rule="nonzero"></path>
            </g>
        </g>
    </g>
</svg>