<?xml version="1.0" encoding="UTF-8" standalone="no"?>
<svg
   xmlns:dc="http://purl.org/dc/elements/1.1/"
   xmlns:cc="http://creativecommons.org/ns#"
   xmlns:rdf="http://www.w3.org/1999/02/22-rdf-syntax-ns#"
   xmlns:svg="http://www.w3.org/2000/svg"
   xmlns="http://www.w3.org/2000/svg"
   xmlns:sodipodi="http://sodipodi.sourceforge.net/DTD/sodipodi-0.dtd"
   xmlns:inkscape="http://www.inkscape.org/namespaces/inkscape"
   width="24px"
   height="24px"
   viewBox="0 0 24 24"
   version="1.1"
   id="svg15"
   sodipodi:docname="ic_add_circle_outline.svg"
   inkscape:version="0.92.2 5c3e80d, 2017-08-06">
  <metadata
     id="metadata19">
    <rdf:RDF>
      <cc:Work
         rdf:about="">
        <dc:format>image/svg+xml</dc:format>
        <dc:type
           rdf:resource="http://purl.org/dc/dcmitype/StillImage" />
      </cc:Work>
    </rdf:RDF>
  </metadata>
  <sodipodi:namedview
     pagecolor="#ffffff"
     bordercolor="#666666"
     borderopacity="1"
     objecttolerance="10"
     gridtolerance="10"
     guidetolerance="10"
     inkscape:pageopacity="0"
     inkscape:pageshadow="2"
     inkscape:window-width="1149"
     inkscape:window-height="688"
     id="namedview17"
     showgrid="false"
     inkscape:zoom="13.906433"
     inkscape:cx="11.314928"
     inkscape:cy="12.595715"
     inkscape:window-x="0"
     inkscape:window-y="0"
     inkscape:window-maximized="0"
     inkscape:current-layer="Icon/ic_add_circle_outline" />
  <!-- Generator: Sketch 49.3 (51167) - http://www.bohemiancoding.com/sketch -->
  <title
     id="title2">ic_add_circle_outline</title>
  <desc
     id="desc4">Created with Sketch.</desc>
  <defs
     id="defs6" />
  <g
     id="Symbols"
     stroke="none"
     stroke-width="1"
     fill="none"
     fill-rule="evenodd">
    <g
       id="Icon/ic_add_circle_outline">
      <polygon
         id="polygon8"
         points="24,24 0,24 0,0 24,0 " />
      <path
         style="fill:#78819a;fill-rule:nonzero"
         inkscape:connector-curvature="0"
         id="path10"
         d="m 12,7 v 0 c -0.552285,0 -1,0.4477152 -1,1 v 3 H 8 c -0.5522848,0 -1,0.447715 -1,1 v 0 c 0,0.552285 0.4477152,1 1,1 h 3 v 3 c 0,0.552285 0.447715,1 1,1 v 0 c 0.552285,0 1,-0.447715 1,-1 v -3 h 3 c 0.552285,0 1,-0.447715 1,-1 v 0 c 0,-0.552285 -0.447715,-1 -1,-1 H 13 V 8 C 13,7.4477152 12.552285,7 12,7 Z M 12,2 C 6.48,2 2,6.48 2,12 2,17.52 6.48,22 12,22 17.52,22 22,17.52 22,12 22,6.48 17.52,2 12,2 Z m 0,18 C 7.59,20 4,16.41 4,12 4,7.59 7.59,4 12,4 c 4.41,0 8,3.59 8,8 0,4.41 -3.59,8 -8,8 z" />
    </g>
  </g>
</svg>
