<?xml version="1.0" encoding="UTF-8"?>
<svg width="24px" height="24px" viewBox="0 0 24 24" version="1.1" xmlns="http://www.w3.org/2000/svg" xmlns:xlink="http://www.w3.org/1999/xlink">
    <!-- Generator: Sketch 49.3 (51167) - http://www.bohemiancoding.com/sketch -->
    <title>ic_browse</title>
    <desc>Created with Sketch.</desc>
    <defs></defs>
    <g id="Symbols" stroke="none" stroke-width="1" fill="none" fill-rule="evenodd">
        <g id="Icon/browse">
            <g id="ic_browse">
                <polygon points="0 0 24 0 24 24 0 24"></polygon>
                <path d="M17,13 L17,20 L5,20 L5,6 L8.02,6 C8.07,5.29 8.24,4.62 8.5,4 L5,4 C3.9,4 3,4.9 3,6 L3,20 C3,21.1 3.9,22 5,22 L17,22 C18.1,22 19,21.1 19,20 L19,15 L17,13 Z M18.3,8.89 C18.74,8.19 19,7.38 19,6.5 C19,4.01 16.99,2 14.5,2 C12.01,2 10,4.01 10,6.5 C10,8.99 12.01,11 14.49,11 C15.37,11 16.19,10.74 16.88,10.3 L19.2928932,12.7128932 C19.6834175,13.1034175 20.3165825,13.1034175 20.7071068,12.7128932 L20.7117573,12.7082427 C21.1022816,12.3177184 21.1022816,11.6845534 20.7117573,11.2940291 C20.711379,11.2936508 20.7110003,11.2932728 20.7106214,11.292895 L18.3,8.89 Z M14.5,9 C13.12,9 12,7.88 12,6.5 C12,5.12 13.12,4 14.5,4 C15.88,4 17,5.12 17,6.5 C17,7.88 15.88,9 14.5,9 Z" fill="#FFFFFF" fill-rule="nonzero"></path>
            </g>
        </g>
    </g>
</svg>