<?xml version="1.0" encoding="UTF-8"?>
<svg width="24px" height="24px" viewBox="0 0 24 24" version="1.1" xmlns="http://www.w3.org/2000/svg" xmlns:xlink="http://www.w3.org/1999/xlink">
    <!-- Generator: Sketch 49.3 (51167) - http://www.bohemiancoding.com/sketch -->
    <title>ic_candle</title>
    <desc>Created with Sketch.</desc>
    <defs>
        <linearGradient x1="1.69403699%" y1="1.50892141%" x2="100%" y2="89.0725184%" id="linearGradient-1">
            <stop stop-color="#FFC478" offset="0%"></stop>
            <stop stop-color="#FF9143" offset="100%"></stop>
        </linearGradient>
    </defs>
    <g id="Symbols" stroke="none" stroke-width="1" fill="none" fill-rule="evenodd">
        <g id="Icon/ic_candle">
            <g id="ic_candle">
                <rect x="0" y="0" width="24" height="24"></rect>
                <path d="M13,5 L15,5 C16.6568542,5 18,6.34314575 18,8 L18,16 C18,17.6568542 16.6568542,19 15,19 L13,19 L13,21 C13,21.5522847 12.5522847,22 12,22 C11.4477153,22 11,21.5522847 11,21 L11,19 L9,19 C7.34314575,19 6,17.6568542 6,16 L6,8 C6,6.34314575 7.34314575,5 9,5 L11,5 L11,3 C11,2.44771525 11.4477153,2 12,2 C12.5522847,2 13,2.44771525 13,3 L13,5 Z M9,7 C8.44771525,7 8,7.44771525 8,8 L8,16 C8,16.5522847 8.44771525,17 9,17 L15,17 C15.5522847,17 16,16.5522847 16,16 L16,8 C16,7.44771525 15.5522847,7 15,7 L9,7 Z" fill="url(#linearGradient-1)"></path>
            </g>
        </g>
    </g>
</svg>