<?xml version="1.0" encoding="UTF-8"?>
<svg width="24px" height="24px" viewBox="0 0 24 24" version="1.1" xmlns="http://www.w3.org/2000/svg" xmlns:xlink="http://www.w3.org/1999/xlink">
    <!-- Generator: Sketch 49.3 (51167) - http://www.bohemiancoding.com/sketch -->
    <title>ic_content_copy_white</title>
    <desc>Created with Sketch.</desc>
    <defs></defs>
    <g id="Symbols" stroke="none" stroke-width="1" fill="none" fill-rule="evenodd">
        <g id="Icon/ic_content_copy">
            <g id="ic_content_copy_white">
                <polygon points="0 0 24 0 24 24 0 24"></polygon>
                <path d="M15,1 L4,1 C2.9,1 2,1.9 2,3 L2,16 C2,16.5522847 2.44771525,17 3,17 L3,17 C3.55228475,17 4,16.5522847 4,16 L4,3 L15,3 C15.5522847,3 16,2.55228475 16,2 L16,2 C16,1.44771525 15.5522847,1 15,1 Z M20,5 L8,5 C6.9,5 6,5.9 6,7 L6,21 C6,22.1 6.9,23 8,23 L20,23 C21.1,23 22,22.1 22,21 L22,7 C22,5.9 21.1,5 20,5 Z M20,21 L8,21 L8,7 L20,7 L20,21 Z" fill="#FFFFFF" fill-rule="nonzero"></path>
            </g>
        </g>
    </g>
</svg>