<?xml version="1.0" encoding="UTF-8"?>
<svg width="24px" height="24px" viewBox="0 0 24 24" version="1.1" xmlns="http://www.w3.org/2000/svg" xmlns:xlink="http://www.w3.org/1999/xlink">
    <!-- Generator: Sketch 49.3 (51167) - http://www.bohemiancoding.com/sketch -->
    <title>ic_check_box</title>
    <desc>Created with Sketch.</desc>
    <defs></defs>
    <g id="Symbols" stroke="none" stroke-width="1" fill="none" fill-rule="evenodd">
        <g id="Icon/ic_check_box">
            <g id="ic_check_box">
                <polygon points="0 0 24 0 24 24 0 24"></polygon>
                <path d="M19,3 C20.11,3 21,3.9 21,5 L21,19 C21,20.1 20.11,21 19,21 L5,21 C3.89,21 3,20.1 3,19 L3,5 C3,3.9 3.89,3 5,3 L19,3 Z M17.4444444,5 L6.55555556,5 C5.69222222,5 5,5.7 5,6.55555556 L5,17.4444444 C5,18.3 5.69222222,19 6.55555556,19 L17.4444444,19 C18.3077778,19 19,18.3 19,17.4444444 L19,6.55555556 C19,5.7 18.3077778,5 17.4444444,5 Z" fill="#78819A" fill-rule="nonzero"></path>
            </g>
        </g>
    </g>
</svg>