<?xml version="1.0" encoding="UTF-8"?>
<svg width="24px" height="24px" viewBox="0 0 24 24" version="1.1" xmlns="http://www.w3.org/2000/svg" xmlns:xlink="http://www.w3.org/1999/xlink">
    <!-- Generator: Sketch 49.3 (51167) - http://www.bohemiancoding.com/sketch -->
    <title>ic_delete_outline</title>
    <desc>Created with Sketch.</desc>
    <defs></defs>
    <g id="Symbols" stroke="none" stroke-width="1" fill="none" fill-rule="evenodd">
        <g id="Icon/delete_outline">
            <g id="ic_delete_outline">
                <polygon points="0 0 24 0 24 24 0 24"></polygon>
                <path d="M6,19 C6,20.1 6.9,21 8,21 L16,21 C17.1,21 18,20.1 18,19 L18,7 L6,7 L6,19 Z M8,9 L16,9 L16,19 L8,19 L8,9 Z M15.5,4 L14.5,3 L9.5,3 L8.5,4 L6,4 C5.44771525,4 5,4.44771525 5,5 L5,5 C5,5.55228475 5.44771525,6 6,6 L18,6 C18.5522847,6 19,5.55228475 19,5 L19,5 C19,4.44771525 18.5522847,4 18,4 L15.5,4 Z" fill="#78819A" fill-rule="nonzero"></path>
            </g>
        </g>
    </g>
</svg>