<?xml version="1.0" encoding="UTF-8"?>
<svg width="24px" height="24px" viewBox="0 0 24 24" version="1.1" xmlns="http://www.w3.org/2000/svg" xmlns:xlink="http://www.w3.org/1999/xlink">
    <!-- Generator: Sketch 49.3 (51167) - http://www.bohemiancoding.com/sketch -->
    <title>ic_exlorer</title>
    <desc>Created with Sketch.</desc>
    <defs></defs>
    <g id="Symbols" stroke="none" stroke-width="1" fill="none" fill-rule="evenodd">
        <g id="Icon/ic_exlorer">
            <g id="ic_exlorer">
                <polygon points="0 0 24 0 24 24 0 24"></polygon>
                <path d="M18.78,16 L17.2193661,9.75746437 C17.1080743,9.31229737 16.7080912,9 16.2492236,9 L15.741582,9 C15.2869883,9 14.8895952,9.30662139 14.7742865,9.74634779 L13.04,16.36 L10.2063423,4.76264579 C10.0969556,4.31495727 9.69577748,4 9.23491908,4 L8.77417242,4 C8.30913067,4 7.90546514,4.32058003 7.8001519,4.77354023 L5.19,16 L3,16 C2.44771525,16 2,16.4477153 2,17 L2,17 C2,17.5522847 2.44771525,18 3,18 L6.01946408,18 C6.48283599,18 6.88551251,17.6816697 6.99246307,17.2308093 L8.99,8.81 L11.7931487,20.2382215 C11.9028557,20.6854886 12.3038343,21 12.7643595,21 L13.2570241,21 C13.7122676,21 14.1100567,20.6925186 14.224761,20.2519626 L16.04,13.28 L17.0306339,17.2425356 C17.1419257,17.6877026 17.5419088,18 18.0007764,18 L21,18 C21.5522847,18 22,17.5522847 22,17 L22,17 C22,16.4477153 21.5522847,16 21,16 L18.78,16 Z" fill="#78819A" fill-rule="nonzero"></path>
            </g>
        </g>
    </g>
</svg>