<?xml version="1.0" encoding="UTF-8"?>
<svg width="24px" height="24px" viewBox="0 0 24 24" version="1.1" xmlns="http://www.w3.org/2000/svg" xmlns:xlink="http://www.w3.org/1999/xlink">
    <!-- Generator: Sketch 49.3 (51167) - http://www.bohemiancoding.com/sketch -->
    <title>ic_expand_area</title>
    <desc>Created with Sketch.</desc>
    <defs></defs>
    <g id="Symbols" stroke="none" stroke-width="1" fill="none" fill-rule="evenodd">
        <g id="Icon/ic_expand_area">
            <g id="ic_expand_area">
                <rect x="0" y="0" width="24" height="24"></rect>
                <path d="M10.9748737,15.9246212 L15.9246212,10.9748737 C16.1198833,10.7796116 16.4364658,10.7796116 16.631728,10.9748737 C16.8269901,11.1701359 16.8269901,11.4867184 16.631728,11.6819805 L11.6819805,16.631728 C11.4867184,16.8269901 11.1701359,16.8269901 10.9748737,16.631728 C10.7796116,16.4364658 10.7796116,16.1198833 10.9748737,15.9246212 Z M8.14644661,15.9246212 L15.9246212,8.14644661 C16.1198833,7.95118446 16.4364658,7.95118446 16.631728,8.14644661 C16.8269901,8.34170876 16.8269901,8.65829124 16.631728,8.85355339 L8.85355339,16.631728 C8.65829124,16.8269901 8.34170876,16.8269901 8.14644661,16.631728 C7.95118446,16.4364658 7.95118446,16.1198833 8.14644661,15.9246212 Z M13.8033009,15.9246212 L15.9246212,13.8033009 C16.1198833,13.6080387 16.4364658,13.6080387 16.631728,13.8033009 C16.8269901,13.998563 16.8269901,14.3151455 16.631728,14.5104076 L14.5104076,16.631728 C14.3151455,16.8269901 13.998563,16.8269901 13.8033009,16.631728 C13.6080387,16.4364658 13.6080387,16.1198833 13.8033009,15.9246212 Z" fill="#78819A"></path>
            </g>
        </g>
    </g>
</svg>