<?xml version="1.0" encoding="UTF-8"?>
<svg width="24px" height="24px" viewBox="0 0 24 24" version="1.1" xmlns="http://www.w3.org/2000/svg" xmlns:xlink="http://www.w3.org/1999/xlink">
    <!-- Generator: Sketch 49.3 (51167) - http://www.bohemiancoding.com/sketch -->
    <title>ic_exchange_arrows</title>
    <desc>Created with Sketch.</desc>
    <defs></defs>
    <g id="Symbols" stroke="none" stroke-width="1" fill="none" fill-rule="evenodd">
        <g id="Icon/ic_exchange_arrows">
            <g id="ic_exchange_arrows">
                <polygon points="0 0 24 0 24 24 0 24"></polygon>
                <path d="M12.01,10 L6,10 C5.44771525,10 5,9.55228475 5,9 C5,8.44771525 5.44771525,8 6,8 L12.01,8 L12.01,7.41849313 C12.01,6.86620838 12.4577153,6.41849313 13.01,6.41849313 C13.2756502,6.41849313 13.5303834,6.52419388 13.7179912,6.7122719 L16,9 L13.7179912,11.2877281 C13.327956,11.6787409 12.6947915,11.6795333 12.3037788,11.2894981 C12.1157007,11.1018903 12.01,10.8471571 12.01,10.5815069 L12.01,10 Z M11.99,13.4184931 L11.99,14 L18,14 C18.5522847,14 19,14.4477153 19,15 C19,15.5522847 18.5522847,16 18,16 L11.99,16 L11.99,16.5815069 C11.99,17.1337916 11.5422847,17.5815069 10.99,17.5815069 C10.7243498,17.5815069 10.4696166,17.4758061 10.2820088,17.2877281 L8,15 L10.2820088,12.7122719 C10.672044,12.3212591 11.3052085,12.3204667 11.6962212,12.7105019 C11.8842993,12.8981097 11.99,13.1528429 11.99,13.4184931 Z" fill="#78819A" fill-rule="nonzero"></path>
            </g>
        </g>
    </g>
</svg>