<?xml version="1.0" encoding="UTF-8"?>
<svg width="24px" height="24px" viewBox="0 0 24 24" version="1.1" xmlns="http://www.w3.org/2000/svg" xmlns:xlink="http://www.w3.org/1999/xlink">
    <!-- Generator: Sketch 49.3 (51167) - http://www.bohemiancoding.com/sketch -->
    <title>ic_faq</title>
    <desc>Created with Sketch.</desc>
    <defs></defs>
    <g id="Symbols" stroke="none" stroke-width="1" fill="none" fill-rule="evenodd">
        <g id="Icon/ic_faq">
            <g id="ic_faq">
                <polygon points="0 0 24 0 24 24 0 24"></polygon>
                <path d="M5,14.8649263 L5,16.5865022 C5,16.9523747 5.19980941,17.2890388 5.52097216,17.4643019 L11.5209722,20.7385877 C11.8195418,20.9015214 12.1804582,20.9015214 12.4790278,20.7385877 L18.4790278,17.4643019 C18.8001906,17.2890388 19,16.9523747 19,16.5865022 L19,14.8649263 C19,14.3126416 18.5522847,13.8649263 18,13.8649263 C17.8326132,13.8649263 17.6679042,13.9069437 17.5209722,13.9871266 L12,17 L6.47902784,13.9871266 C5.99423245,13.7225669 5.38676006,13.9011031 5.12220029,14.3858985 C5.04201737,14.5328305 5,14.6975396 5,14.8649263 Z M11.5211479,3.26119207 L2.60947522,8.12210443 C2.12462688,8.38656716 1.94596905,8.99400379 2.21043177,9.47885213 C2.30237715,9.64741865 2.4409087,9.7859502 2.60947522,9.87789557 L11.5211035,14.7387837 C11.8196053,14.9016029 12.1803871,14.9015888 12.4788761,14.7387465 L19.5210795,10.8968333 C20.0059073,10.6323328 20.6133578,10.8109434 20.8778583,11.2957711 C20.9580034,11.4426766 21,11.6073462 21,11.7746916 L21,16 C21,16.5522847 21.4477153,17 22,17 L22,17 C22.5522847,17 23,16.5522847 23,16 L23,9.5936331 C23,9.22768888 22.8001129,8.8909707 22.4788521,8.71573753 L12.4788521,3.26119207 C12.1803746,3.09838617 11.8196254,3.09838617 11.5211479,3.26119207 Z" fill="#78819A" fill-rule="nonzero"></path>
            </g>
        </g>
    </g>
</svg>