<?xml version="1.0" encoding="UTF-8"?>
<svg width="24px" height="24px" viewBox="0 0 24 24" version="1.1" xmlns="http://www.w3.org/2000/svg" xmlns:xlink="http://www.w3.org/1999/xlink">
    <!-- Generator: Sketch 49.3 (51167) - http://www.bohemiancoding.com/sketch -->
    <title>ic_file_upload</title>
    <desc>Created with Sketch.</desc>
    <defs></defs>
    <g id="Symbols" stroke="none" stroke-width="1" fill="none" fill-rule="evenodd">
        <g id="Icon/file_upload">
            <g id="ic_file_upload">
                <polygon points="0 0 24 0 24 24 0 24"></polygon>
                <path d="M16.5857864,9 L14,9 L14,4 C14,3.44771525 13.5522847,3 13,3 L11,3 C10.4477153,3 10,3.44771525 10,4 L10,9 L7.41421356,9 C6.86192881,9 6.41421356,9.44771525 6.41421356,10 C6.41421356,10.2652165 6.5195704,10.5195704 6.70710678,10.7071068 L12,16 L17.2928932,10.7071068 C17.6834175,10.3165825 17.6834175,9.68341751 17.2928932,9.29289322 C17.1053568,9.10535684 16.8510029,9 16.5857864,9 Z M5,19 L5,19 C5,19.5522847 5.44771525,20 6,20 L18,20 C18.5522847,20 19,19.5522847 19,19 L19,19 C19,18.4477153 18.5522847,18 18,18 L6,18 C5.44771525,18 5,18.4477153 5,19 Z" fill="#FFFFFF" fill-rule="nonzero" transform="translate(12.000000, 11.500000) scale(1, -1) translate(-12.000000, -11.500000) "></path>
            </g>
        </g>
    </g>
</svg>