<?xml version="1.0" encoding="UTF-8"?>
<svg width="24px" height="24px" viewBox="0 0 24 24" version="1.1" xmlns="http://www.w3.org/2000/svg" xmlns:xlink="http://www.w3.org/1999/xlink">
    <!-- Generator: Sketch 49.3 (51167) - http://www.bohemiancoding.com/sketch -->
    <title>ic_gateway</title>
    <desc>Created with Sketch.</desc>
    <defs></defs>
    <g id="Symbols" stroke="none" stroke-width="1" fill="none" fill-rule="evenodd">
        <g id="Icon/ic_gateway">
            <g id="ic_gateway">
                <polygon points="0 0 24 0 24 24 0 24"></polygon>
                <path d="M12,6 L12,7.79289322 C12,8.06903559 12.2238576,8.29289322 12.5,8.29289322 C12.6326082,8.29289322 12.7597852,8.2402148 12.8535534,8.14644661 L16,5 L12.8535534,1.85355339 C12.6582912,1.65829124 12.3417088,1.65829124 12.1464466,1.85355339 C12.0526784,1.94732158 12,2.07449854 12,2.20710678 L12,4 C7.58,4 4,7.58 4,12 C4,13.57 4.46,15.03 5.24,16.26 L6.7,14.8 C6.25,13.97 6,13.01 6,12 C6,8.69 8.69,6 12,6 Z M17.3,9.2 C17.74,10.04 18,10.99 18,12 C18,15.31 15.31,18 12,18 L12,16.2071068 C12,15.9309644 11.7761424,15.7071068 11.5,15.7071068 C11.3673918,15.7071068 11.2402148,15.7597852 11.1464466,15.8535534 L8,19 L11.1464466,22.1464466 C11.3417088,22.3417088 11.6582912,22.3417088 11.8535534,22.1464466 C11.9473216,22.0526784 12,21.9255015 12,21.7928932 L12,20 C16.42,20 20,16.42 20,12 C20,10.43 19.54,8.97 18.76,7.74 L17.3,9.2 Z" fill="#78819A" fill-rule="nonzero"></path>
            </g>
        </g>
    </g>
</svg>