<?xml version="1.0" encoding="UTF-8"?>
<svg width="24px" height="24px" viewBox="0 0 24 24" version="1.1" xmlns="http://www.w3.org/2000/svg" xmlns:xlink="http://www.w3.org/1999/xlink">
    <!-- Generator: Sketch 49.3 (51167) - http://www.bohemiancoding.com/sketch -->
    <title>ic_help_outline_active</title>
    <desc>Created with Sketch.</desc>
    <defs></defs>
    <g id="Symbols" stroke="none" stroke-width="1" fill="none" fill-rule="evenodd">
        <g id="Icon/help_outline_active">
            <g id="ic_help_outline_active">
                <polygon points="0 0 24 0 24 24 0 24"></polygon>
                <path d="M12,18 C11.4477153,18 11,17.5522847 11,17 C11,16.4477153 11.4477153,16 12,16 C12.5522847,16 13,16.4477153 13,17 C13,17.5522847 12.5522847,18 12,18 Z M12,2 C6.48,2 2,6.48 2,12 C2,17.52 6.48,22 12,22 C17.52,22 22,17.52 22,12 C22,6.48 17.52,2 12,2 Z M12,20 C7.59,20 4,16.41 4,12 C4,7.59 7.59,4 12,4 C16.41,4 20,7.59 20,12 C20,16.41 16.41,20 12,20 Z M12,6 C14.21,6 16,7.79 16,10 C16,12.5 13,12.5785826 13,14.8285826 C13,15.0365146 12.8314378,15.2050768 12.6235058,15.2050768 L11.3764942,15.2050768 C11.1685622,15.2050768 11,15.0365146 11,14.8285826 C11,11.5785826 14,12 14,10 C14,8.9 13.1,8 12,8 C10.9,8 10,8.68093664 10,9.78093664 C10,9.96435575 9.85130943,10.1130463 9.66789032,10.1130463 L8.33210968,10.1130463 C8.14869057,10.1130463 8,9.96435575 8,9.78093664 C8,7.57093664 9.79,6 12,6 Z" fill="#FF9143" fill-rule="nonzero"></path>
            </g>
        </g>
    </g>
</svg>