<?xml version="1.0" encoding="UTF-8"?>
<svg width="24px" height="24px" viewBox="0 0 24 24" version="1.1" xmlns="http://www.w3.org/2000/svg" xmlns:xlink="http://www.w3.org/1999/xlink">
    <!-- Generator: Sketch 49.3 (51167) - http://www.bohemiancoding.com/sketch -->
    <title>ic_info_outline_white</title>
    <desc>Created with Sketch.</desc>
    <defs></defs>
    <g id="Symbols" stroke="none" stroke-width="1" fill="none" fill-rule="evenodd">
        <g id="Icon/info_outline">
            <g id="ic_info_outline_white">
                <polygon points="0 0 24 0 24 24 0 24"></polygon>
                <path d="M12,17 L12,17 C12.5522847,17 13,16.5522847 13,16 L13,12 C13,11.4477153 12.5522847,11 12,11 L12,11 C11.4477153,11 11,11.4477153 11,12 L11,16 C11,16.5522847 11.4477153,17 12,17 Z M12,2 C6.48,2 2,6.48 2,12 C2,17.52 6.48,22 12,22 C17.52,22 22,17.52 22,12 C22,6.48 17.52,2 12,2 Z M12,20 C7.59,20 4,16.41 4,12 C4,7.59 7.59,4 12,4 C16.41,4 20,7.59 20,12 C20,16.41 16.41,20 12,20 Z M12,9 L12,9 C12.5522847,9 13,8.55228475 13,8 L13,8 C13,7.44771525 12.5522847,7 12,7 L12,7 C11.4477153,7 11,7.44771525 11,8 L11,8 C11,8.55228475 11.4477153,9 12,9 Z" fill="#FFFFFF" fill-rule="nonzero"></path>
            </g>
        </g>
    </g>
</svg>