<?xml version="1.0" encoding="UTF-8"?>
<svg width="24px" height="24px" viewBox="0 0 24 24" version="1.1" xmlns="http://www.w3.org/2000/svg" xmlns:xlink="http://www.w3.org/1999/xlink">
    <!-- Generator: Sketch 49.3 (51167) - http://www.bohemiancoding.com/sketch -->
    <title>ic_lock_outline_open_2</title>
    <desc>Created with Sketch.</desc>
    <defs>
        <polygon id="path-1" points="0 0 24 0 24 24 0 24"></polygon>
    </defs>
    <g id="Symbols" stroke="none" stroke-width="1" fill="none" fill-rule="evenodd">
        <g id="Icon/lock_outline_open_2">
            <g id="ic_lock_outline_open_2">
                <mask id="mask-2" fill="white">
                    <use xlink:href="#path-1"></use>
                </mask>
                <g></g>
                <path d="M12,17.5 C13.1,17.5 14,16.6 14,15.5 C14,14.4 13.1,13.5 12,13.5 C10.9,13.5 10,14.4 10,15.5 C10,16.6 10.9,17.5 12,17.5 Z M17,9 L17,6 C17,3.24 14.76,1 12,1 C9.24,1 7,3.24 7,6 L8.9,6 C8.9,4.29 10.29,2.9 12,2.9 C13.71,2.9 15.1,4.29 15.1,6 L15.1,9 L7,9 C5.9,9 5,9.9 5,11 L5,20 C5,21.1 5.9,22 7,22 L17,22 C18.1,22 19,21.1 19,20 L19,11 C19,9.9 18.1,9 17,9 Z M17,20 L7,20 L7,11 L17,11 L17,20 Z" fill="#78819A" fill-rule="nonzero" mask="url(#mask-2)"></path>
            </g>
        </g>
    </g>
</svg>