<?xml version="1.0" encoding="UTF-8"?>
<svg width="24px" height="24px" viewBox="0 0 24 24" version="1.1" xmlns="http://www.w3.org/2000/svg" xmlns:xlink="http://www.w3.org/1999/xlink">
    <!-- Generator: Sketch 49.3 (51167) - http://www.bohemiancoding.com/sketch -->
    <title>ic_logout</title>
    <desc>Created with Sketch.</desc>
    <defs></defs>
    <g id="Symbols" stroke="none" stroke-width="1" fill="none" fill-rule="evenodd">
        <g id="Icon/logout">
            <g id="ic_logout">
                <polygon points="0 0 24 0 24 24 0 24"></polygon>
                <path d="M12,3 L12,3 C11.4477153,3 11,3.44771525 11,4 L11,12 C11,12.5522847 11.4477153,13 12,13 L12,13 C12.5522847,13 13,12.5522847 13,12 L13,4 C13,3.44771525 12.5522847,3 12,3 Z M17.83,5.17 L16.41,6.59 C17.99,7.86 19,9.81 19,12 C19,15.87 15.87,19 12,19 C8.13,19 5,15.87 5,12 C5,9.81 6.01,7.86 7.58,6.58 L6.17,5.17 C4.23,6.82 3,9.26 3,12 C3,16.97 7.03,21 12,21 C16.97,21 21,16.97 21,12 C21,9.26 19.77,6.82 17.83,5.17 Z" fill="#78819A" fill-rule="nonzero"></path>
            </g>
        </g>
    </g>
</svg>