<?xml version="1.0" encoding="UTF-8"?>
<svg width="24px" height="24px" viewBox="0 0 24 24" version="1.1" xmlns="http://www.w3.org/2000/svg" xmlns:xlink="http://www.w3.org/1999/xlink">
    <!-- Generator: Sketch 49.3 (51167) - http://www.bohemiancoding.com/sketch -->
    <title>ic_star</title>
    <desc>Created with Sketch.</desc>
    <defs>
        <linearGradient x1="1.69403699%" y1="1.50892141%" x2="100%" y2="89.0725184%" id="linearGradient-1">
            <stop stop-color="#FFC478" offset="0%"></stop>
            <stop stop-color="#FF9143" offset="100%"></stop>
        </linearGradient>
    </defs>
    <g id="Symbols" stroke="none" stroke-width="1" fill="none" fill-rule="evenodd">
        <g id="Icon/ic_star">
            <g id="ic_star">
                <polygon points="0 0 24 0 24 24 0 24"></polygon>
                <path d="M12,17.9218421 L17.0085183,21.1038849 C17.2415984,21.2519668 17.5505914,21.1830621 17.6986733,20.949982 C17.7696629,20.8382447 17.7934434,20.7029153 17.7647999,20.5736701 L16.4265,14.535 L20.9096522,10.4468354 C21.113696,10.2607688 21.1282694,9.94452197 20.9422029,9.7404782 C20.8578623,9.64798885 20.7418988,9.59049751 20.6172246,9.57936345 L14.73975,9.05447368 L12.463815,3.40193609 C12.3606757,3.14577814 12.0694077,3.02173203 11.8132498,3.12487134 C11.6870467,3.17568569 11.5869994,3.27573302 11.536185,3.40193609 L9.26025,9.05447368 L3.38277537,9.57936345 C3.10772763,9.60392667 2.90466981,9.84680935 2.92923304,10.1218571 C2.94036711,10.2465312 2.99785845,10.3624948 3.09034779,10.4468354 L7.5735,14.535 L6.23520013,20.5736701 C6.17545075,20.843271 6.34556899,21.1102621 6.61516985,21.1700115 C6.74441496,21.198655 6.87974441,21.1748745 6.99148171,21.1038849 L12,17.9218421 Z" fill="url(#linearGradient-1)" fill-rule="nonzero"></path>
            </g>
        </g>
    </g>
</svg>