<?xml version="1.0" encoding="UTF-8" standalone="no"?>
<svg
   xmlns:dc="http://purl.org/dc/elements/1.1/"
   xmlns:cc="http://creativecommons.org/ns#"
   xmlns:rdf="http://www.w3.org/1999/02/22-rdf-syntax-ns#"
   xmlns:svg="http://www.w3.org/2000/svg"
   xmlns="http://www.w3.org/2000/svg"
   xmlns:sodipodi="http://sodipodi.sourceforge.net/DTD/sodipodi-0.dtd"
   xmlns:inkscape="http://www.inkscape.org/namespaces/inkscape"
   width="24px"
   height="24px"
   viewBox="0 0 24 24"
   version="1.1"
   id="svg15"
   sodipodi:docname="ic_visibility_off.svg"
   inkscape:version="0.92.2 5c3e80d, 2017-08-06">
  <metadata
     id="metadata19">
    <rdf:RDF>
      <cc:Work
         rdf:about="">
        <dc:format>image/svg+xml</dc:format>
        <dc:type
           rdf:resource="http://purl.org/dc/dcmitype/StillImage" />
      </cc:Work>
    </rdf:RDF>
  </metadata>
  <sodipodi:namedview
     pagecolor="#ffffff"
     bordercolor="#666666"
     borderopacity="1"
     objecttolerance="10"
     gridtolerance="10"
     guidetolerance="10"
     inkscape:pageopacity="0"
     inkscape:pageshadow="2"
     inkscape:window-width="723"
     inkscape:window-height="480"
     id="namedview17"
     showgrid="false"
     inkscape:zoom="9.8333333"
     inkscape:cx="12"
     inkscape:cy="12"
     inkscape:window-x="0"
     inkscape:window-y="0"
     inkscape:window-maximized="0"
     inkscape:current-layer="svg15" />
  <!-- Generator: Sketch 49.3 (51167) - http://www.bohemiancoding.com/sketch -->
  <title
     id="title2">ic_visibility_off</title>
  <desc
     id="desc4">Created with Sketch.</desc>
  <defs
     id="defs6" />
  <g
     style="fill:none;fill-rule:evenodd;stroke:none;stroke-width:1"
     id="Icon/ic_visibility_off">
    <g
       id="ic_visibility_off">
      <path
         inkscape:connector-curvature="0"
         id="path8"
         d="M 0,0 H 24 V 24 H 0 Z M 0,0 H 24 V 24 H 0 Z M 0,0 H 24 V 24 H 0 Z M 0,0 H 24 V 24 H 0 Z" />
      <path
         style="fill:#78819a;fill-rule:nonzero"
         inkscape:connector-curvature="0"
         id="path10"
         d="m 12,7 c 2.76,0 5,2.24 5,5 0,0.65 -0.13,1.26 -0.36,1.83 l 2.92,2.92 c 1.51,-1.26 2.7,-2.89 3.43,-4.75 -1.73,-4.39 -6,-7.5 -11,-7.5 -1.4,0 -2.74,0.25 -3.98,0.7 l 2.16,2.16 C 10.74,7.13 11.35,7 12,7 Z M 2.635,4.905 4.28,6.55 4.74,7.01 C 3.08,8.3 1.78,10.02 1,12 c 1.73,4.39 6,7.5 11,7.5 1.55,0 3.03,-0.3 4.38,-0.84 l 0.42,0.42 2.293916,2.286086 c 0.351475,0.350276 0.920208,0.34979 1.271084,-0.0011 v 0 c 0.350701,-0.350701 0.350701,-0.919299 0,-1.27 L 3.905,3.635 c -0.3507008,-0.3507008 -0.9192992,-0.3507008 -1.27,0 v 0 c -0.3507008,0.3507008 -0.3507008,0.9192992 0,1.27 z M 9.08,11.35 C 9.03,11.56 9,11.78 9,12 c 0,1.66 1.34,3 3,3 0.22,0 0.44,-0.03 0.65,-0.08 l 1.55,1.55 C 13.53,16.8 12.79,17 12,17 9.24,17 7,14.76 7,12 7,11.21 7.2,10.47 7.53,9.8 Z m 2.76,-2.33 3.15,3.15 0.02,-0.16 c 0,-1.66 -1.34,-3 -3,-3 z" />
    </g>
  </g>
</svg>
