<?xml version="1.0" encoding="UTF-8"?>
<svg width="112px" height="112px" viewBox="0 0 112 112" version="1.1" xmlns="http://www.w3.org/2000/svg" xmlns:xlink="http://www.w3.org/1999/xlink">
    <!-- Generator: Sketch 49.3 (51167) - http://www.bohemiancoding.com/sketch -->
    <title>Illustration_Success_Registration</title>
    <desc>Created with Sketch.</desc>
    <defs>
        <linearGradient x1="0%" y1="0%" x2="97.8356186%" y2="97.8356186%" id="linearGradient-1">
            <stop stop-color="#E7AC5F" offset="0%"></stop>
            <stop stop-color="#E76536" offset="100%"></stop>
        </linearGradient>
        <path d="M15.4429779,0.234226999 C20.5066572,2.97944238 22.4842349,4.23422751 26.5000007,4.23422751 C30.5157666,4.23422751 32.0960348,3.04382604 37.3793198,0.234226999 C37.7082794,0.0644144265 37.7439414,0.0254449988 38.1408929,0.0191404878 C38.5378445,0.0128359768 38.7680394,0.157435641 38.9788258,0.208823135 C46.148217,1.95664528 51.9102452,7.44248997 53.0000319,14.2972605 C53.0743392,14.7646543 53.0743392,21.4103296 53.0000319,34.2342866 C53.0000348,38.1002799 49.8660304,41.234289 46.0000371,41.2342918 C43.9257385,41.2342918 42.6192904,41.2342918 42.0806929,41.2342918 C41.5420954,41.2342918 36.3578248,39.821198 26.5278812,36.9950104 C16.6073587,39.821198 11.2544797,41.2342918 10.4692444,41.2342918 C9.68400909,41.2342918 8.52759429,41.2342901 7,41.2342866 C3.13400675,41.2342866 0,38.1002799 0,34.2342866 L0,14.2972605 C0,8.61715567 7,1.73614422 13.3226336,0.0644144265 C13.9948831,-0.113331048 14.7418522,0.121199566 15.4429779,0.234226999 Z" id="path-2"></path>
        <path d="M15.4429779,0.234226999 C20.5066572,2.97944238 22.4842349,4.23422751 26.5000007,4.23422751 C30.5157666,4.23422751 32.0960348,3.04382604 37.3793198,0.234226999 C37.7082794,0.0644144265 37.7439414,0.0254449988 38.1408929,0.0191404878 C38.5378445,0.0128359768 38.7680394,0.157435641 38.9788258,0.208823135 C46.148217,1.95664528 51.9102452,7.44248997 53.0000319,14.2972605 C53.0743392,14.7646543 53.0743392,21.4103296 53.0000319,34.2342866 C53.0000348,38.1002799 49.8660304,41.234289 46.0000371,41.2342918 C43.9257385,41.2342918 42.6192904,41.2342918 42.0806929,41.2342918 C41.5420954,41.2342918 36.3578248,39.821198 26.5278812,36.9950104 C16.6073587,39.821198 11.2544797,41.2342918 10.4692444,41.2342918 C9.68400909,41.2342918 8.52759429,41.2342901 7,41.2342866 C3.13400675,41.2342866 0,38.1002799 0,34.2342866 L0,14.2972605 C0,8.61715567 7,1.73614422 13.3226336,0.0644144265 C13.9948831,-0.113331048 14.7418522,0.121199566 15.4429779,0.234226999 Z" id="path-4"></path>
    </defs>
    <g id="Symbols" stroke="none" stroke-width="1" fill="none" fill-rule="evenodd">
        <g id="Illustration/112/SuccessRegistration">
            <rect id="Illustration_Success_Registration" x="0" y="0" width="112" height="112"></rect>
            <g id="SuccessRegistration" transform="translate(6.000000, 12.000000)">
                <g id="card" transform="translate(60.000000, 8.000000)">
                    <path d="M4,0 L35,0 C37.209139,-4.05812251e-16 39,1.790861 39,4 L39,42 C39,44.209139 37.209139,46 35,46 L4,46 C1.790861,46 2.705415e-16,44.209139 0,42 L1.33226763e-15,4 C1.06172613e-15,1.790861 1.790861,4.05812251e-16 4,0 Z" id="Rectangle" fill="url(#linearGradient-1)"></path>
                    <path d="M29.9631824,31.101613 C30.470864,30.5939314 31.2939785,30.5939314 31.80166,31.101613 C32.3093416,31.6092946 32.3093416,32.4324091 31.80166,32.9400906 L24.9211279,39.8206228 C24.4134463,40.3283044 23.5903318,40.3283044 23.0826502,39.8206228 L19.9192388,36.6572114 C19.4115572,36.1495298 19.4115572,35.3264153 19.9192388,34.8187338 C20.4269204,34.3110522 21.2500349,34.3110522 21.7577164,34.8187338 L24.001889,37.0629064 L29.9631824,31.101613 Z" id="Rectangle-21" fill="#FFFFFF" fill-rule="nonzero"></path>
                    <path d="M7.29281772,9.6 C6.57881421,9.6 6,9.01797017 6,8.3 C6,7.58202983 6.57881421,7 7.29281772,7 L31.7071823,7 C32.4211858,7 33,7.58202983 33,8.3 C33,9.01797017 32.4211858,9.6 31.7071823,9.6 L7.29281772,9.6 Z" id="Path-22" fill="#FFFFFF" fill-rule="nonzero"></path>
                    <path d="M7.29281772,14.6 C6.57881421,14.6 6,14.0179702 6,13.3 C6,12.5820298 6.57881421,12 7.29281772,12 L19.7960446,12 C20.5100481,12 21.0888623,12.5820298 21.0888623,13.3 C21.0888623,14.0179702 20.5100481,14.6 19.7960446,14.6 L7.29281772,14.6 Z M25.5397645,14.6 C24.825761,14.6 24.2469468,14.0179702 24.2469468,13.3 C24.2469468,12.5820298 24.825761,12 25.5397645,12 L31.7071823,12 C32.4211858,12 33,12.5820298 33,13.3 C33,14.0179702 32.4211858,14.6 31.7071823,14.6 L25.5397645,14.6 Z" id="Path-22-Copy" fill="#FFFFFF" fill-rule="nonzero"></path>
                    <path d="M7.29281772,19.6 C6.57881421,19.6 6,19.0179702 6,18.3 C6,17.5820298 6.57881421,17 7.29281772,17 L31.7071823,17 C32.4211858,17 33,17.5820298 33,18.3 C33,19.0179702 32.4211858,19.6 31.7071823,19.6 L7.29281772,19.6 Z" id="Path-22-Copy-2" fill="#FFFFFF" fill-rule="nonzero"></path>
                    <path d="M7.29281772,24.6 C6.57881421,24.6 6,24.0179702 6,23.3 C6,22.5820298 6.57881421,22 7.29281772,22 L23.7071823,22 C24.4211858,22 25,22.5820298 25,23.3 C25,24.0179702 24.4211858,24.6 23.7071823,24.6 L7.29281772,24.6 Z" id="Path-22-Copy-3" fill="#FFFFFF" fill-rule="nonzero"></path>
                </g>
                <g id="man">
                    <path d="M15.4429779,47.234227 C20.5066572,49.9794424 22.4842349,51.2342275 26.5000007,51.2342275 C30.5157666,51.2342275 32.0960348,50.043826 37.3793198,47.234227 C37.7082794,47.0644144 37.7439414,47.025445 38.1408929,47.0191405 C38.5378445,47.012836 38.7680394,47.1574356 38.9788258,47.2088231 C46.148217,48.9566453 51.9102452,54.44249 53.0000319,61.2972605 C53.0743392,61.7646543 53.0743392,68.4103296 53.0000319,81.2342866 C53.0000348,85.1002799 49.8660304,88.234289 46.0000371,88.2342918 C43.9257385,88.2342918 42.6192904,88.2342918 42.0806929,88.2342918 C41.5420954,88.2342918 36.3578248,86.821198 26.5278812,83.9950104 C16.6073587,86.821198 11.2544797,88.2342918 10.4692444,88.2342918 C9.68400909,88.2342918 8.52759429,88.2342901 7,88.2342866 C3.13400675,88.2342866 0,85.1002799 0,81.2342866 L0,61.2972605 C0,55.6171557 7,48.7361442 13.3226336,47.0644144 C13.9948831,46.886669 14.7418522,47.1211996 15.4429779,47.234227 Z" id="Rectangle-15" fill="url(#linearGradient-1)" fill-rule="nonzero"></path>
                    <g id="Group-2" transform="translate(0.000000, 47.000000)">
                        <mask id="mask-3" fill="white">
                            <use xlink:href="#path-2"></use>
                        </mask>
                        <g id="Rectangle-15" fill-rule="nonzero"></g>
                        <path d="M3.02283124,42.1759868 C2.84896836,41.4793859 -0.981578314,32.1628353 -1.40108036,31.5801697 C-1.82058241,30.9975041 -1.68831222,30.1850867 -1.10564662,29.7655847 C0.741615731,28.4356103 4.17576567,26.6436451 5.88023268,25.8999592 C10.0747717,24.0698156 41.4060283,18.9039975 39.59107,19.2796246 C40.3045004,20.6394292 41.1333238,22.6224332 42.1190428,25.2831054 L42.4354153,27.8831054 L42.4354153,31.5801697 C42.4354153,32.1768859 42.0291777,32.6969772 41.4502219,32.8414773 L4.59894542,43.1224878 C3.90234448,43.2963507 3.19669412,42.8725878 3.02283124,42.1759868 Z" id="Combined-Shape-Copy-5" fill="url(#linearGradient-1)" fill-rule="nonzero" mask="url(#mask-3)"></path>
                        <path d="M50.9928762,28.1030057 C49.2939271,26.4482311 48.4156102,26.1250533 47.3663726,26.1250533 L42.0706144,26.1250533 C41.0848955,23.4643812 39.8608407,20.5377674 39.1474103,19.1779629 C40.9623686,18.8023357 42.6214851,18.2487795 43.2924272,18.2487795 C47.2239788,18.2487795 49.7289746,19.7627071 50.2042909,21.8502535 C50.3636869,22.5503064 51.1648404,22.9783858 51.8648933,22.8189898 C52.5649463,22.6595937 51.4109601,28.5102189 50.9928762,28.1030057 Z" id="Combined-Shape-Copy-6" fill="#171D2A" fill-rule="nonzero" mask="url(#mask-3)"></path>
                        <path d="M5.88023268,27.2929126 C4.35489239,27.9584426 2.11826669,30.6482251 0.413504686,31.8756035 C-0.169160914,32.2951055 -0.981578314,32.1628353 -1.40108036,31.5801697 C-1.82058241,30.9975041 -1.68831222,30.1850867 -1.10564662,29.7655847 C0.741615731,28.4356103 4.17576567,26.6436451 5.88023268,25.8999592 C10.0747717,24.0698156 38.9937164,16.0832542 43.4350593,16.0832542 C48.5250078,16.0832542 52.0320389,18.5765902 52.7909752,21.9097701 C52.9503712,22.6098231 52.5120822,23.3065441 51.8120293,23.4659401 C51.1119764,23.6253361 50.4152553,23.1870471 50.2558593,22.4869942 C49.780543,20.3994477 47.3666109,18.6832542 43.4350593,18.6832542 C42.7641172,18.6832542 41.4060283,18.9039975 39.59107,19.2796246 C40.3045004,20.6394292 41.1333238,22.6224332 42.1190428,25.2831054 L47.262381,25.2831054 C48.5698189,25.2831054 50.1661108,26.5319629 52.5884627,29.1190154 C53.0791874,29.6431055 53.0521394,30.4657754 52.5280493,30.9565001 C52.0039592,31.4472248 51.1812893,31.4201768 50.6905645,30.8960868 C49.6636415,29.7993411 48.8096248,28.9862177 48.1409777,28.4631023 C47.8371294,28.2253868 47.5818457,28.0558884 47.3846143,27.9553592 C47.2720195,27.8979694 47.2225311,27.8831054 47.262381,27.8831054 L42.4354153,27.8831054 L42.4354153,31.5801697 C42.4354153,32.1768859 42.0291777,32.6969772 41.4502219,32.8414773 L4.59894542,43.1224878 C3.90234448,43.2963507 3.19669412,42.8725878 3.02283124,42.1759868 C2.84896836,41.4793859 3.27273128,40.7737355 3.96933222,40.5998727 L39.8354153,30.5647541 L39.8354153,26.6058045 C38.5995839,23.2424844 37.6033561,20.9484882 36.9502321,19.8596515 C27.0824552,22.1270091 8.83817122,26.0023173 5.88023268,27.2929126 Z" id="Combined-Shape-Copy-4" fill="#FFFFFF" fill-rule="nonzero" mask="url(#mask-3)"></path>
                    </g>
                    <g id="Group" transform="translate(0.000000, 47.000000)">
                        <mask id="mask-5" fill="white">
                            <use xlink:href="#path-4"></use>
                        </mask>
                        <g id="Rectangle-15" fill-rule="nonzero"></g>
                        <path d="M49.9771688,42.1759868 C49.8033059,42.8725878 49.0976555,43.2963507 48.4010546,43.1224878 L11.5497781,32.8414773 C10.9708223,32.6969772 10.5645847,32.1768859 10.5645847,31.5801697 L10.5645847,27.8831054 L10.8809572,25.2831054 C11.8666762,22.6224332 12.6954996,20.6394292 13.40893,19.2796246 C13.0462617,19.2045661 13.9659746,18.9414998 15.6231627,19.2796246 C19.9168415,20.1556867 29.2950477,23.3406207 36.6590467,25.2821248 C37.8341799,25.5919464 38.7447954,25.8497012 39.7884973,26.081759 C41.2776968,26.4123025 41.6939368,26.5223939 43.5917534,26.9630238 C45.48957,27.4036537 46.907106,27.8780182 47.2218682,27.8831054 C47.4825934,27.9450997 48.8400059,28.8710972 50.4191938,30.6245445 C50.8445452,31.0968324 54.8205824,30.9975041 54.4010804,31.5801697 C53.9815783,32.1628353 50.1510316,41.4793859 49.9771688,42.1759868 Z" id="Combined-Shape-Copy-5" fill="url(#linearGradient-1)" fill-rule="nonzero" mask="url(#mask-5)"></path>
                        <path d="M2.00712379,28.1030057 C3.70607294,26.4482311 4.5843898,26.1250533 5.63362736,26.1250533 L10.9293856,26.1250533 C11.9151045,23.4643812 13.1391593,20.5377674 13.8525897,19.1779629 C12.0376314,18.8023357 10.3785149,18.2487795 9.70757275,18.2487795 C5.7760212,18.2487795 3.27102542,19.7627071 2.79570909,21.8502535 C2.63631308,22.5503064 1.83515957,22.9783858 1.13510665,22.8189898 C0.435053739,22.6595937 1.58903989,28.5102189 2.00712379,28.1030057 Z" id="Combined-Shape-Copy-6" fill="#171D2A" fill-rule="nonzero" mask="url(#mask-5)"></path>
                        <path d="M16.0497679,19.8596515 C15.3966439,20.9484882 14.4004161,23.2424844 13.1645847,26.6058045 L13.1645847,30.5647541 L49.0306678,40.5998727 C49.7272687,40.7737355 50.1510316,41.4793859 49.9771688,42.1759868 C49.8033059,42.8725878 49.0976555,43.2963507 48.4010546,43.1224878 L11.5497781,32.8414773 C10.9708223,32.6969772 10.5645847,32.1768859 10.5645847,31.5801697 L10.5645847,27.8831054 L5.73761901,27.8831054 C5.77746885,27.8831054 5.72798048,27.8979694 5.61538575,27.9553592 C5.41815428,28.0558884 5.16287064,28.2253868 4.85902229,28.4631023 C4.19037517,28.9862177 3.33635852,29.7993411 2.30943546,30.8960868 C1.81871074,31.4201768 0.996040797,31.4472248 0.471950703,30.9565001 C-0.0521393898,30.4657754 -0.0791873731,29.6431055 0.411537342,29.1190154 C2.83388918,26.5319629 4.43018107,25.2831054 5.73761901,25.2831054 L10.8809572,25.2831054 C11.8666762,22.6224332 12.6954996,20.6394292 13.40893,19.2796246 C11.5939717,18.9039975 10.2358828,18.6832542 9.56494067,18.6832542 C5.63338912,18.6832542 3.219457,20.3994477 2.74414068,22.4869942 C2.58474466,23.1870471 1.88802365,23.6253361 1.18797073,23.4659401 C0.48791782,23.3065441 0.049628804,22.6098231 0.209024817,21.9097701 C0.967961148,18.5765902 4.47499216,16.0832542 9.56494067,16.0832542 C12.9472632,16.0832542 30.5302973,20.7165497 40.5690667,23.7324302 C41.0817428,23.88645 48.1729348,25.1734165 48.1947801,25.5660994 C48.2238365,26.0884068 48.43916,27.6949504 47.8659896,27.9553592 C47.5427556,28.1022142 39.7283655,26.1947656 39.289167,26.06409 C32.5820502,24.0685083 22.6665161,21.3800076 16.0497679,19.8596515 Z" id="Combined-Shape-Copy-4" fill="#FFFFFF" fill-rule="nonzero" mask="url(#mask-5)"></path>
                    </g>
                    <path d="M14.1730807,49.6414856 C13.9578723,49.603074 13.9006611,49.6009288 13.9872452,49.5780356 C8.45846711,51.0398668 2.6,57.1264224 2.6,61.2972605 L2.6,81.2342866 C2.6,83.6643395 4.5699471,85.6342866 7.0000059,85.6342866 C9.1058059,85.634291 9.1058059,85.634291 10.4692444,85.6342918 C10.8605206,85.6342918 16.6338013,84.1102172 25.8155284,81.4944997 L26.5311621,81.2906279 L27.246299,81.4962355 C32.15072,82.9062959 35.8939612,83.9632046 38.4722876,84.6659875 C39.7499856,85.0142539 40.7374295,85.274396 41.4289552,85.4451479 C41.7579787,85.5263906 42.0139211,85.585857 42.1899473,85.6224363 C42.2042248,85.6254032 43.4742541,85.6293551 46.0000352,85.6342918 C48.4300881,85.63429 50.4000337,83.6643415 50.4000756,81.2192214 C50.4689573,69.3316102 50.4689573,61.9361891 50.4322798,61.7054875 C49.5352189,56.0629645 44.7012309,51.2800335 38.363009,49.7348417 C37.3471163,50.2026961 35.2175786,51.353689 34.6382336,51.6542612 C33.324234,52.3359824 32.3366375,52.7795124 31.3320709,53.112922 C29.8260938,53.6127467 28.3360289,53.8342275 26.5000007,53.8342275 C24.6659923,53.8342275 23.1178918,53.6032621 21.5537852,53.0979467 C19.784352,52.5262965 19.4619964,52.3699257 14.568072,49.7173946 C14.3158727,49.6678901 14.2461284,49.6545236 14.1730807,49.6414856 Z M37.8662582,49.5787377 C37.863221,49.5775586 37.8602576,49.5764013 37.8573701,49.5752671 C37.8672723,49.5787528 37.8791308,49.5823954 37.8927106,49.5860261 L37.8662582,49.5787377 Z M15.4429779,47.234227 C20.5066572,49.9794424 22.4842349,51.2342275 26.5000007,51.2342275 C30.5157666,51.2342275 32.0960348,50.043826 37.3793198,47.234227 C37.7082794,47.0644144 37.7439414,47.025445 38.1408929,47.0191405 C38.5378445,47.012836 38.7680394,47.1574356 38.9788258,47.2088231 C46.148217,48.9566453 51.9102452,54.44249 53.0000319,61.2972605 C53.0743392,61.7646543 53.0743392,68.4103296 53.0000319,81.2342866 C53.0000348,85.1002799 49.8660304,88.234289 46.0000371,88.2342918 L42.0806929,88.2342918 C41.5420954,88.2342918 36.3578248,86.821198 26.5278812,83.9950104 C16.6073587,86.821198 11.2544797,88.2342918 10.4692444,88.2342918 C9.68400909,88.2342918 8.52759429,88.2342901 7,88.2342866 C3.13400675,88.2342866 0,85.1002799 0,81.2342866 L0,61.2972605 C0,55.6171557 7,48.7361442 13.3226336,47.0644144 C13.9948831,46.886669 14.7418522,47.1211996 15.4429779,47.234227 Z" id="Rectangle-15-Copy" fill="#FFFFFF" fill-rule="nonzero"></path>
                    <path d="M12.1092478,11.0627479 C15.3176758,7.15545189 19.6576857,6.2654161 21.1035924,5.70170782 C23.1341421,4.84848633 21.3069409,1.73698516 22.4509521,0.95116357 C23.5868223,0.20103845 29.6487879,1.71083387 33.182557,3.86480518 C36.716326,6.0187765 41.8976214,9.21311932 43.5735454,18.7717999 C43.8554377,20.3795808 43.6392094,21.8047461 42.9248604,23.0472959 C42.1062018,24.2691821 41.2441009,25.0252768 40.3385576,25.31558 C38.9802426,25.7510349 32.509503,18.5219428 31.047436,18.5219428 C29.5853689,18.5219428 34.8008815,24.8904379 33.182557,24.7477394 C24.2610177,24.6979766 17.1283496,17.132303 15.6808751,17.6488381 C14.2334006,18.1653733 13.4421946,25.5705622 12.5705114,25.5705622 C11.6988283,25.5705622 9.08605005,24.3238769 9.02221775,22.316203 C9.17277596,17.1712615 10.2865701,13.2824459 12.1092478,11.0627479 Z" id="Path-2" fill="url(#linearGradient-1)"></path>
                    <path d="M42.6338706,24.9107402 C41.8882518,24.4014996 41.4113915,23.5816583 41.3709102,22.638353 C41.2662176,20.1987739 40.8800597,17.8484011 40.2325515,15.6598464 C38.3920758,9.43910433 30.9103689,4.16835119 24.679761,3.42984994 C24.7343392,5.71258737 23.9556529,7.47223955 21.5830767,8.25127938 C16.0806951,10.0579966 14.1006787,11.5465029 12.5105162,15.8275321 C11.8550101,17.5922833 11.6290582,19.5538698 11.6031612,22.8665645 C11.5831018,23.8518256 11.1128,24.7874403 10.191183,25.3138004 C10.2147055,25.7610678 10.2521221,26.1531496 10.3099462,26.5678027 C10.527821,28.1301699 10.9608545,28.9869969 11.4596363,29.2121938 L12.620638,29.7363786 L12.917942,30.9750493 C15.0069915,39.6787491 20.7035112,45.4 26.5,45.4 C32.4971984,45.4 37.8557829,39.9638627 39.7822291,31.0336003 L40.0936132,29.5901437 L41.4928318,29.1182178 C42.2173459,28.8738551 42.6717637,27.4385949 42.8058765,25.0217043 C42.7501927,24.9880079 42.6931469,24.9512246 42.6338706,24.9107402 Z M26.5,48 C19.4722306,48 12.7724635,41.5090865 10.3897457,31.5818633 C7.55524569,30.3021047 7.55524569,25.7778431 7.55524569,23.4047165 C8.260757,22.8234947 8.99176872,23.3996661 9.00369991,22.8136407 C9.02551121,20.0011556 9.16989217,17.3541575 10.0732228,14.9222142 C12.2709504,9.00550017 15.8877053,7.38479269 20.7719677,5.78103603 C23.6064356,4.85033321 20.5260483,0.741448694 23.2298389,0.741448694 C29.7155651,0.741448694 40.1356756,6.16795008 42.7257219,14.9222142 C43.4266563,17.2913475 43.8536389,19.8498986 43.9685194,22.5268786 C43.9894298,23.0141381 44.8580679,22.7657738 45.4475419,23.4047165 C45.4475419,25.5403281 45.4475419,30.5282819 42.3237655,31.5818633 C40.1101507,41.8433288 33.6811645,48 26.5,48 Z M32.7264763,23.0489538 C32.7226245,23.0488852 32.7187715,23.0488499 32.7149175,23.0488478 C32.7187445,23.048952 32.7226107,23.0489537 32.7264763,23.0489538 Z" id="Combined-Shape" fill="#FFFFFF" fill-rule="nonzero"></path>
                    <path d="M20.998506,40.2697773 C20.5219136,39.7328035 20.5708624,38.9111458 21.1078362,38.4345534 C21.64481,37.957961 22.4664677,38.0069097 22.9430602,38.5438835 C24.0257457,39.7637388 25.1897727,40.3366123 26.501498,40.3366123 C27.8132232,40.3366123 28.9772502,39.7637388 30.0599358,38.5438835 C30.5365282,38.0069097 31.3581859,37.957961 31.8951597,38.4345534 C32.4321335,38.9111458 32.4810823,39.7328035 32.0044899,40.2697773 C30.4484443,42.0229645 28.5919947,42.9366123 26.501498,42.9366123 C24.4110012,42.9366123 22.5545516,42.0229645 20.998506,40.2697773 Z" id="Path-23" fill="#FFFFFF"></path>
                    <path d="M19,31.3 C18.2820298,31.3 17.7,30.7179702 17.7,30 C17.7,29.2820298 18.2820298,28.7 19,28.7 L22,28.7 C22.7179702,28.7 23.3,29.2820298 23.3,30 C23.3,30.7179702 22.7179702,31.3 22,31.3 L19,31.3 Z" id="Path-24" fill="#FFFFFF"></path>
                    <path d="M31,31.3 C30.2820298,31.3 29.7,30.7179702 29.7,30 C29.7,29.2820298 30.2820298,28.7 31,28.7 L34,28.7 C34.7179702,28.7 35.3,29.2820298 35.3,30 C35.3,30.7179702 34.7179702,31.3 34,31.3 L31,31.3 Z" id="Path-24-Copy" fill="#FFFFFF"></path>
                </g>
            </g>
        </g>
    </g>
</svg>