<?xml version="1.0" encoding="UTF-8"?>
<svg width="112px" height="112px" viewBox="0 0 112 112" version="1.1" xmlns="http://www.w3.org/2000/svg" xmlns:xlink="http://www.w3.org/1999/xlink">
    <!-- Generator: Sketch 49.3 (51167) - http://www.bohemiancoding.com/sketch -->
    <title>Illustration_Easy_Login</title>
    <desc>Created with Sketch.</desc>
    <defs>
        <linearGradient x1="0%" y1="0%" x2="97.8356186%" y2="97.8356186%" id="linearGradient-1">
            <stop stop-color="#E7AC5F" offset="0%"></stop>
            <stop stop-color="#E76536" offset="100%"></stop>
        </linearGradient>
    </defs>
    <g id="Symbols" stroke="none" stroke-width="1" fill="none" fill-rule="evenodd">
        <g id="Illustration/112/EasyLogin">
            <rect id="Illustration_Easy_Login" x="0" y="0" width="112" height="112"></rect>
            <g id="EasyLogin" transform="translate(8.000000, 15.000000)">
                <path d="M6.6,35.3142844 C6.6,36.0322546 6.01797017,36.6142844 5.3,36.6142844 C4.58202983,36.6142844 4,36.0322546 4,35.3142844 L4,34.5402151 C4,33.8222449 4.58202983,33.2402151 5.3,33.2402151 C6.01797017,33.2402151 6.6,33.8222449 6.6,34.5402151 L6.6,35.3142844 Z M6.60000672,29.8999321 C6.60000583,30.6179023 6.01797528,31.1999314 5.3000051,31.1999305 C4.58203493,31.1999296 4.00000583,30.617899 4.00000672,29.8999289 L4.00003202,9.5020888 L4.00695734,9.36808339 C4.47773704,4.82538637 6.30222384,1.68689673 9.49915804,0.131332714 C10.1447583,-0.182803405 10.9227783,0.0859013562 11.2369144,0.731501597 C11.5510506,1.37710184 11.2823458,2.15512188 10.6367456,2.469258 C8.34596905,3.58390387 6.99426111,5.89242684 6.60003194,9.57039722 L6.60000672,29.8999321 Z" id="Path-11" fill="url(#linearGradient-1)" fill-rule="nonzero"></path>
                <path d="M58.2,61.2 L58.2,61.6 C58.2,66.0493371 58.7694907,68.3203434 59.6324903,69.402139 L60.6142806,70.4235529 L61.6,70.4235529 L61.6,73.0235529 L34.6,73.0235529 C33.4954305,73.0235529 32.6,73.9189834 32.6,75.0235529 L30,75.0235529 C30,72.4830431 32.0594902,70.4235529 34.6,70.4235529 L35.2375966,70.4235529 L36.787889,69.1590815 C37.0049211,68.9481444 37.3108119,68.2401262 37.5504902,67.0417343 C37.8457463,65.5654542 38,64.1279387 38,61.6 L38,61.2 L15.6,61.2 C13.0594902,61.2 11,59.1405098 11,56.6 L11,9.6 C11,7.05949015 13.0594902,5 15.6,5 L80.6,5 C83.1405098,5 85.2,7.05949015 85.2,9.6 L85.2,56.6 C85.2,59.1405098 83.1405098,61.2 80.6,61.2 L58.2,61.2 Z" id="Combined-Shape" fill="url(#linearGradient-1)" fill-rule="nonzero"></path>
                <path d="M45.5,7.5 C45.2238576,7.5 45,7.27614237 45,7 C45,6.72385763 45.2238576,6.5 45.5,6.5 C45.7761424,6.5 46,6.72385763 46,7 C46,7.27614237 45.7761424,7.5 45.5,7.5 Z M47.5,6.5 L50.5,6.5 C50.7761424,6.5 51,6.72385763 51,7 C51,7.27614237 50.7761424,7.5 50.5,7.5 L47.5,7.5 C47.2238576,7.5 47,7.27614237 47,7 C47,6.72385763 47.2238576,6.5 47.5,6.5 Z" id="Combined-Shape" fill="#FFFFFF"></path>
                <path d="M12.6,63 L20.6,63 C24.2450793,63 27.2,65.9549207 27.2,69.6 L27.2,77.2 L6,77.2 L6,69.6 C6,65.9549207 8.95492065,63 12.6,63 Z" id="Rectangle-11" fill="url(#linearGradient-1)" fill-rule="nonzero"></path>
                <rect id="Rectangle" fill="#FFFFFF" x="14" y="8.99999962" width="68.1999969" height="49.2000008" rx="2"></rect>
                <g id="ic_avatar_24px" transform="translate(43.000000, 19.000000)" fill="#EDA469" fill-rule="nonzero">
                    <path d="M9,3 C9,4.66 7.66,6 6,6 C4.34,6 3,4.66 3,3 C3,1.34 4.34,0 6,0 C7.66,0 9,1.34 9,3 Z M0,11 C0,9 4,7.9 6,7.9 C8,7.9 12,9 12,11 C12,11.5522847 11.5522847,12 11,12 L1,12 C0.44771525,12 6.76353751e-17,11.5522847 0,11 Z"></path>
                </g>
                <path d="M88.6,52.6 L88.6,64.6 L89.6,64.6 C91.809139,64.6 93.0283452,62.809139 93.0283452,60.6 L93.0283452,56.6 C93.0283452,54.390861 91.809139,52.6 89.6,52.6 L88.6,52.6 Z M86,50 L89.6,50 C93.2450793,50 95.6283452,52.9549207 95.6283452,56.6 L95.6283452,60.6 C95.6283452,64.2450793 93.2450793,67.2 89.6,67.2 L86,67.2 L86,50 Z" id="Rectangle-10" fill="url(#linearGradient-1)" fill-rule="nonzero"></path>
                <path d="M65,44 L87.2,44 C88.3045695,44 89.2,44.8954305 89.2,46 L89.2,77.2 L63,77.2 L63,46 C63,44.8954305 63.8954305,44 65,44 Z" id="Rectangle-9" fill="url(#linearGradient-1)" fill-rule="nonzero"></path>
                <path d="M81,54.3 C81,53.5820298 81.5820298,53 82.3,53 C83.0179702,53 83.6,53.5820298 83.6,54.3 L83.6,67.4142166 C83.6,68.1321867 83.0179702,68.7142166 82.3,68.7142166 C81.5820298,68.7142166 81,68.1321867 81,67.4142166 L81,54.3 Z M81,71.2137476 C81,70.4957775 81.5820298,69.9137476 82.3,69.9137476 C83.0179702,69.9137476 83.6,70.4957775 83.6,71.2137476 L83.6,71.7137476 C83.6,72.4317178 83.0179702,73.0137476 82.3,73.0137476 C81.5820298,73.0137476 81,72.4317178 81,71.7137476 L81,71.2137476 Z" id="Path-7" fill="#FFFFFF" fill-rule="nonzero"></path>
                <path d="M8.3,72.6 C7.58202983,72.6 7,72.0179702 7,71.3 C7,70.5820298 7.58202983,70 8.3,70 L15.5354441,70 C16.2534143,70 16.8354441,70.5820298 16.8354441,71.3 C16.8354441,72.0179702 16.2534143,72.6 15.5354441,72.6 L8.3,72.6 Z" id="Path-9" fill="#FFFFFF" fill-rule="nonzero"></path>
                <path d="M1.3,77.6 C0.582029825,77.6 0,77.0179702 0,76.3 C0,75.5820298 0.582029825,75 1.3,75 L95.3770205,75 C96.0949906,75 96.6770205,75.5820298 96.6770205,76.3 C96.6770205,77.0179702 96.0949906,77.6 95.3770205,77.6 L1.3,77.6 Z" id="Path-8" fill="url(#linearGradient-1)" fill-rule="nonzero"></path>
                <path d="M12.3,82.6 C11.5820298,82.6 11,82.0179702 11,81.3 C11,80.5820298 11.5820298,80 12.3,80 L77.5920376,80 C78.3100078,80 78.8920376,80.5820298 78.8920376,81.3 C78.8920376,82.0179702 78.3100078,82.6 77.5920376,82.6 L12.3,82.6 Z M81.6526386,82.6 C80.9346684,82.6 80.3526386,82.0179702 80.3526386,81.3 C80.3526386,80.5820298 80.9346684,80 81.6526386,80 L82.1317753,80 C82.8497455,80 83.4317753,80.5820298 83.4317753,81.3 C83.4317753,82.0179702 82.8497455,82.6 82.1317753,82.6 L81.6526386,82.6 Z" id="Path-8-Copy" fill="url(#linearGradient-1)" fill-rule="nonzero"></path>
                <path d="M24.833206,70 C25.5511761,70 26.133206,70.5820298 26.133206,71.3 C26.133206,72.0179702 25.5511761,72.6 24.833206,72.6 L21.3,72.6 C20.5820298,72.6 20,72.0179702 20,71.3 C20,70.5820298 20.5820298,70 21.3,70 L24.833206,70 Z" id="Path-10" fill="#FFFFFF" fill-rule="nonzero"></path>
                <path d="M39,44 L59,44 C59.5522847,44 60,44.4477153 60,45 L60,45.5999999 C60,46.1522847 59.5522847,46.5999999 59,46.5999999 L39,46.5999999 C38.4477153,46.5999999 38,46.1522847 38,45.5999999 L38,45 C38,44.4477153 38.4477153,44 39,44 Z" id="Rectangle-13-Copy-2" fill="url(#linearGradient-1)"></path>
                <path d="M39,35 L59,35 C59.5522847,35 60,35.4477153 60,36 L60,36.5999999 C60,37.1522847 59.5522847,37.5999999 59,37.5999999 L39,37.5999999 C38.4477153,37.5999999 38,37.1522847 38,36.5999999 L38,36 C38,35.4477153 38.4477153,35 39,35 Z" id="Rectangle-13" fill="#EDA469"></path>
                <path d="M39,39 L59,39 C59.5522847,39 60,39.4477153 60,40 L60,40.5999999 C60,41.1522847 59.5522847,41.5999999 59,41.5999999 L39,41.5999999 C38.4477153,41.5999999 38,41.1522847 38,40.5999999 L38,40 C38,39.4477153 38.4477153,39 39,39 Z" id="Rectangle-13-Copy" fill="#EDA469"></path>
            </g>
        </g>
    </g>
</svg>