<?xml version="1.0" encoding="UTF-8"?>
<svg width="112px" height="112px" viewBox="0 0 112 112" version="1.1" xmlns="http://www.w3.org/2000/svg" xmlns:xlink="http://www.w3.org/1999/xlink">
    <!-- Generator: Sketch 49.3 (51167) - http://www.bohemiancoding.com/sketch -->
    <title>Illustration_Modarate_Security</title>
    <desc>Created with Sketch.</desc>
    <defs>
        <linearGradient x1="0%" y1="0%" x2="97.8356186%" y2="97.8356186%" id="linearGradient-1">
            <stop stop-color="#E7AC5F" offset="0%"></stop>
            <stop stop-color="#E76536" offset="100%"></stop>
        </linearGradient>
    </defs>
    <g id="Symbols" stroke="none" stroke-width="1" fill="none" fill-rule="evenodd">
        <g id="Illustration/112/ModarateSecurity">
            <rect id="Illustration_Modarate_Security" x="0" y="0" width="112" height="112"></rect>
            <g id="ModarateSecurity" transform="translate(4.000000, 11.000000)">
                <path d="M6.50217108,73.5137858 L6.50217108,15.5502055 C6.50217108,13.3410665 8.29303208,11.5502055 10.5021711,11.5502055 L28.0073734,11.5502055 C28.9608701,11.5502055 29.8830052,11.890812 30.6075616,12.5106297 L38.3676328,19.1489394 L68.3123351,19.1489394 C70.5214741,19.1489394 72.3123351,20.9398004 72.3123351,23.1489394 L72.3123351,25.6002676 L12.4370394,25.6002676 L12.4370394,68.9852013 C11.7025937,71.2320494 11.0538126,72.5703156 10.4906962,73 C9.92757977,73.4296844 8.59807139,73.6009463 6.50217108,73.5137858 Z" id="Path-12" fill="#FFFFFF"></path>
                <path d="M7.0020001,5.39999962 C3.3570001,5.39999962 0.400000095,8.35599962 0.400000095,12.0009996 L0.400000095,68.0009996 C0.400000095,71.6479996 3.3570001,74.6009996 7.0020001,74.6009996 C7.0020001,74.6009996 8.6220001,74.6009996 8.6220001,74.6009996 L7.0020001,74.6009996 C8.2170001,74.6009996 8.6220001,74.6009996 8.6220001,74.6009996 L68.0020001,74.6009996 C71.6470001,74.6009996 74.6020001,71.6469996 74.6020001,68.0009996 L74.6020001,24.0009996 L73.0020001,24.0009996 L71.7820001,24.0009996 L11.0020001,24.0009996 L11.0020001,68.0009996 C11.0020001,70.2099996 9.2110001,72.0009996 7.0020001,72.0009996 C4.7930001,72.0009996 3.0020001,70.2099996 3.0020001,68.0009996 L3.0020001,12.0009996 C3.0020001,9.79199962 4.7930001,8.00099962 7.0020001,8.00099962 L25.1710001,8.00099962 L35.0040001,16.0009996 L68.0020001,16.0009996 C70.2110001,16.0009996 72.0020001,17.7919996 72.0020001,20.0009996 C72.3310001,20.9879996 72.9670001,20.9879996 73.3920001,20.9879996 C74.0280001,20.9879996 74.6020001,20.4729996 74.6020001,20.0009996 C74.6020001,16.3559996 71.6470001,13.4009996 68.0020001,13.4009996 L35.9280001,13.4009996 L27.1980001,6.29899962 C26.4850001,5.71799962 25.5920001,5.39999962 24.6740001,5.39999962 L7.0020001,5.39999962 Z" id="Clip-2" fill="url(#linearGradient-1)"></path>
                <path d="M24.5243522,34.5205039 C23.806382,34.5205039 23.2243522,33.938474 23.2243522,33.2205039 C23.2243522,32.5025337 23.806382,31.9205039 24.5243522,31.9205039 L26.6615913,31.9205039 C27.3795615,31.9205039 27.9615913,32.5025337 27.9615913,33.2205039 C27.9615913,33.938474 27.3795615,34.5205039 26.6615913,34.5205039 L24.5243522,34.5205039 Z" id="Path-13" fill="#FFFFFF" fill-rule="nonzero"></path>
                <path d="M32.5243522,34.5205039 C31.806382,34.5205039 31.2243522,33.938474 31.2243522,33.2205039 C31.2243522,32.5025337 31.806382,31.9205039 32.5243522,31.9205039 L34.6615913,31.9205039 C35.3795615,31.9205039 35.9615913,32.5025337 35.9615913,33.2205039 C35.9615913,33.938474 35.3795615,34.5205039 34.6615913,34.5205039 L32.5243522,34.5205039 Z" id="Path-13-Copy" fill="#FFFFFF" fill-rule="nonzero"></path>
                <path d="M40.5243522,34.5205039 C39.806382,34.5205039 39.2243522,33.938474 39.2243522,33.2205039 C39.2243522,32.5025337 39.806382,31.9205039 40.5243522,31.9205039 L42.6615913,31.9205039 C43.3795615,31.9205039 43.9615913,32.5025337 43.9615913,33.2205039 C43.9615913,33.938474 43.3795615,34.5205039 42.6615913,34.5205039 L40.5243522,34.5205039 Z" id="Path-13-Copy-2" fill="#FFFFFF" fill-rule="nonzero"></path>
                <path d="M48.5243522,34.5205039 C47.806382,34.5205039 47.2243522,33.938474 47.2243522,33.2205039 C47.2243522,32.5025337 47.806382,31.9205039 48.5243522,31.9205039 L50.6615913,31.9205039 C51.3795615,31.9205039 51.9615913,32.5025337 51.9615913,33.2205039 C51.9615913,33.938474 51.3795615,34.5205039 50.6615913,34.5205039 L48.5243522,34.5205039 Z" id="Path-13-Copy-3" fill="#FFFFFF" fill-rule="nonzero"></path>
                <path d="M56.5243522,34.5205039 C55.806382,34.5205039 55.2243522,33.938474 55.2243522,33.2205039 C55.2243522,32.5025337 55.806382,31.9205039 56.5243522,31.9205039 L58.6615913,31.9205039 C59.3795615,31.9205039 59.9615913,32.5025337 59.9615913,33.2205039 C59.9615913,33.938474 59.3795615,34.5205039 58.6615913,34.5205039 L56.5243522,34.5205039 Z" id="Path-13-Copy-4" fill="#FFFFFF" fill-rule="nonzero"></path>
                <path d="M61.0266859,8.38752223 C61.744656,8.38752223 62.3266859,8.96955205 62.3266859,9.68752223 C62.3266859,10.4054924 61.744656,10.9875222 61.0266859,10.9875222 L37.3726719,10.9875222 L27.3095492,3.24940701 C26.8376295,2.88652071 26.259008,2.68977426 25.6636974,2.68977426 L10.9396166,2.68977426 C10.2216464,2.68977426 9.63961655,2.10774443 9.63961655,1.38977426 C9.63961655,0.671804082 10.2216464,0.0897742566 10.9396166,0.0897742566 L25.6636974,0.0897742566 C26.8322701,0.0897742566 27.9680825,0.475980265 28.8944435,1.18831262 L38.2567401,8.38752223 L61.0266859,8.38752223 Z M66.5083535,10.9875222 C65.7903833,10.9875222 65.2083535,10.4054924 65.2083535,9.68752223 C65.2083535,8.96955205 65.7903833,8.38752223 66.5083535,8.38752223 L67.3200139,8.38752223 C68.0379841,8.38752223 68.6200139,8.96955205 68.6200139,9.68752223 C68.6200139,10.4054924 68.0379841,10.9875222 67.3200139,10.9875222 L66.5083535,10.9875222 Z" id="Path-14" fill="url(#linearGradient-1)" fill-rule="nonzero"></path>
                <g id="Group-6" transform="translate(33.000000, 40.000000)">
                    <path d="M51.4548523,2.08866026 C54.8304449,7.44000589 57,14.264408 57,21.5 C57,37.7924001 45.0784622,51 35,51 C24.9215378,51 13,37.7924001 13,21.5 C13,14.264408 15.1695551,7.44000589 18.5451477,2.08866026 C20.5051749,3.89601623 23.1236628,5 26,5 C29.7203155,5 33.0092652,3.15310311 35,0.326158269 C36.9907348,3.15310311 40.2796845,5 44,5 C46.8763372,5 49.4948251,3.89601623 51.4548523,2.08866026 Z" id="Combined-Shape" fill="url(#linearGradient-1)"></path>
                    <path d="M33.2857143,28.6150679 C31.9343158,27.9730885 31,26.5956548 31,25 C31,22.790861 32.790861,21 35,21 C37.209139,21 39,22.790861 39,25 C39,26.5956548 38.0656842,27.9730885 36.7142857,28.6150679 L36.7142857,33 C36.7142857,33.9467739 35.9467739,34.7142857 35,34.7142857 C34.0532261,34.7142857 33.2857143,33.9467739 33.2857143,33 L33.2857143,28.6150679 Z" id="Combined-Shape" fill="#FFFFFF"></path>
                    <path d="M10.689676,5.23695926 C11.1110918,4.65567626 11.9239397,4.52607826 12.5052227,4.94749402 C13.0865057,5.36890978 13.2161037,6.18175774 12.794688,6.76304074 C12.6510061,6.96122936 12.5104054,7.16804623 12.3730244,7.38327869 C11.9867339,7.98847351 11.1829762,8.16593046 10.5777813,7.77963989 C9.97258652,7.39334932 9.79512957,6.58959161 10.1814201,5.98439679 C10.3461145,5.72637288 10.5155518,5.47713875 10.689676,5.23695926 Z M8.35852583,9.69048307 C8.61207809,9.01877448 9.36215021,8.67979181 10.0338588,8.93334408 C10.7055674,9.18689634 11.04455,9.93696846 10.7909978,10.608677 C7.43975167,19.4867707 8.58098345,32.9625959 13.6870419,40.2543173 C14.0988711,40.8424311 13.9559641,41.6530451 13.3678503,42.0648743 C12.7797364,42.4767035 11.9691224,42.3337965 11.5572932,41.7456827 C5.93412992,33.7155082 4.71659303,19.3386616 8.35852583,9.69048307 Z" id="Path-15" fill="#FFFFFF" fill-rule="nonzero"></path>
                    <path d="M59.202552,5.23695926 C64.3440367,12.3289048 64.9295313,27.0475512 60.5564997,37.2647433 C60.273992,37.9247968 59.5098953,38.2308581 58.8498418,37.9483505 C58.1897883,37.6658429 57.8837269,36.9017461 58.1662346,36.2416926 C62.2032081,26.8096698 61.6558857,13.0506291 57.0975401,6.76304074 C56.6761243,6.18175774 56.8057223,5.36890978 57.3870053,4.94749402 C57.9682883,4.52607826 58.7811363,4.65567626 59.202552,5.23695926 Z M58.6756826,40.8759598 C58.4879698,41.1734679 58.295271,41.4634521 58.0976378,41.7456827 C57.6858087,42.3337965 56.8751947,42.4767035 56.2870808,42.0648743 C55.698967,41.6530451 55.55606,40.8424311 55.9678892,40.2543173 C56.1414576,40.0064524 56.3111191,39.7511361 56.4767871,39.488567 C56.859905,38.8813588 57.662723,38.6996977 58.2699312,39.0828156 C58.8771394,39.4659336 59.0588005,40.2687515 58.6756826,40.8759598 Z" id="Path-15-Copy" fill="#FFFFFF" fill-rule="nonzero"></path>
                    <path d="M6.09074128,1.20589876 C6.52931129,0.637446892 7.34566381,0.532156845 7.91411568,0.970726852 C8.48256754,1.40929686 8.58785759,2.22564938 8.14928758,2.79410124 C0.89344944,12.1987451 1.03553741,33.4787506 9.04239251,44.2232002 C9.47140717,44.7988977 9.35249724,45.6133779 8.77679975,46.0423925 C8.20110227,46.4714072 7.38662215,46.3524972 6.95760749,45.7767998 C-1.73647389,34.1101569 -1.88713348,11.5464093 6.09074128,1.20589876 Z" id="Path-15-Copy-3" fill="#FFFFFF" fill-rule="nonzero"></path>
                    <path d="M64.1435303,1.20589876 C72.083277,11.4969897 71.7675684,34.0643712 63.0393671,45.7767998 C62.6103525,46.3524972 61.7958724,46.4714072 61.2201749,46.0423925 C60.6444774,45.6133779 60.5255674,44.7988977 60.9545821,44.2232002 C68.9999527,33.4270665 69.2977101,12.1428655 62.084984,2.79410124 C61.646414,2.22564938 61.751704,1.40929686 62.3201559,0.970726852 C62.8886077,0.532156845 63.7049603,0.637446892 64.1435303,1.20589876 Z" id="Path-15-Copy-2" fill="#FFFFFF" fill-rule="nonzero"></path>
                </g>
            </g>
        </g>
    </g>
</svg>