<?xml version="1.0" encoding="UTF-8"?>
<svg width="112px" height="112px" viewBox="0 0 112 112" version="1.1" xmlns="http://www.w3.org/2000/svg" xmlns:xlink="http://www.w3.org/1999/xlink">
    <!-- Generator: Sketch 49.3 (51167) - http://www.bohemiancoding.com/sketch -->
    <title>Illustration_Cloud_Wallet</title>
    <desc>Created with Sketch.</desc>
    <defs>
        <path d="M49.7417391,55 C50.270924,54.999999 54.6903443,54.999999 63,55 C72.9411255,55 81,46.9411255 81,37 C81,28.4336244 75.0159184,21.2649059 66.9999269,19.4460163 C66.9708101,8.70128753 58.2515523,0 47.5,0 C40.3025269,0 34.0158147,3.89943133 30.6372423,9.70091535 C29.3423206,9.24688629 27.949992,9 26.5,9 C19.5964406,9 14,14.5964406 14,21.5 C14,22.3734435 14.089585,23.2259633 14.260068,24.0488722 C6.27939367,24.6805418 0,31.3569554 0,39.5 C0,48.0604136 6.93958638,55 15.5,55 C17.2469329,55.0409108 22.3638309,55.0409113 30.8506939,55.0000015 C31.868807,55.0000015 48.9479617,55.0000015 49.7417391,55 Z" id="path-1"></path>
        <linearGradient x1="0%" y1="0%" x2="97.8356186%" y2="97.8356186%" id="linearGradient-3">
            <stop stop-color="#E7AC5F" offset="0%"></stop>
            <stop stop-color="#E76536" offset="100%"></stop>
        </linearGradient>
    </defs>
    <g id="Symbols" stroke="none" stroke-width="1" fill="none" fill-rule="evenodd">
        <g id="Illustration/112/CloudWallet">
            <rect id="Illustration_Cloud_Wallet" x="0" y="0" width="112" height="112"></rect>
            <g id="CloudWallet" transform="translate(3.000000, 8.000000)">
                <g id="Group-2" transform="translate(14.000000, 3.000000)">
                    <mask id="mask-2" fill="white">
                        <use xlink:href="#path-1"></use>
                    </mask>
                    <g id="Combined-Shape"></g>
                    <path d="M54.7417391,57 C55.270924,56.999999 59.6903443,56.999999 68,57 C77.9411255,57 86,48.9411255 86,39 C86,30.4336244 80.0159184,23.2649059 71.9999269,21.4460163 C71.9708101,10.7012875 63.2515523,2 52.5,2 C45.3025269,2 39.0158147,5.89943133 35.6372423,11.7009153 C34.3423206,11.2468863 32.949992,11 31.5,11 C24.5964406,11 19,16.5964406 19,23.5 C19,24.3734435 19.089585,25.2259633 19.260068,26.0488722 C11.2793937,26.6805418 5,33.3569554 5,41.5 C5,50.0604136 11.9395864,57 20.5,57 C22.2469329,57.0409108 27.3638309,57.0409113 35.8506939,57.0000015 C36.868807,57.0000015 53.9479617,57.0000015 54.7417391,57 Z" id="Combined-Shape-Copy-3" fill="url(#linearGradient-3)" mask="url(#mask-2)"></path>
                </g>
                <path d="M62.3417391,57.6 C62.870924,57.599999 67.2903443,57.599999 75.6,57.6 C85.5411255,57.6 93.6,49.5411255 93.6,39.6 C93.6,31.0336244 87.6159184,23.8649059 79.5999269,22.0460163 C79.5708101,11.3012875 70.8515523,2.6 60.1,2.6 C52.9025269,2.6 46.6158147,6.49943133 43.2372423,12.3009153 C41.9423206,11.8468863 40.549992,11.6 39.1,11.6 C32.1964406,11.6 26.6,17.1964406 26.6,24.1 C26.6,24.9734435 26.689585,25.8259633 26.860068,26.6488722 C18.8793937,27.2805418 12.6,33.9569554 12.6,42.1 C12.6,50.6604136 19.5395864,57.6 28.1,57.6 C29.8469329,57.6409108 34.9638309,57.6409113 43.4506939,57.6000015 C44.468807,57.6000015 61.5479617,57.6000015 62.3417391,57.6 Z M28.1,60.2 C18.103646,60.2 10,52.096354 10,42.1 C10,33.5548268 15.9387849,26.3504718 24,24.4880296 C23.9971055,24.3664752 24,24.2219032 24,24.1 C24,15.7605003 30.7605003,9 39.1,9 C40.1110098,9 41.109654,9.09974471 42.0847695,9.29544329 C46.1783396,3.5392907 52.8323992,0 60.1,0 C71.6116242,0 81.0709932,8.80277067 82.106049,20.0485593 C90.3994482,22.8022056 96.2,30.6124138 96.2,39.6 C96.2,50.9770658 86.9770658,60.2 75.5999997,60.2 C69.8540374,60.1999994 29.8217797,60.2410346 28.1,60.2 Z" id="Combined-Shape" fill="url(#linearGradient-3)" fill-rule="nonzero"></path>
                <path d="M62.3417391,57.6 C62.870924,57.599999 67.2903443,57.599999 75.6,57.6 C85.5411255,57.6 93.6,49.5411255 93.6,39.6 C93.6,31.0336244 87.6159184,23.8649059 79.5999269,22.0460163 C79.5708101,11.3012875 70.8515523,2.6 60.1,2.6 C52.9025269,2.6 46.6158147,6.49943133 43.2372423,12.3009153 C41.9423206,11.8468863 40.549992,11.6 39.1,11.6 C32.1964406,11.6 26.6,17.1964406 26.6,24.1 C26.6,24.9734435 26.689585,25.8259633 26.860068,26.6488722 C18.8793937,27.2805418 12.6,33.9569554 12.6,42.1 C12.6,50.6604136 19.5395864,57.6 28.1,57.6 C29.8469329,57.6409108 34.9638309,57.6409113 43.4506939,57.6000015 C44.468807,57.6000015 61.5479617,57.6000015 62.3417391,57.6 Z M28.1,60.2 C18.103646,60.2 10,52.096354 10,42.1 C10,33.5548268 15.9387849,26.3504718 24,24.4880296 C23.9971055,24.3664752 24,24.2219032 24,24.1 C24,15.7605003 30.7605003,9 39.1,9 C40.1110098,9 41.109654,9.09974471 42.0847695,9.29544329 C46.1783396,3.5392907 52.8323992,0 60.1,0 C71.6116242,0 81.0709932,8.80277067 82.106049,20.0485593 C90.3994482,22.8022056 96.2,30.6124138 96.2,39.6 C96.2,50.9770658 86.9770658,60.2 75.5999997,60.2 C69.8540374,60.1999994 29.8217797,60.2410346 28.1,60.2 Z" id="Combined-Shape-Copy" fill="url(#linearGradient-3)" fill-rule="nonzero"></path>
                <path d="M61.321551,50.5941849 C61.3857869,50.3406065 61.4359723,50.050143 61.4697647,49.7610238 C61.2777075,49.568066 61.1127591,49.3282276 60.9740938,49.0179112 L60.8179679,48.6685199 L60.8018556,48.286172 C60.5604645,42.5579189 58.5278384,40 53.3000821,40 C48.1146661,40 46.083189,42.5716069 45.8261439,48.291749 L45.7997636,48.8788013 L45.4600137,49.3582764 C45.3083384,49.5723294 45.1572942,49.7445736 45.0000271,49.8867424 C44.9996623,50.0810125 45.0047104,50.2231189 45.0166329,50.3676681 C45.0501472,50.7739979 45.0729789,50.8188241 45.0492511,50.8088817 L45.9170473,51.1725039 L46.1901949,52.0728826 C47.3246548,55.8124137 50.9569039,59 53.3000821,59 C55.6286758,59 59.2420625,55.8438092 60.3935725,52.1263687 L60.6463086,51.3104563 L61.1733605,51.0472589 C61.221739,50.9375981 61.2738341,50.7825525 61.321551,50.5941849 Z M62.3798998,50.3368738 C62.381851,50.3376999 62.3838023,50.3385214 62.3857542,50.339339 C62.3813778,50.3375079 62.3783158,50.3362267 62.3756204,50.3350976 L62.3798998,50.3368738 Z M53.3000821,61 C50.2456736,61 45.7379943,57.4716019 44.2763263,52.6534921 C42.7708005,52.0226498 43.0145896,50.0562161 43.0145896,48.9626901 C43.1251073,48.3740748 43.43797,48.7526252 43.8281601,48.2019659 C44.0861058,42.4617854 46.1980207,38 53.3000821,38 C60.4321291,38 62.5567127,42.4267662 62.8000821,48.2019659 C62.9807824,48.6063517 63.4838006,48.388025 63.5196918,48.9626901 C63.5196918,50.0797622 63.2332396,52.254114 62.3040174,52.7181459 C60.8218251,57.503134 56.3408119,61 53.3000821,61 Z M45.7941145,48.8658426 L44.1274133,47.7603531 C45.8986852,45.089879 47.351246,43.7238423 48.7773609,43.7238423 C49.6124928,43.7238423 50.2290861,43.9949677 51.4712371,44.7244979 C51.5006977,44.7418042 51.5006977,44.7418042 51.5300038,44.7590277 C52.5068837,45.3331591 52.9200257,45.5184701 53.2619292,45.5184701 C53.5250262,45.5184701 53.8993855,45.3791461 54.4529215,45.0676192 C54.5965818,44.986768 54.7326333,44.9065603 54.9702757,44.7638547 C56.3052952,43.9621675 56.8116089,43.7238423 57.6132591,43.7238423 C58.9176202,43.7238423 60.4442846,45.0406816 62.556326,47.6896938 L60.9925262,48.9365019 C59.2889786,46.79984 58.0415316,45.7238423 57.6132591,45.7238423 C57.3372905,45.7238423 56.963694,45.8996966 55.999905,46.4784577 C55.7470492,46.6302991 55.598384,46.7179431 55.4338335,46.8105512 C54.6038597,47.2776556 53.9567986,47.5184701 53.2619292,47.5184701 C52.4157972,47.5184701 51.8338442,47.2574405 50.5166243,46.4832846 C50.4874258,46.4661243 50.4874258,46.4661243 50.4583801,46.4490618 C49.5425211,45.9111668 49.1165077,45.7238423 48.7773609,45.7238423 C48.2889216,45.7238423 47.1970843,46.7506426 45.7941145,48.8658426 Z" id="Combined-Shape" fill="#FFFFFF" fill-rule="nonzero"></path>
                <path d="M60.0061202,77.9216337 C58.0354567,78.521861 55.8662067,78.891558 53.6593572,78.891558 C51.3414991,78.891558 49.0099637,78.4897831 46.8800874,77.8446683 C46.912639,77.7348521 46.9302538,77.6174743 46.9302538,77.4955162 L46.9302538,69.8955018 C46.9302538,69.2806466 46.4825386,68.7822079 45.9302538,68.7822079 C45.3779691,68.7822079 44.9302538,69.2806466 44.9302538,69.8955018 L44.9302538,77.1660256 C40.9099407,75.5771714 38,73.1921578 38,71.3350272 C38,68.3323122 42.9634215,61.0706129 46.8156474,61 C48.0888746,61 48.9580702,61.3320847 50.2375013,62.1155482 C50.3109438,62.1605208 50.4030357,62.2173626 50.5640498,62.3167432 C51.7917493,63.0724733 52.4903911,63.3366651 53.6593572,63.3366651 C54.8217848,63.3366651 55.4975966,63.0692939 56.5707615,62.3409143 C56.6005617,62.3206883 56.8918298,62.1216006 56.9797993,62.0623548 C58.072474,61.326458 58.8735966,61 60.0360687,61.0000214 C63.616759,61.0234365 68.5481897,68.459603 68.5481897,71.3350272 C68.5481897,73.2350285 65.817599,75.6566251 61.9302538,77.239302 L61.9302538,69.8955018 C61.9302538,69.2806466 61.4825386,68.7822079 60.9302538,68.7822079 C60.3779691,68.7822079 59.9302538,69.2806466 59.9302538,69.8955018 L59.9302538,77.4955162 C59.9302538,77.6464549 59.9572348,77.7903779 60.0061202,77.9216337 Z" id="Combined-Shape" fill="url(#linearGradient-3)"></path>
                <path d="M23.4387982,5.7428524 C24.0282772,5.33297964 24.8384119,5.47857925 25.2482847,6.06805825 C25.6581574,6.65753725 25.5125578,7.46767192 24.9230788,7.87754469 C20.2776809,11.107553 18.9790894,13.8638476 17.8282642,20.6738673 L17.6658709,21.6348307 L16.6979219,21.7483955 C14.1795284,22.0438665 10.6595307,24.4115479 7.85248139,27.921433 C4.57245353,32.0227222 2.62128923,37.1106789 2.62128923,42.4416412 C2.62128923,52.2478231 8.25024449,59.4869656 16.0043016,63.1637344 C16.6530355,63.4713469 16.9295691,64.2466188 16.6219566,64.8953528 C16.3143442,65.5440867 15.5390722,65.8206203 14.8903383,65.5130078 C6.30116166,61.4402474 0.0212892262,53.3639901 0.0212892262,42.4416412 C0.0212892262,31.5377588 8.08614684,20.9903629 15.4233848,19.3334087 C16.6586757,12.5283118 18.3228061,9.30007132 23.4387982,5.7428524 Z M28.7327727,6.58878042 C28.0320939,6.74540244 27.3371143,6.30435731 27.1804923,5.60367856 C27.0238703,4.90299981 27.4649154,4.20802022 28.1655941,4.0513982 C28.3120417,4.01866293 28.4596085,3.98717913 28.6082962,3.95695209 C29.3118749,3.81392002 29.9981885,4.26833285 30.1412206,4.97191156 C30.2842527,5.67549027 29.8298398,6.3618039 29.1262611,6.50483598 C28.9939816,6.53172738 28.86282,6.55971108 28.7327727,6.58878042 Z" id="Path-20" fill="#FFFFFF" fill-rule="nonzero"></path>
                <path d="M105.685562,40.3148809 C105.685562,51.1142844 98.9486965,60.8799898 90.4730835,64.7905976 C89.8211603,65.0913919 89.0488301,64.8067456 88.7480357,64.1548224 C88.4472414,63.5028991 88.7318877,62.7305689 89.3838109,62.4297746 C96.9685333,58.9302195 103.085562,50.0630245 103.085562,40.3148809 C103.085562,28.7521784 95.7282091,18.3013916 87.8913604,16.362519 L86.9035732,16.1181358 L86.9035732,15.1005668 C86.9035732,11.3761455 85.1777421,7.70117873 81.6844838,4.44757915 C81.1590999,3.95823982 81.1298801,3.13564415 81.6192194,2.6102603 C82.1085588,2.08487645 82.9311544,2.0556566 83.4565383,2.54499593 C87.1634764,5.99761567 89.1905128,9.9855275 89.4700665,14.1099711 C98.1318293,16.8933255 105.685562,28.0555118 105.685562,40.3148809 Z M85.7221793,63.528138 C86.4346534,63.4394711 87.0841065,63.9451667 87.1727734,64.6576408 C87.2614404,65.3701149 86.7557448,66.019568 86.0432707,66.108235 C85.8259116,66.1352852 85.6099452,66.1561832 85.3955327,66.1708637 C84.6792396,66.2199071 84.0588116,65.6789944 84.0097682,64.9627012 C83.9607247,64.246408 84.5016375,63.6259801 85.2179307,63.5769366 C85.3840638,63.5655618 85.5521926,63.5492928 85.7221793,63.528138 Z" id="Path-21" fill="#FFFFFF" fill-rule="nonzero"></path>
                <path d="M41,86.3 C40.2820298,86.3 39.7,85.7179702 39.7,85 C39.7,84.2820298 40.2820298,83.7 41,83.7 L65.5499992,83.7 C66.2679694,83.7 66.8499992,84.2820298 66.8499992,85 C66.8499992,85.7179702 66.2679694,86.3 65.5499992,86.3 L41,86.3 Z" id="Path-22" fill="#FFFFFF" fill-rule="nonzero"></path>
                <path d="M41,91.3 C40.2820298,91.3 39.7,90.7179702 39.7,90 C39.7,89.2820298 40.2820298,88.7 41,88.7 L53.5726889,88.7 C54.2906591,88.7 54.8726889,89.2820298 54.8726889,90 C54.8726889,90.7179702 54.2906591,91.3 53.5726889,91.3 L41,91.3 Z M59.3483182,91.3 C58.630348,91.3 58.0483182,90.7179702 58.0483182,90 C58.0483182,89.2820298 58.630348,88.7 59.3483182,88.7 L65.5499992,88.7 C66.2679694,88.7 66.8499992,89.2820298 66.8499992,90 C66.8499992,90.7179702 66.2679694,91.3 65.5499992,91.3 L59.3483182,91.3 Z" id="Path-22-Copy" fill="#FFFFFF" fill-rule="nonzero"></path>
                <path d="M41,96.3 C40.2820298,96.3 39.7,95.7179702 39.7,95 C39.7,94.2820298 40.2820298,93.7 41,93.7 L65.5499992,93.7 C66.2679694,93.7 66.8499992,94.2820298 66.8499992,95 C66.8499992,95.7179702 66.2679694,96.3 65.5499992,96.3 L41,96.3 Z" id="Path-22-Copy-2" fill="#FFFFFF" fill-rule="nonzero"></path>
            </g>
        </g>
    </g>
</svg>