<?xml version="1.0" encoding="UTF-8"?>
<svg width="112px" height="112px" viewBox="0 0 112 112" version="1.1" xmlns="http://www.w3.org/2000/svg" xmlns:xlink="http://www.w3.org/1999/xlink">
    <!-- Generator: Sketch 49.3 (51167) - http://www.bohemiancoding.com/sketch -->
    <title>Illustration_Local_Wallet</title>
    <desc>Created with Sketch.</desc>
    <defs>
        <linearGradient x1="0%" y1="0%" x2="97.8356186%" y2="97.8356186%" id="linearGradient-1">
            <stop stop-color="#E7AC5F" offset="0%"></stop>
            <stop stop-color="#E76536" offset="100%"></stop>
        </linearGradient>
        <linearGradient x1="97.8356186%" y1="-5.55111512e-15%" x2="1.11022302e-14%" y2="97.8356186%" id="linearGradient-2">
            <stop stop-color="#E7AC5F" offset="0%"></stop>
            <stop stop-color="#E76536" offset="100%"></stop>
        </linearGradient>
    </defs>
    <g id="Symbols" stroke="none" stroke-width="1" fill="none" fill-rule="evenodd">
        <g id="Illustration/112/LocalWallet">
            <rect id="Illustration_Local_Wallet" x="0" y="0" width="112" height="112"></rect>
            <g id="LocalWallet" transform="translate(10.000000, 4.000000)">
                <path d="M60.0708155,79.1810468 L60.0708155,79.5809306 C60.0708155,84.0289743 60.639084,88.298739 61.5002318,89.3802202 L61.798951,89.6915732 C62.233979,90.1449997 62.8351524,90.4013372 63.4635193,90.4013372 C65.9985774,90.4013372 68.0536481,92.4602287 68.0536481,95 L65.4570815,95 C65.4570815,93.8957516 64.5635726,93.0005814 63.4613734,93.0005814 L29.5364807,93.0005814 C28.4342815,93.0005814 27.5407725,93.8957516 27.5407725,95 L24.9463519,95 C24.9463519,92.4602287 27.0014226,90.4013372 29.5364807,90.4013372 C30.1492429,90.4013372 30.7358205,90.1528865 31.1621641,89.7127631 L31.7196747,89.1372333 C31.936241,88.9263575 32.2414754,87.2188358 32.4806394,86.0207923 C32.7752618,84.5449413 32.9291845,82.1081344 32.9291845,79.5809306 L32.9291845,79.1810468 L4.59012876,79.1810468 C2.05507064,79.1810468 0,77.1221554 0,74.582384 L0,18.5986628 C0,16.0588915 2.05507064,14 4.59012876,14 L88.4098712,14 C90.9449294,14 93,16.0588915 93,18.5986628 L93,74.582384 C93,77.1221554 90.9449294,79.1810468 88.4098712,79.1810468 L60.0708155,79.1810468 Z M35.7986828,79.981105 C35.4131271,85.5859284 35.0387573,89.0593392 34.6755733,90.4013372 L58.500494,90.4013372 C57.9516641,88.3324876 57.5311229,84.8590768 57.2388706,79.981105 L35.7986828,79.981105 Z" id="Combined-Shape" fill="url(#linearGradient-1)" fill-rule="nonzero"></path>
                <path d="M34.5,16.5 C34.2238576,16.5 34,16.2761424 34,16 C34,15.7238576 34.2238576,15.5 34.5,15.5 C34.7761424,15.5 35,15.7238576 35,16 C35,16.2761424 34.7761424,16.5 34.5,16.5 Z M36.5,15.5 L39.5,15.5 C39.7761424,15.5 40,15.7238576 40,16 C40,16.2761424 39.7761424,16.5 39.5,16.5 L36.5,16.5 C36.2238576,16.5 36,16.2761424 36,16 C36,15.7238576 36.2238576,15.5 36.5,15.5 Z" id="Combined-Shape" fill="#FFFFFF"></path>
                <path d="M5,17.9999996 L88,17.9999996 C89.1045695,17.9999996 90,18.8954301 90,19.9999996 L90,71.2000004 C90,72.3045699 89.1045695,73.2000004 88,73.2000004 L5,73.2000004 C3.8954305,73.2000004 3,72.3045699 3,71.2000004 L3,19.9999996 C3,18.8954301 3.8954305,17.9999996 5,17.9999996 Z" id="Rectangle"></path>
                <g id="Group" transform="translate(12.000000, 0.000000)">
                    <path d="M4,0 L65,0 C67.209139,-4.05812251e-16 69,1.790861 69,4 L69,72 L0,72 L0,4 C-2.705415e-16,1.790861 1.790861,4.05812251e-16 4,0 Z" id="Rectangle-14" fill="#FFFFFF"></path>
                    <g id="Group-2" transform="translate(17.000000, 16.000000)">
                        <path d="M4,0 L23,0 L35,12 L35,41 C35,43.209139 33.209139,45 31,45 L4,45 C1.790861,45 2.705415e-16,43.209139 0,41 L0,4 C-2.705415e-16,1.790861 1.790861,4.05812251e-16 4,0 Z" id="Rectangle-20" fill="#EDA469"></path>
                        <path d="M22.3616609,17.5207392 C23.3589951,19.1018186 24,21.1181192 24,23.2559078 C24,28.0695715 20.4777275,31.9718169 17.5,31.9718169 C14.5222725,31.9718169 11,28.0695715 11,23.2559078 C11,21.1181192 11.6410049,19.1018186 12.6383391,17.5207392 C13.217438,18.0547308 13.9910822,18.3809078 14.8409091,18.3809078 C15.9400932,18.3809078 16.9118283,17.8352337 17.5,17 C18.0881717,17.8352337 19.0599068,18.3809078 20.1590909,18.3809078 C21.0089178,18.3809078 21.782562,18.0547308 22.3616609,17.5207392 Z" id="Combined-Shape" fill="#FFFFFF"></path>
                        <path d="M16.8571429,24.8556505 C16.3503684,24.6149082 16,24.0983706 16,23.5 C16,22.6715729 16.6715729,22 17.5,22 C18.3284271,22 19,22.6715729 19,23.5 C19,24.0983706 18.6496316,24.6149082 18.1428571,24.8556505 L18.1428571,26.5 C18.1428571,26.8550402 17.8550402,27.1428571 17.5,27.1428571 C17.1449598,27.1428571 16.8571429,26.8550402 16.8571429,26.5 L16.8571429,24.8556505 Z" id="Combined-Shape" fill="url(#linearGradient-1)"></path>
                        <path d="M23,0 L35,12 L27,12 C24.790861,12 23,10.209139 23,8 L23,0 Z" id="Rectangle-20-Copy" fill="url(#linearGradient-2)"></path>
                    </g>
                    <path d="M7.5,9 C6.67157288,9 6,8.32842712 6,7.5 C6,6.67157288 6.67157288,6 7.5,6 C8.32842712,6 9,6.67157288 9,7.5 C9,8.32842712 8.32842712,9 7.5,9 Z M13.5,9 C12.6715729,9 12,8.32842712 12,7.5 C12,6.67157288 12.6715729,6 13.5,6 C14.3284271,6 15,6.67157288 15,7.5 C15,8.32842712 14.3284271,9 13.5,9 Z M19.5,9 C18.6715729,9 18,8.32842712 18,7.5 C18,6.67157288 18.6715729,6 19.5,6 C20.3284271,6 21,6.67157288 21,7.5 C21,8.32842712 20.3284271,9 19.5,9 Z" id="Combined-Shape" fill="url(#linearGradient-1)"></path>
                </g>
                <path d="M6.3,97.6 C5.58202983,97.6 5,97.0179702 5,96.3 C5,95.5820298 5.58202983,95 6.3,95 L82.5974594,95 C83.3154295,95 83.8974594,95.5820298 83.8974594,96.3 C83.8974594,97.0179702 83.3154295,97.6 82.5974594,97.6 L6.3,97.6 Z M86.3418611,97.6 C85.6238909,97.6 85.0418611,97.0179702 85.0418611,96.3 C85.0418611,95.5820298 85.6238909,95 86.3418611,95 L87.1182313,95 C87.8362015,95 88.4182313,95.5820298 88.4182313,96.3 C88.4182313,97.0179702 87.8362015,97.6 87.1182313,97.6 L86.3418611,97.6 Z" id="Path-16" fill="url(#linearGradient-1)" fill-rule="nonzero"></path>
                <path d="M75.1182313,102.6 L22.8207719,102.6 C22.1028018,102.6 21.5207719,102.01797 21.5207719,101.3 C21.5207719,100.58203 22.1028018,100 22.8207719,100 L75.1182313,100 C75.8362015,100 76.4182313,100.58203 76.4182313,101.3 C76.4182313,102.01797 75.8362015,102.6 75.1182313,102.6 Z M19.0763702,102.6 L18.3,102.6 C17.5820298,102.6 17,102.01797 17,101.3 C17,100.58203 17.5820298,100 18.3,100 L19.0763702,100 C19.7943404,100 20.3763702,100.58203 20.3763702,101.3 C20.3763702,102.01797 19.7943404,102.6 19.0763702,102.6 Z" id="Path-16-Copy" fill="url(#linearGradient-1)" fill-rule="nonzero"></path>
            </g>
        </g>
    </g>
</svg>