<?xml version="1.0" encoding="UTF-8"?>
<svg width="112px" height="112px" viewBox="0 0 112 112" version="1.1" xmlns="http://www.w3.org/2000/svg" xmlns:xlink="http://www.w3.org/1999/xlink">
    <!-- Generator: Sketch 49.3 (51167) - http://www.bohemiancoding.com/sketch -->
    <title>Illustration_Single_Account</title>
    <desc>Created with Sketch.</desc>
    <defs>
        <linearGradient x1="0%" y1="0%" x2="97.8356186%" y2="97.8356186%" id="linearGradient-1">
            <stop stop-color="#E7AC5F" offset="0%"></stop>
            <stop stop-color="#E76536" offset="100%"></stop>
        </linearGradient>
        <linearGradient x1="0%" y1="0%" x2="55.1234379%" y2="100%" id="linearGradient-2">
            <stop stop-color="#E7AC5F" offset="0%"></stop>
            <stop stop-color="#E76536" offset="100%"></stop>
        </linearGradient>
    </defs>
    <g id="Symbols" stroke="none" stroke-width="1" fill="none" fill-rule="evenodd">
        <g id="Illustration/112/SingleAccount">
            <rect id="Illustration_Single_Account" x="0" y="0" width="112" height="112"></rect>
            <g id="SingleAccount" transform="translate(0.000000, 1.000000)">
                <path d="M57.4048153,34.780319 C57.4393911,35.2410918 57.5376273,35.4207883 57.6165395,35.5106319 C57.5724672,35.4604544 57.5111208,35.402094 57.4377657,35.341351 C57.4304572,35.1635889 57.4195484,34.9766593 57.4048153,34.780319 Z M57.1732136,35.148933 C56.9735523,35.0211746 56.7736921,34.9293666 56.6204496,34.8884473 C56.5753466,34.8764038 56.6049127,34.877377 56.7175145,34.8450471 L56,32.3460127 C57.6023852,31.8859412 59.9305998,33.6938763 59.997526,34.5857654 C60.4506478,40.6242745 57.7319174,39.6890851 57.7319174,41.1123891 C57.7319174,48.5682332 50.8758566,56.866073 43.4200125,56.866073 C35.9641683,56.866073 29.0458263,48.5682332 29.0458263,41.1123891 C29.0458263,39.7981377 26.4104287,40.6242745 26.4104287,34.5857654 C26.4104287,33.131568 29.0252352,31.378337 30.8664115,32.3460127 L29.6568066,34.6475026 C29.6696524,34.6542541 29.4908223,34.6723509 29.2264665,34.8216367 C29.1448598,34.8677212 29.0721433,34.9188861 29.0139118,34.9676698 C29.0466751,36.7101099 29.3068754,37.4983587 29.6371458,37.8555537 C29.6838805,37.9060985 29.741854,37.9577603 29.8372395,38.0324195 C29.8011922,38.004205 30.2028083,38.3086483 30.3462415,38.4296253 C31.1418787,39.1006959 31.6458263,39.9522612 31.6458263,41.1123891 C31.6458263,47.4395797 37.6892397,54.266073 43.4200125,54.266073 C49.1373034,54.266073 55.1319174,47.4548564 55.1319174,41.1123891 C55.1319174,39.8961755 55.6586845,39.0290057 56.4984849,38.3328574 C56.4896822,38.3401543 57.0081269,37.9356291 57.0670261,37.8776988 C57.1509738,37.7951322 57.2099294,37.6961289 57.2848131,37.4283801 C57.4143804,36.965109 57.4764161,36.2814225 57.4377657,35.341351 C57.3607797,35.2776012 57.2705667,35.2112269 57.1732136,35.148933 Z M28.9329084,35.0436789 C28.9560759,35.0000057 29.0104287,34.8491195 29.0104287,34.5857654 C29.0104287,34.7179061 29.0116079,34.8451469 29.0139118,34.9676698 C28.9823621,34.9941007 28.9550643,35.0198326 28.9329084,35.0436789 Z M28.9329084,35.0436789 C28.9217788,35.0556576 28.9119467,35.0671604 28.9035248,35.078037 C28.906392,35.0743341 28.9093292,35.0702433 28.9123158,35.065756 L28.9329084,35.0436789 Z M28.9035248,35.078037 C28.9484039,35.0200771 29.0104287,34.8670928 29.0104287,34.5857654 C29.0104287,34.7179061 29.0116079,34.8451469 29.0139118,34.9676698 C28.9665138,35.0073776 28.9287125,35.045508 28.9035248,35.078037 Z M29.6371458,37.8555537 C29.6838805,37.9060985 29.741854,37.9577603 29.8372395,38.0324195 C29.8011922,38.004205 30.2028083,38.3086483 30.3462415,38.4296253 C31.1418787,39.1006959 31.6458263,39.9522612 31.6458263,41.1123891 C31.6458263,47.4395797 37.6892397,54.266073 43.4200125,54.266073 C49.1373034,54.266073 55.1319174,47.4548564 55.1319174,41.1123891 C55.1319174,39.8961755 55.6586845,39.0290057 56.4984849,38.3328574 C56.4896822,38.3401543 57.0081269,37.9356291 57.0670261,37.8776988 C57.1509738,37.7951322 57.2099294,37.6961289 57.2848131,37.4283801 C57.4143804,36.965109 57.4764161,36.2814225 57.4377657,35.341351 C57.3607797,35.2776012 57.2705667,35.2112269 57.1732136,35.148933 C56.9735523,35.0211746 56.7736921,34.9293666 56.6204496,34.8884473 C56.5753466,34.8764038 56.6049127,34.877377 56.7175145,34.8450471 L56,32.3460127 C57.6023852,31.8859412 59.9305998,33.6938763 59.997526,34.5857654 C60.4506478,40.6242745 57.7319174,39.6890851 57.7319174,41.1123891 C57.7319174,48.5682332 50.8758566,56.866073 43.4200125,56.866073 C35.9641683,56.866073 29.0458263,48.5682332 29.0458263,41.1123891 C29.0458263,39.7981377 26.4104287,40.6242745 26.4104287,34.5857654 C26.4104287,33.131568 29.0252352,31.378337 30.8664115,32.3460127 L29.6568066,34.6475026 C29.6696524,34.6542541 29.4908223,34.6723509 29.2264665,34.8216367 C29.1448598,34.8677212 29.0721433,34.9188861 29.0139118,34.9676698 C29.0466751,36.7101099 29.3068754,37.4983587 29.6371458,37.8555537 Z M57.4048153,34.780319 C57.4393911,35.2410918 57.5376273,35.4207883 57.6165395,35.5106319 C57.5724672,35.4604544 57.5111208,35.402094 57.4377657,35.341351 C57.4304572,35.1635889 57.4195484,34.9766593 57.4048153,34.780319 Z" id="Oval-2" fill="#FFFFFF" fill-rule="nonzero"></path>
                <path d="M32.724458,27.6685936 C34.7750641,25.8970827 36.9846145,26.4010962 42.2019406,28.4450467 C42.4299328,28.5343654 42.6674937,28.6282958 42.9448254,28.7386229 C46.2359439,30.0478845 47.2935536,30.4194692 47.7054839,30.4194692 C47.9500657,30.4194692 48.148335,30.320814 48.7269035,29.8547828 C48.7797943,29.8121798 48.8509292,29.7544214 48.988247,29.6429763 C49.1056568,29.5479761 49.1985251,29.4739782 49.2931944,29.4006139 C50.8388612,28.2027938 52.3563902,27.7471557 54.2683604,28.4606812 C54.5537948,28.5672021 54.8122845,28.6866491 55.0464892,28.8196875 C54.3787266,22.2351969 49.7857891,17.6 43.5,17.6 C37.3366385,17.6 32.7905226,22.0545032 31.9794,28.4243354 C32.2015049,28.1582001 32.4485249,27.9069711 32.724458,27.6685936 Z M47.7054839,33.0194692 C45.0514599,33.0194692 36.3873453,27.9400941 34.4241625,29.6360804 C31.8875816,31.8274231 33.3401222,36.8385304 30.6430911,36.8385304 C29.6097451,34.7616798 29.2498806,32.9771897 29.2498806,30.5 C29.2498806,21.9395864 34.9395864,15 43.5,15 C52.0604136,15 57.7303642,21.9395864 57.7303642,30.5 C57.7303642,32.8465469 56.9333254,34.8451106 56,36.8385304 C53.8086108,36.8385304 55.6742767,31.7605042 53.359309,30.8965847 C51.0443413,30.0326651 50.363375,33.0194692 47.7054839,33.0194692 Z" id="Oval" fill="#FFFFFF" fill-rule="nonzero"></path>
                <path d="M36.3999023,41.0998047 C35.6819322,41.0998047 35.0999023,40.5177749 35.0999023,39.7998047 C35.0999023,39.0818345 35.6819322,38.4998047 36.3999023,38.4998047 L39.9702148,38.4998047 C40.688185,38.4998047 41.2702148,39.0818345 41.2702148,39.7998047 C41.2702148,40.5177749 40.688185,41.0998047 39.9702148,41.0998047 L36.3999023,41.0998047 Z" id="Path-2" fill="url(#linearGradient-1)" fill-rule="nonzero"></path>
                <path d="M46.2001953,41.0998047 C45.4822251,41.0998047 44.9001953,40.5177749 44.9001953,39.7998047 C44.9001953,39.0818345 45.4822251,38.4998047 46.2001953,38.4998047 L49.7700195,38.4998047 C50.4879897,38.4998047 51.0700195,39.0818345 51.0700195,39.7998047 C51.0700195,40.5177749 50.4879897,41.0998047 49.7700195,41.0998047 L46.2001953,41.0998047 Z" id="Path-2-Copy" fill="url(#linearGradient-1)" fill-rule="nonzero"></path>
                <path d="M105.998381,44.3497333 C105.759516,43.8414355 105.384,43.1915956 105.33731,43.0545994 C105.269028,42.8746876 105.107069,42.1483563 104.889807,42.0968336 C104.672263,42.0483744 104.33339,41.5829988 104.344959,41.4743833 C104.357092,41.3604763 104.202751,40.866415 103.670318,40.2960444 L102.54507,40.4698292 L102.219459,40.5249725 C102.129732,40.3099695 101.865914,40.2656878 101.639623,40.4311176 C101.409946,40.5982183 100.378939,40.5249725 100.31376,40.3832153 C100.240963,40.2378377 99.8115181,39.414588 99.4407618,38.9667579 C99.0646445,38.5178139 97.7638938,37.6168624 97.6518769,37.6881587 C97.5404242,37.756113 97.2757596,38.0688699 97.3482743,38.2710618 C97.4284073,38.4710257 98.1312642,38.8266718 98.2734721,39.1204906 C98.4153978,39.411246 98.8140878,40.203582 99.0017232,40.085219 C99.1876656,39.968527 100.109478,40.2060885 100.299934,40.5068699 C100.493495,40.8062588 100.793712,41.8127623 100.626674,41.9854331 C100.461329,42.1547618 100.232781,43.2086106 99.9782738,43.411638 C99.724049,43.6143869 98.8022371,44.0299108 98.7751499,44.1897705 C98.7480627,44.3487947 98.0313801,44.8027518 97.4495692,45.0737335 C96.874248,45.3410947 95.0966494,45.5747573 94.8915201,45.1135592 C94.6878017,44.6518041 93.8884466,43.1790895 93.5859727,42.7151064 C93.2801129,42.2505663 92.3015871,40.8758841 92.2313297,40.5349985 C92.1596614,40.195227 91.7485565,39.8078317 91.7928553,40.0417728 C91.833204,40.2759924 91.8684738,41.1309912 92.0594951,41.307561 C92.2502343,41.4860803 92.8611075,42.2591998 93.079216,42.5655512 C93.2967602,42.8702316 93.6378899,44.4841464 94.0168287,44.7737877 C94.3954855,45.063986 95.0060765,46.4723668 95.2732806,46.4723668 C95.541049,46.4723668 96.3725702,46.3336732 96.5393258,46.1632304 C96.705235,45.9947372 97.5886734,46.2334128 97.6679599,46.5779188 C97.7472464,46.9196399 97.3539175,48.3817715 96.9481735,49.048782 C96.5365043,49.712729 95.2653802,51.5711679 95.0613796,51.7301921 C94.8573789,51.8881023 94.1974102,52.6472967 94.0687459,53.0764672 C93.9434675,53.5078656 93.5399809,55.2905522 93.6079811,56.2243669 C93.673724,57.1626376 93.0543861,59.7652319 92.5284426,60.3021823 C92.0016526,60.8399682 91.4026301,63.3033118 91.2133018,63.3545561 C91.0265128,63.4074713 90.5237064,63.8012721 90.4585277,64.0441252 C90.3874238,64.2855858 90.1458961,65.3976413 89.8157706,65.7073347 C89.4862095,66.0161926 88.4791858,67.4844512 87.8874994,67.8292358 C87.2935557,68.1712353 85.085101,68.0013495 84.8805361,67.3031469 C84.7583615,66.877597 84.3822442,66.0796909 84.1077039,65.4594686 C84.1031894,65.4488855 84.0983927,65.4377455 84.0933139,65.4277194 C84.0879528,65.4143514 84.0820275,65.4018188 84.0763843,65.3887292 C83.9728322,65.1517247 83.8856452,64.9445197 83.839089,64.8019271 C83.8342923,64.788002 83.8323172,64.7771405 83.828367,64.7646079 C83.8218774,64.7431633 83.8148234,64.7206047 83.810591,64.7036162 C83.8038192,64.6749305 83.8007155,64.6518149 83.8007155,64.6337123 C83.8007155,64.3538186 83.625495,63.1437306 83.4158513,62.5797656 C83.2031037,62.018864 82.3995163,60.3821121 82.4649771,59.795867 C82.532413,59.2112929 82.9358996,57.5405638 82.8791858,57.038426 C82.8182395,56.5343388 82.229939,55.135427 82.0894241,54.6221491 C81.9520129,54.1116563 81.4810903,52.4094566 81.6165264,51.926814 C81.7561949,51.4416648 81.5428831,49.7650872 81.3552476,49.8177239 C81.1667658,49.8720317 80.5313448,49.9692286 80.2994105,49.8425106 C80.0621152,49.7163495 79.0996725,49.4278222 79.0866932,49.0677201 L78.7867587,49.0376419 L78.1352547,48.9735866 C77.9634202,49.4821299 77.4560992,49.8970968 77.0142389,49.8998818 C76.5664534,49.9007173 75.2118103,49.8670187 74.7944979,49.6180385 C74.3800071,49.3665519 73.1323021,48.3104751 72.9277372,47.8345165 C72.7231723,47.3580008 72,45.627951 72,44.8111068 C72,43.9953767 72.178042,41.5671242 72.3927646,41.2287452 C72.6142591,40.8898091 73.3585932,39.2048765 74.0315413,38.6996752 L74.2710939,38.2434902 L74.6421323,37.5319195 C74.7925228,36.5100984 75.1353454,35.5796257 75.4132715,35.4604271 C75.6866831,35.3417856 76.2261702,34.6853581 76.4527435,34.7235128 C76.6756487,34.7627815 77.404182,34.989203 77.8852623,34.7767065 C78.3700106,34.5681091 80.4055021,34.3553341 80.8008062,34.2116275 C81.197521,34.0665283 82.5547035,34.1032905 82.6116995,34.2809743 C82.6689777,34.4592151 82.4424044,34.7466284 82.5690936,34.8655484 C82.6887288,34.9816835 83.1562654,35.8773435 83.7507734,36.1268806 C83.8136948,36.1519457 83.8850809,36.1853659 83.961828,36.2218496 C84.0007659,36.2407876 84.0430896,36.2613967 84.0851313,36.2828413 C84.1158865,36.2976019 84.1463597,36.313198 84.1776792,36.3290725 C84.2118204,36.3463396 84.24314,36.3608217 84.2781277,36.3792028 L84.2781277,36.3803168 C84.9042374,36.7017072 85.6683227,37.1239151 85.7388623,36.9359268 C85.8339497,36.6908457 87.0616214,36.4115089 87.8928604,36.4733362 C88.725228,36.5379485 90.6580138,36.7679905 90.7511261,36.427662 C90.8436741,36.0859409 91.3916259,35.3484696 91.3916259,35.1618738 C91.3916259,34.9730499 91.3611528,34.6945487 91.3202398,34.9646949 C91.2821484,35.2390186 90.6168187,35.1972434 90.6628105,35.0276362 C90.70457,34.8588644 89.5807326,34.6717116 88.7435683,34.9156787 L88.1600645,34.4725832 L87.89935,34.2770753 C87.7788683,34.0083216 87.6724946,33.6326234 87.669673,33.4410145 C87.6614904,33.2499626 87.7593994,32.4211429 87.6724946,32.4211429 C87.5850254,32.4211429 87.374253,32.7508884 87.4030332,33.1558292 C87.4349171,33.5571495 87.3971079,34.4853942 87.6502041,34.4976483 C87.9041467,34.5126873 87.7949514,35.1535187 87.5441125,35.1434927 C87.2910163,35.1326311 87.0726256,34.6441399 87.1245428,34.6346709 C87.1758956,34.6260373 86.982617,34.4881792 86.7289565,34.5068388 C86.4781176,34.5254984 86.0582657,34.1503572 86.0582657,33.9609763 C86.0582657,33.769646 85.9682572,33.0642023 85.8618834,32.8065886 L85.7388623,32.5893577 C85.6465965,32.4425875 85.5103139,32.0382037 85.4061974,31.9084221 L84.8754572,31.1715078 C84.5952738,30.9414657 84.3808334,30.773251 84.2380612,30.6690915 C84.2279035,30.6615719 84.2180279,30.6534954 84.2087167,30.6468114 C84.1782436,30.6259238 84.1536958,30.6092137 84.1319696,30.5947316 C84.1147579,30.5830346 84.10065,30.5746796 84.088235,30.568274 C84.077513,30.5624255 84.0682017,30.557134 84.0614299,30.554349 C84.054376,30.5518425 84.0492971,30.5504499 84.0464755,30.5510069 C84.0445004,30.552121 84.0453469,30.55602 84.0456291,30.5596405 C84.047322,30.5663245 84.054376,30.5771861 84.066791,30.5936176 C84.0732806,30.6016942 84.0803346,30.6103277 84.0893636,30.6214678 C84.10065,30.6340003 84.1139114,30.6484824 84.129148,30.6646355 C84.1565174,30.6944351 84.1852975,30.7247917 84.2262105,30.7654529 C84.6407014,31.1754068 85.2941805,32.3008303 85.156205,32.1535032 C85.0171008,32.004505 84.700519,32.4537275 84.8088678,32.4916037 C84.9245528,32.5297584 84.7276062,33.0305036 84.4824104,33.1513732 C84.417514,33.1834008 84.3486673,33.2622167 84.2781277,33.3608061 L84.2781277,33.3658192 C84.1675215,33.5195519 84.054376,33.7153382 83.9465914,33.8512468 C83.9420769,33.8570954 83.9375624,33.8632224 83.9324835,33.8687924 C83.920915,33.883553 83.9090643,33.8974781 83.8972137,33.9108461 C83.880002,33.9292272 83.8630725,33.9456588 83.846143,33.9595838 L83.8297778,33.9718379 C83.8136948,33.9838134 83.7973296,33.993004 83.7818109,33.9994095 C83.7761677,34.001359 83.7705245,34.0038655 83.7651635,34.004701 C83.7456946,34.0102711 83.7265078,34.0122206 83.7076032,34.0063721 C83.4787726,33.9356327 83.4875195,33.2811548 83.7022422,33.2903453 C83.9169648,33.2967508 83.9694463,32.7102272 83.787454,32.4314474 C83.6015116,32.1560097 82.6345543,31.7644369 82.5902555,31.5884241 C82.5515997,31.4096263 82.304711,31.6249078 82.4514335,32.1147915 C82.5975916,32.6077387 81.5900035,32.675136 81.4664181,32.1479332 C81.3414219,31.6249078 81.4861692,30.671041 81.226019,30.8353567 C80.9672797,31.002179 79.9151106,30.9640243 79.7108278,31.2815157 C79.5068272,31.6015137 78.5271729,32.4567911 78.4109236,32.9274582 C78.2876203,33.3928338 77.6660251,34.4001728 77.4812113,34.3107739 C77.2865219,34.2244385 76.3709175,34.3581191 76.1714315,34.2194255 C75.9806923,34.0796179 75.020789,33.8988706 74.9640752,33.6139638 C74.9020003,33.327386 74.7874439,32.2916398 74.8300499,31.9298667 C74.8687056,31.570043 75.4468484,30.6133912 75.9076132,30.5014337 C76.3627349,30.3900332 77.5681161,30.6014157 77.6581247,30.4763686 C77.7447473,30.3485365 77.8152869,29.8873385 77.6194689,29.7221872 C77.4174434,29.55815 77.1254094,28.6675029 76.8703381,28.6822635 C76.6135738,28.6992521 76.2967098,28.3433275 76.4140878,28.1848603 C76.53203,28.023051 77.1369779,27.6231232 77.2952688,27.4134118 C77.4560992,27.2050928 78.3480022,27.0753113 78.3996372,27.0352071 C78.4507079,26.9951029 78.0644329,26.7756439 77.5737593,26.7904045 C77.0771603,26.8015445 75.9984683,26.8569663 76.1415226,26.7611618 C76.2868343,26.6622939 76.5864866,26.2409215 76.4603618,26.0231335 C76.3356477,25.808966 76.5588351,24.8628973 76.8045952,24.8397817 C77.0469693,24.8177801 77.0771603,24.1722141 76.9654255,24.145478 C76.8477654,24.1187419 76.4284779,23.5661954 76.5049428,23.2069288 C76.5864866,22.8468267 76.6866529,21.5334147 76.8785207,21.4245207 C77.0684134,21.3142342 77.7636519,21.4008481 77.6964982,21.5467828 C77.6279337,21.6966165 77.4312692,22.0453 77.5492115,22.138041 C77.6626392,22.2327314 78.1352547,22.7131461 78.322608,23.0000024 C78.5110898,23.2829596 78.568368,24.6116891 78.685746,24.7088861 C78.8022774,24.803855 78.9992241,25.2709016 78.8572983,25.5393768 C78.7895803,25.6708294 78.7043684,25.9036565 78.644833,26.0718712 C78.890593,25.8376517 79.6366201,25.7145541 79.680919,25.5418833 C79.7322719,25.3421979 80.1196755,24.8052475 80.362614,24.7180766 C80.6027309,24.6267282 81.3795133,24.3994712 81.3882602,24.2382189 C81.395032,24.0752957 81.1193631,23.8675338 81.2000605,23.6750894 C81.2804756,23.4868226 81.4421525,22.808115 81.1337532,22.7944684 C80.823661,22.7819359 80.4083237,21.9740037 80.4083237,21.5668349 C80.4083237,21.1588305 80.1800574,20.0125194 80.2994105,19.5114956 C80.4145312,19.0110288 81.5349826,18.4350882 81.5349826,18.3097627 C81.5349826,18.1866651 81.6390991,17.8460581 81.7643775,17.8413236 C81.8919131,17.8335255 82.1997481,17.7758758 82.4189852,17.4750944 C82.6308863,17.1712495 83.2911372,15.9012838 83.6695118,15.6077435 C83.6946239,15.5882484 83.725097,15.5637403 83.7541593,15.5392322 C84.1745755,15.1885991 85.029798,14.3667419 85.1389933,14.3010156 C85.2512924,14.2327828 85.597783,14.2709374 85.8339497,14.0790501 C86.0633446,13.8860487 86.9253388,13.398393 87.192543,13.398393 C87.4603114,13.398393 88.2938076,13.5418211 88.4577417,13.7169984 C88.6182899,13.8893907 89.2026402,14.4887254 89.4884668,14.5650348 C89.7776792,14.6380021 90.7945785,15.2576674 91.4460825,15.4322877 C92.0973044,15.606351 92.4302514,16.6624277 92.7081776,16.4493743 C92.8219187,16.3633606 92.9417371,16.1279575 93.0542321,15.8851567 C100.978399,22.6712229 106,32.7491825 106,44 C106,44.1167048 105.99946,44.2332833 105.998381,44.3497333 Z" id="Combined-Shape" fill="url(#linearGradient-1)"></path>
                <path d="M49.7868801,14.2622008 C49.8763559,14.204264 56.6289729,8.6 69,8.6 C88.5508801,8.6 104.4,24.4491199 104.4,44 C104.4,59.2130877 94.71517,72.5789399 80.566962,77.467869 C80.4669715,77.5024208 80.5480674,77.4559603 80.2775864,77.5875406 C80.0415881,77.6959914 79.5315397,78.5627773 79.8462076,79.2088808 C80.1608755,79.8549842 81.0181739,80.0533647 81.4161266,79.9252903 C96.3059563,74.780093 107,60.6389104 107,44 C107,23.0131795 89.9868205,6 69,6 C61.3962363,6 54.3140906,8.23331207 48.3737291,12.07977 C47.9457245,12.3752805 47.6847351,13.1125201 47.9947234,13.749015 C48.3047117,14.3855099 49.3090913,14.5135105 49.5122706,14.4175223 C49.6056996,14.3718753 49.6974043,14.3201375 49.7868801,14.2622008 Z" id="Oval-5-Copy" fill="url(#linearGradient-1)" fill-rule="nonzero"></path>
                <path d="M69.9197888,67.9888032 L66.7381432,67.9810485 C56.1525399,67.9888032 29.1686866,67.9888032 21.3452557,67.8704109 L18.1636103,67.8626562 C21.7349808,62.4891981 26.9379614,58.2937694 33.0653733,55.9835488 C34.9261932,58.9079526 38.5710688,60.3701545 44,60.3701545 C49.4289312,60.3701545 52.6934804,58.7730429 53.7936476,55.5788197 C54.5957252,55.8456839 55.3832408,56.14443 56.1546914,56.473555 C61.7621708,58.8901461 66.6000016,62.940713 69.9197888,67.9888032 Z" id="Oval-4-Copy" fill="#FFFFFF" fill-rule="nonzero"></path>
                <path d="M8.5980713,83.2599779 C8.5980713,83.2604603 8.5980713,83.2604603 5.9980713,83.2605813 L5.9980713,83.1457509 C5.9980713,83.0931981 6.00118965,83.0413735 6.00725142,82.9904522 L8.58888824,82.9904276 C8.59495194,83.0413568 8.5980713,83.0931896 8.5980713,83.1457509 L8.5980713,83.4131976 C8.5980713,84.1311678 8.01604147,84.7131976 7.2980713,84.7131976 C6.58010112,84.7131976 5.9980713,84.1311678 5.9980713,83.4131976 L5.9980713,82.9907469 C5.99807136,82.9905043 5.99848671,82.9905043 8.5980713,82.9904275 L8.5980713,83.2604691 L5.9980713,83.2605813 L5.9980713,82.9904523 L6.00725142,82.9904522 C6.08400468,82.3456941 6.632654,81.8457509 7.2980713,81.8457509 C7.96348012,81.8457509 8.51212394,82.3456813 8.58888824,82.9904276 L8.5980713,82.9904275 L8.5980713,83.2599779 Z M8.5980713,78.5360974 C8.5980713,79.2540676 8.01604147,79.8360974 7.2980713,79.8360974 C6.58010112,79.8360974 5.9980713,79.2540676 5.9980713,78.5360974 L5.9980713,70.5986632 C5.9980713,69.3003468 6.57796181,67.2670003 7.77426647,65.5789864 C9.59864874,63.0047403 12.5674776,61.4841288 16.7427287,61.4841288 C17.4606989,61.4841288 18.0427287,62.0661586 18.0427287,62.7841288 C18.0427287,63.5020989 17.4606989,64.0841288 16.7427287,64.0841288 C13.4069219,64.0841288 11.2303295,65.1989628 9.89555772,67.0823571 C9.02809323,68.3063698 8.5980713,69.8142123 8.5980713,70.5986632 L8.5980713,78.5360974 Z" id="Path-4" fill="url(#linearGradient-1)" fill-rule="nonzero"></path>
                <path d="M45.902183,10.2307768 C45.3591336,10.7004346 44.5381721,10.640939 44.0685143,10.0978896 C43.5988564,9.55484019 43.658352,8.73387874 44.2014015,8.26422088 C50.2563882,3.02754808 58.7004072,0.428753382 69.481744,0.428753382 C70.1997142,0.428753382 70.781744,1.01078321 70.781744,1.72875338 C70.781744,2.44672356 70.1997142,3.02875338 69.481744,3.02875338 C59.2813715,3.02875338 51.438756,5.44245565 45.902183,10.2307768 Z M72.696955,3.02875338 C71.9789848,3.02875338 71.396955,2.44672356 71.396955,1.72875338 C71.396955,1.01078321 71.9789848,0.428753382 72.696955,0.428753382 L73.2163477,0.428753382 C73.9343178,0.428753382 74.5163477,1.01078321 74.5163477,1.72875338 C74.5163477,2.44672356 73.9343178,3.02875338 73.2163477,3.02875338 L72.696955,3.02875338 Z" id="Path-5" fill="url(#linearGradient-1)" fill-rule="nonzero"></path>
                <path d="M108.788512,53.049939 C108.93635,52.3473544 109.625754,51.8976434 110.328339,52.0454814 C111.030923,52.1933194 111.480634,52.8827231 111.332796,53.5853077 C109.235469,63.5526353 104.438926,70.1874 95.6708372,78.0716924 C95.1369627,78.551754 94.315005,78.50813 93.8349434,77.9742555 C93.3548818,77.440381 93.3985057,76.6184233 93.9323803,76.1383617 C102.32804,68.5889587 106.828781,62.3633596 108.788512,53.049939 Z M91.2702773,78.2422697 C91.8391844,77.8042904 92.6554271,77.9104284 93.0934064,78.4793355 C93.5313857,79.0482426 93.4252478,79.8644853 92.8563407,80.3024646 L92.4898947,80.584577 C91.9209876,81.0225563 91.1047449,80.9164183 90.6667656,80.3475112 C90.2287863,79.7786041 90.3349243,78.9623614 90.9038314,78.5243821 L91.2702773,78.2422697 Z" id="Path-6" fill="url(#linearGradient-1)" fill-rule="nonzero"></path>
                <path d="M16,66.4 L73,66.4 C75.5405098,66.4 77.6,68.4594902 77.6,71 L77.6,101 C77.6,102.43594 76.4359403,103.6 75,103.6 L14,103.6 C12.5640597,103.6 11.4,102.43594 11.4,101 L11.4,71 C11.4,68.4594902 13.4594902,66.4 16,66.4 Z" id="Combined-Shape" fill="url(#linearGradient-1)"></path>
                <circle id="Oval-3" fill="#FFFFFF" cx="44.5" cy="85.5" r="3.5"></circle>
                <path d="M6,100.4 L83,100.4 C85.1425178,100.4 86.3655107,102.845986 85.08,104.56 L82.08,108.56 C81.5889786,109.214695 80.818369,109.6 80,109.6 L9,109.6 C8.18163101,109.6 7.41102139,109.214695 6.92,108.56 L3.92,104.56 C2.6344893,102.845986 3.85748217,100.4 6,100.4 Z" id="Combined-Shape" fill="url(#linearGradient-2)"></path>
                <path d="M1.49023438,109.679883 C0.7722642,109.679883 0.190234375,109.097853 0.190234375,108.379883 C0.190234375,107.661913 0.7722642,107.079883 1.49023438,107.079883 L98.2147351,107.079883 C98.9327053,107.079883 99.5147351,107.661913 99.5147351,108.379883 C99.5147351,109.097853 98.9327053,109.679883 98.2147351,109.679883 L1.49023438,109.679883 Z" id="Path-3" fill="#FF9143" fill-rule="nonzero"></path>
            </g>
        </g>
    </g>
</svg>