<?xml version="1.0" encoding="UTF-8"?>
<svg width="24px" height="24px" viewBox="0 0 24 24" version="1.1" xmlns="http://www.w3.org/2000/svg" xmlns:xlink="http://www.w3.org/1999/xlink">
    <!-- Generator: sketchtool 50.2 (55047) - http://www.bohemiancoding.com/sketch -->
    <title>32DB9FBC-90C2-4B69-90C3-9AADA5ED4F6C</title>
    <desc>Created with sketchtool.</desc>
    <defs>
        <linearGradient x1="1.69403699%" y1="1.50892141%" x2="100%" y2="89.0725184%" id="linearGradient-1">
            <stop stop-color="#FFC478" offset="0%"></stop>
            <stop stop-color="#FF9143" offset="100%"></stop>
        </linearGradient>
    </defs>
    <g id="Symbols" stroke="none" stroke-width="1" fill="none" fill-rule="evenodd">
        <g id="Icon/ic_4/1" fill="url(#linearGradient-1)" fill-rule="nonzero">
            <g id="ic_4/1_orange" transform="translate(1.000000, 1.000000)">
                <path d="M22,11 C22,17.0751322 17.0751322,22 11,22 C4.92486775,22 0,17.0751322 0,11 C0,4.92486775 4.92486775,-4.4408921e-16 11,0 L11,11 L22,11 Z M11,20 C15.9705627,20 20,15.9705627 20,11 C20,6.02943725 15.9705627,2 11,2 C6.02943725,2 2,6.02943725 2,11 C2,15.9705627 6.02943725,20 11,20 Z M11,22 C4.92486775,22 0,17.0751322 0,11 C0,4.92486775 4.92486775,0 11,0 C17.0751322,0 22,4.92486775 22,11 C22,17.0751322 17.0751322,22 11,22 Z" id="Combined-Shape"></path>
            </g>
        </g>
    </g>
</svg>