<svg width="548px" height="800px" viewBox="0 0 548 800" version="1.1" xmlns="http://www.w3.org/2000/svg" xmlns:xlink="http://www.w3.org/1999/xlink">
    <!-- Generator: Sketch 49.3 (51167) - http://www.bohemiancoding.com/sketch -->
    <desc>Created with Sketch.</desc>
    <defs>
        <linearGradient x1="-32.9994837%" y1="0%" x2="79.202267%" y2="98.4831625%" id="linearGradient-1">
            <stop stop-color="#E7AC5F" offset="0%"></stop>
            <stop stop-color="#E76536" offset="100%"></stop>
        </linearGradient>
        <rect id="path-2" x="0" y="0" width="548" height="800"></rect>
        <linearGradient x1="4.4408921e-14%" y1="97.8356186%" x2="97.8356186%" y2="-3.33066907e-14%" id="linearGradient-4">
            <stop stop-color="#E7AC5F" offset="0%"></stop>
            <stop stop-color="#E76536" offset="100%"></stop>
        </linearGradient>
        <linearGradient x1="0%" y1="0%" x2="97.8356186%" y2="97.8356186%" id="linearGradient-5">
            <stop stop-color="#E7AC5F" stop-opacity="0.8" offset="0%"></stop>
            <stop stop-color="#E76536" offset="100%"></stop>
        </linearGradient>
        <linearGradient x1="4.4408921e-14%" y1="97.8356186%" x2="97.8356186%" y2="-3.33066907e-14%" id="linearGradient-6">
            <stop stop-color="#E7AC5F" stop-opacity="0.7" offset="0%"></stop>
            <stop stop-color="#E76536" offset="100%"></stop>
        </linearGradient>
    </defs>
    <g id="Symbols" stroke="none" stroke-width="1" fill="none" fill-rule="evenodd">
        <g id="Blocks/Login/LeftSide-2">
            <g id="Left-Side">
                <g id="BG">
                    <mask id="mask-3" fill="white">
                        <use xlink:href="#path-2"></use>
                    </mask>
                    <g id="Mask">
                        <use fill="#F7F8FA" xlink:href="#path-2"></use>
                        <use fill="url(#linearGradient-1)" xlink:href="#path-2"></use>
                    </g>
                    <g id="Shapes" mask="url(#mask-3)">
                        <g transform="translate(-319.000000, 216.000000)">
                            <path d="M188.34771,234.975425 L640.347116,150.823024 C655.549853,147.992607 670.168612,158.022354 672.999029,173.225091 C673.611862,176.516739 673.629347,179.89162 673.050653,183.189442 L598.336897,608.963313 C595.664155,624.194561 581.150104,634.375241 565.918856,631.702499 C564.630226,631.476374 563.35903,631.160208 562.11461,630.756326 L206.795391,515.435944 C197.650325,512.467874 194.548088,510.788001 191.433893,508.356005 C188.319698,505.924008 185.940082,502.98218 184.212545,499.428529 C182.485008,495.874878 181.490491,492.490091 180.498975,482.926694 L158.88054,274.412088 C157.652418,262.566571 158.351541,258.143928 160.092226,253.520252 C161.832912,248.896576 164.715415,245.038848 168.656093,242.059012 C172.59677,239.079175 176.639881,237.155167 188.34771,234.975425 Z" id="Rectangle-4-Copy" fill="url(#linearGradient-4)" transform="translate(415.866634, 391.236782) rotate(-192.000000) translate(-415.866634, -391.236782) "></path>
                            <path d="M355.511581,158.693837 L652.301144,317.458771 C660.607491,321.902178 663.314585,324.034466 665.920753,326.887066 C668.526922,329.739667 670.354096,332.949853 671.476049,336.64724 C672.598002,340.344626 673.049088,343.760988 672.628248,353.171735 L643.800777,997.805677 C643.109932,1013.25421 630.02638,1025.21768 614.577847,1024.52684 C611.21074,1024.37626 607.898482,1023.619 604.800454,1022.29148 L296.05483,889.992683 C286.766315,886.012515 283.692855,883.892782 280.725217,880.963996 C277.75758,878.035209 275.65401,874.622282 274.371243,870.655019 C273.088477,866.687756 272.576022,862.989538 273.194552,852.903129 L314.356716,181.66939 C315.303237,166.234411 328.583066,154.489196 344.018045,155.435718 C348.038995,155.682295 351.959393,156.793626 355.511581,158.693837 Z" id="Rectangle-4-Copy-2" fill="url(#linearGradient-5)" transform="translate(472.858242, 589.968806) rotate(-286.000000) translate(-472.858242, -589.968806) "></path>
                            <path d="M537.63189,102.976906 L1082.37179,128.018985 C1097.81945,128.729125 1109.76657,141.827609 1109.05643,157.275268 C1108.93199,159.982213 1108.41525,162.656758 1107.52239,165.215241 L934.814526,660.107991 C929.71926,674.708427 913.752739,682.413889 899.152303,677.318623 C897.775159,676.838027 896.437674,676.250557 895.15206,675.561578 L482.122365,454.212979 C473.308868,449.489698 470.457324,447.148956 467.769421,444.023023 C465.081519,440.897089 463.276725,437.371539 462.312482,433.363233 C461.348239,429.354927 461.116658,425.672979 462.438278,415.761348 L499.945439,134.472521 C501.514021,122.708783 503.215115,118.585039 505.970353,114.504717 C508.725592,110.424395 512.406928,107.3478 516.911614,105.360801 C521.416301,103.373801 525.776555,102.431908 537.63189,102.976906 Z" id="Rectangle-4-Copy-3" fill="url(#linearGradient-6)" transform="translate(785.302118, 390.857037) rotate(-286.000000) translate(-785.302118, -390.857037) "></path>
                        </g>
                    </g>
                </g>
            </g>
        </g>
    </g>
</svg>